M48
; DRILL file {KiCad 8.0.0} date 2025-02-12T14:58:45-0800
; FORMAT={-:-/ absolute / inch / decimal}
; #@! TF.CreationDate,2025-02-12T14:58:45-08:00
; #@! TF.GenerationSoftware,Kicad,Pcbnew,8.0.0
; #@! TF.FileFunction,Plated,1,2,PTH
FMAT,2
INCH
; #@! TA.AperFunction,Plated,PTH,ComponentDrill
T1C0.0394
; #@! TA.AperFunction,Plated,PTH,ComponentDrill
T2C0.0400
; #@! TA.AperFunction,Plated,PTH,ComponentDrill
T3C0.0900
; #@! TA.AperFunction,Plated,PTH,ComponentDrill
T4C0.1000
; #@! TA.AperFunction,Plated,PTH,ComponentDrill
T5C0.1200
%
G90
G05
T1
X6.1092Y-2.09
X6.11Y-2.5408
X6.11Y-2.6408
X6.11Y-2.7408
X6.11Y-2.8408
X6.11Y-3.1208
X6.11Y-3.2208
X6.11Y-3.3208
X6.11Y-3.4208
X6.2092Y-2.09
X6.3092Y-2.09
X6.4092Y-2.09
X6.6792Y-2.09
X6.7792Y-2.09
X6.8792Y-2.09
X6.9792Y-2.09
X7.2392Y-2.09
X7.3392Y-2.09
X7.4392Y-2.09
X7.5392Y-2.09
X7.8092Y-2.09
X7.9092Y-2.09
X7.93Y-3.7
X8.0092Y-2.09
X8.03Y-3.7
X8.1092Y-2.09
X8.12Y-2.5392
X8.12Y-2.6392
X8.12Y-2.7392
X8.12Y-2.8392
X8.12Y-3.1192
X8.12Y-3.2192
X8.12Y-3.3192
X8.12Y-3.4192
X8.13Y-3.7
T2
X6.26Y-2.54
X6.26Y-2.64
X6.26Y-2.74
X6.26Y-2.84
X6.26Y-2.94
X6.26Y-3.04
X6.26Y-3.14
X6.26Y-3.24
X6.26Y-3.34
X6.26Y-3.44
X6.26Y-3.54
X6.26Y-3.64
X6.46Y-3.84
X6.46Y-4.64
X6.56Y-3.84
X6.56Y-4.64
X6.66Y-3.84
X6.66Y-4.64
X6.76Y-3.84
X6.76Y-4.64
X6.86Y-2.54
X6.86Y-2.64
X6.86Y-2.74
X6.86Y-2.84
X6.86Y-2.94
X6.86Y-3.04
X6.86Y-3.14
X6.86Y-3.24
X6.86Y-3.34
X6.86Y-3.44
X6.86Y-3.54
X6.86Y-3.64
X6.86Y-3.84
X6.86Y-4.64
X6.96Y-3.84
X6.96Y-4.64
X7.06Y-3.84
X7.06Y-4.64
X7.16Y-3.84
X7.16Y-4.64
X7.26Y-3.84
X7.26Y-4.64
X7.3313Y-3.5437
X7.36Y-3.84
X7.36Y-4.64
X7.4313Y-3.5437
X7.46Y-3.84
X7.46Y-4.64
X7.5313Y-3.5437
X7.56Y-3.84
X7.56Y-4.64
X7.6313Y-3.5437
X7.66Y-3.84
X7.76Y-3.84
X7.86Y-3.84
X7.96Y-3.84
T3
X7.0113Y-2.5637
X7.0113Y-3.5237
X7.9413Y-2.5637
X7.9413Y-3.5237
T4
X6.56Y-2.59
X6.56Y-3.59
X8.1093Y-3.8907
X8.11Y-4.59
T5
X6.15Y-2.29
X6.16Y-4.83
X8.06Y-2.29
X8.06Y-4.84
M30
