%TF.GenerationSoftware,KiCad,Pcbnew,8.0.0*%
%TF.CreationDate,2025-02-12T14:58:42-08:00*%
%TF.ProjectId,HempCrete,48656d70-4372-4657-9465-2e6b69636164,rev?*%
%TF.SameCoordinates,Original*%
%TF.FileFunction,Soldermask,Bot*%
%TF.FilePolarity,Negative*%
%FSLAX46Y46*%
G04 Gerber Fmt 4.6, Leading zero omitted, Abs format (unit mm)*
G04 Created by KiCad (PCBNEW 8.0.0) date 2025-02-12 14:58:42*
%MOMM*%
%LPD*%
G01*
G04 APERTURE LIST*
G04 Aperture macros list*
%AMFreePoly0*
4,1,33,-1.524000,0.762000,-1.508258,0.916090,-1.452607,1.084035,-1.359725,1.234619,-1.234619,1.359725,-1.084035,1.452607,-0.916090,1.508258,-0.762000,1.524000,0.762000,1.524000,0.916090,1.508258,1.084035,1.452607,1.234619,1.359725,1.359725,1.234619,1.452607,1.084035,1.508258,0.916090,1.524000,0.762000,1.524000,-0.762000,1.508258,-0.916090,1.452607,-1.084035,1.359725,-1.234619,
1.234619,-1.359725,1.084035,-1.452607,0.916090,-1.508258,0.762000,-1.524000,-0.762000,-1.524000,-0.916090,-1.508258,-1.084035,-1.452607,-1.234619,-1.359725,-1.359725,-1.234619,-1.452607,-1.084035,-1.508258,-0.916090,-1.524000,-0.762000,-1.524000,0.762000,-1.524000,0.762000,$1*%
G04 Aperture macros list end*
%ADD10R,1.700000X1.700000*%
%ADD11O,1.700000X1.700000*%
%ADD12C,4.064000*%
%ADD13FreePoly0,180.000000*%
%ADD14C,1.778000*%
%ADD15C,3.810000*%
G04 APERTURE END LIST*
D10*
%TO.C,J8*%
X162794000Y-53086000D03*
D11*
X160254000Y-53086000D03*
X157714000Y-53086000D03*
X155174000Y-53086000D03*
%TD*%
D12*
%TO.C,MNT*%
X156210000Y-58166000D03*
%TD*%
%TO.C,MNT*%
X156464000Y-122682000D03*
%TD*%
%TO.C,MNT*%
X204724000Y-122936000D03*
%TD*%
%TO.C,MNT*%
X204724000Y-58166000D03*
%TD*%
D11*
%TO.C,SW1*%
X206502000Y-93980000D03*
X203962000Y-93980000D03*
D10*
X201422000Y-93980000D03*
%TD*%
%TO.C,J5*%
X205974000Y-53086000D03*
D11*
X203434000Y-53086000D03*
X200894000Y-53086000D03*
X198354000Y-53086000D03*
%TD*%
D10*
%TO.C,J4*%
X206248000Y-72116000D03*
D11*
X206248000Y-69576000D03*
X206248000Y-67036000D03*
X206248000Y-64496000D03*
%TD*%
D10*
%TO.C,J1*%
X155194000Y-64536000D03*
D11*
X155194000Y-67076000D03*
X155194000Y-69616000D03*
X155194000Y-72156000D03*
%TD*%
D10*
%TO.C,J3*%
X206248000Y-86848000D03*
D11*
X206248000Y-84308000D03*
X206248000Y-81768000D03*
X206248000Y-79228000D03*
%TD*%
D13*
%TO.C,OLED1*%
X201708000Y-89503000D03*
X201708000Y-65119000D03*
X178086000Y-89503000D03*
X178086000Y-65119000D03*
D14*
X193834000Y-90011000D03*
X191294000Y-90011000D03*
X188754000Y-90011000D03*
X186214000Y-90011000D03*
%TD*%
D10*
%TO.C,J2*%
X155194000Y-79268000D03*
D11*
X155194000Y-81808000D03*
X155194000Y-84348000D03*
X155194000Y-86888000D03*
%TD*%
D14*
%TO.C,MX1*%
X174244000Y-64516000D03*
X174244000Y-67056000D03*
X174244000Y-69596000D03*
X174244000Y-72136000D03*
X174244000Y-74676000D03*
X174244000Y-77216000D03*
X174244000Y-79756000D03*
X174244000Y-82296000D03*
X174244000Y-84836000D03*
X174244000Y-87376000D03*
X174244000Y-89916000D03*
X174244000Y-92456000D03*
X159004000Y-92456000D03*
X159004000Y-89916000D03*
X159004000Y-87376000D03*
X159004000Y-84836000D03*
X159004000Y-82296000D03*
X159004000Y-79756000D03*
X159004000Y-77216000D03*
X159004000Y-74676000D03*
X159004000Y-72136000D03*
X159004000Y-69596000D03*
X159004000Y-67056000D03*
X159004000Y-64516000D03*
D15*
X166624000Y-91186000D03*
X166624000Y-65786000D03*
%TD*%
D10*
%TO.C,J7*%
X177272000Y-53086000D03*
D11*
X174732000Y-53086000D03*
X172192000Y-53086000D03*
X169652000Y-53086000D03*
%TD*%
D10*
%TO.C,J6*%
X191496000Y-53086000D03*
D11*
X188956000Y-53086000D03*
X186416000Y-53086000D03*
X183876000Y-53086000D03*
%TD*%
D14*
%TO.C,FeatherRP1*%
X192024000Y-117856000D03*
X189484000Y-117856000D03*
X186944000Y-117856000D03*
X184404000Y-117856000D03*
X181864000Y-117856000D03*
X179324000Y-117856000D03*
X176784000Y-117856000D03*
X174244000Y-117856000D03*
X171704000Y-117856000D03*
X169164000Y-117856000D03*
X166624000Y-117856000D03*
X164084000Y-117856000D03*
X164084000Y-97536000D03*
X166624000Y-97536000D03*
X169164000Y-97536000D03*
X171704000Y-97536000D03*
X174244000Y-97536000D03*
X176784000Y-97536000D03*
X179324000Y-97536000D03*
X181864000Y-97536000D03*
X184404000Y-97536000D03*
X186944000Y-97536000D03*
X189484000Y-97536000D03*
X192024000Y-97536000D03*
X194564000Y-97536000D03*
X197104000Y-97536000D03*
X199644000Y-97536000D03*
X202184000Y-97536000D03*
D15*
X205975949Y-98824051D03*
X205994000Y-116586000D03*
%TD*%
M02*
