%TF.GenerationSoftware,KiCad,Pcbnew,8.0.0*%
%TF.CreationDate,2025-02-12T14:58:41-08:00*%
%TF.ProjectId,HempCrete,48656d70-4372-4657-9465-2e6b69636164,rev?*%
%TF.SameCoordinates,Original*%
%TF.FileFunction,Copper,L2,Bot*%
%TF.FilePolarity,Positive*%
%FSLAX46Y46*%
G04 Gerber Fmt 4.6, Leading zero omitted, Abs format (unit mm)*
G04 Created by KiCad (PCBNEW 8.0.0) date 2025-02-12 14:58:41*
%MOMM*%
%LPD*%
G01*
G04 APERTURE LIST*
G04 Aperture macros list*
%AMFreePoly0*
4,1,33,-1.524000,0.762000,-1.508258,0.916090,-1.452607,1.084035,-1.359725,1.234619,-1.234619,1.359725,-1.084035,1.452607,-0.916090,1.508258,-0.762000,1.524000,0.762000,1.524000,0.916090,1.508258,1.084035,1.452607,1.234619,1.359725,1.359725,1.234619,1.452607,1.084035,1.508258,0.916090,1.524000,0.762000,1.524000,-0.762000,1.508258,-0.916090,1.452607,-1.084035,1.359725,-1.234619,
1.234619,-1.359725,1.084035,-1.452607,0.916090,-1.508258,0.762000,-1.524000,-0.762000,-1.524000,-0.916090,-1.508258,-1.084035,-1.452607,-1.234619,-1.359725,-1.359725,-1.234619,-1.452607,-1.084035,-1.508258,-0.916090,-1.524000,-0.762000,-1.524000,0.762000,-1.524000,0.762000,$1*%
G04 Aperture macros list end*
%TA.AperFunction,ComponentPad*%
%ADD10R,1.700000X1.700000*%
%TD*%
%TA.AperFunction,ComponentPad*%
%ADD11O,1.700000X1.700000*%
%TD*%
%TA.AperFunction,ComponentPad*%
%ADD12C,4.064000*%
%TD*%
%TA.AperFunction,ComponentPad*%
%ADD13FreePoly0,180.000000*%
%TD*%
%TA.AperFunction,ComponentPad*%
%ADD14C,1.778000*%
%TD*%
%TA.AperFunction,ComponentPad*%
%ADD15C,3.810000*%
%TD*%
%TA.AperFunction,Conductor*%
%ADD16C,0.200000*%
%TD*%
G04 APERTURE END LIST*
D10*
%TO.P,J8,1,Pin_1*%
%TO.N,GND*%
X162794000Y-53086000D03*
D11*
%TO.P,J8,2,Pin_2*%
%TO.N,Net-(J8-Pin_2)*%
X160254000Y-53086000D03*
%TO.P,J8,3,Pin_3*%
%TO.N,Net-(J8-Pin_3)*%
X157714000Y-53086000D03*
%TO.P,J8,4,Pin_4*%
%TO.N,+3.3V*%
X155174000Y-53086000D03*
%TD*%
D12*
%TO.P,MNT,1*%
%TO.N,N/C*%
X156210000Y-58166000D03*
%TD*%
%TO.P,MNT,1*%
%TO.N,N/C*%
X156464000Y-122682000D03*
%TD*%
%TO.P,MNT,1*%
%TO.N,N/C*%
X204724000Y-122936000D03*
%TD*%
%TO.P,MNT,1*%
%TO.N,N/C*%
X204724000Y-58166000D03*
%TD*%
D11*
%TO.P,SW1,3*%
%TO.N,N/C*%
X206502000Y-93980000D03*
%TO.P,SW1,2*%
%TO.N,+3.3V*%
X203962000Y-93980000D03*
D10*
%TO.P,SW1,1*%
%TO.N,Net-(OLED1-VCC)*%
X201422000Y-93980000D03*
%TD*%
%TO.P,J5,1,Pin_1*%
%TO.N,GND*%
X205974000Y-53086000D03*
D11*
%TO.P,J5,2,Pin_2*%
%TO.N,Net-(J5-Pin_2)*%
X203434000Y-53086000D03*
%TO.P,J5,3,Pin_3*%
%TO.N,Net-(J5-Pin_3)*%
X200894000Y-53086000D03*
%TO.P,J5,4,Pin_4*%
%TO.N,+3.3V*%
X198354000Y-53086000D03*
%TD*%
D10*
%TO.P,J4,1,Pin_1*%
%TO.N,GND*%
X206248000Y-72116000D03*
D11*
%TO.P,J4,2,Pin_2*%
%TO.N,Net-(J4-Pin_2)*%
X206248000Y-69576000D03*
%TO.P,J4,3,Pin_3*%
%TO.N,Net-(J4-Pin_3)*%
X206248000Y-67036000D03*
%TO.P,J4,4,Pin_4*%
%TO.N,+3.3V*%
X206248000Y-64496000D03*
%TD*%
D10*
%TO.P,J1,1,Pin_1*%
%TO.N,GND*%
X155194000Y-64536000D03*
D11*
%TO.P,J1,2,Pin_2*%
%TO.N,Net-(J1-Pin_2)*%
X155194000Y-67076000D03*
%TO.P,J1,3,Pin_3*%
%TO.N,Net-(J1-Pin_3)*%
X155194000Y-69616000D03*
%TO.P,J1,4,Pin_4*%
%TO.N,+3.3V*%
X155194000Y-72156000D03*
%TD*%
D10*
%TO.P,J3,1,Pin_1*%
%TO.N,GND*%
X206248000Y-86848000D03*
D11*
%TO.P,J3,2,Pin_2*%
%TO.N,Net-(J3-Pin_2)*%
X206248000Y-84308000D03*
%TO.P,J3,3,Pin_3*%
%TO.N,Net-(J3-Pin_3)*%
X206248000Y-81768000D03*
%TO.P,J3,4,Pin_4*%
%TO.N,+3.3V*%
X206248000Y-79228000D03*
%TD*%
D13*
%TO.P,OLED1,0*%
%TO.N,N/C*%
X201708000Y-89503000D03*
X201708000Y-65119000D03*
X178086000Y-89503000D03*
X178086000Y-65119000D03*
D14*
%TO.P,OLED1,1,GND*%
%TO.N,GND*%
X193834000Y-90011000D03*
%TO.P,OLED1,2,VCC*%
%TO.N,Net-(OLED1-VCC)*%
X191294000Y-90011000D03*
%TO.P,OLED1,3,SCL*%
%TO.N,Net-(FeatherRP1-SCL)*%
X188754000Y-90011000D03*
%TO.P,OLED1,4,SDA*%
%TO.N,Net-(FeatherRP1-SDA)*%
X186214000Y-90011000D03*
%TD*%
D10*
%TO.P,J2,1,Pin_1*%
%TO.N,GND*%
X155194000Y-79268000D03*
D11*
%TO.P,J2,2,Pin_2*%
%TO.N,Net-(J2-Pin_2)*%
X155194000Y-81808000D03*
%TO.P,J2,3,Pin_3*%
%TO.N,Net-(J2-Pin_3)*%
X155194000Y-84348000D03*
%TO.P,J2,4,Pin_4*%
%TO.N,+3.3V*%
X155194000Y-86888000D03*
%TD*%
D14*
%TO.P,MX1,24,SC7*%
%TO.N,Net-(J8-Pin_3)*%
X174244000Y-64516000D03*
%TO.P,MX1,23,SD7*%
%TO.N,Net-(J8-Pin_2)*%
X174244000Y-67056000D03*
%TO.P,MX1,22,SC6*%
%TO.N,Net-(J7-Pin_3)*%
X174244000Y-69596000D03*
%TO.P,MX1,21,SD6*%
%TO.N,Net-(J7-Pin_2)*%
X174244000Y-72136000D03*
%TO.P,MX1,20,SC5*%
%TO.N,Net-(J6-Pin_3)*%
X174244000Y-74676000D03*
%TO.P,MX1,19,SD5*%
%TO.N,Net-(J6-Pin_2)*%
X174244000Y-77216000D03*
%TO.P,MX1,18,SC4*%
%TO.N,Net-(J5-Pin_3)*%
X174244000Y-79756000D03*
%TO.P,MX1,17,SD4*%
%TO.N,Net-(J5-Pin_2)*%
X174244000Y-82296000D03*
%TO.P,MX1,16,SC3*%
%TO.N,Net-(J4-Pin_3)*%
X174244000Y-84836000D03*
%TO.P,MX1,15,SD3*%
%TO.N,Net-(J4-Pin_2)*%
X174244000Y-87376000D03*
%TO.P,MX1,14,SC2*%
%TO.N,Net-(J3-Pin_3)*%
X174244000Y-89916000D03*
%TO.P,MX1,13,SD2*%
%TO.N,Net-(J3-Pin_2)*%
X174244000Y-92456000D03*
%TO.P,MX1,12,SC1*%
%TO.N,Net-(J2-Pin_3)*%
X159004000Y-92456000D03*
%TO.P,MX1,11,SD1*%
%TO.N,Net-(J2-Pin_2)*%
X159004000Y-89916000D03*
%TO.P,MX1,10,SC0*%
%TO.N,Net-(J1-Pin_3)*%
X159004000Y-87376000D03*
%TO.P,MX1,9,SD0*%
%TO.N,Net-(J1-Pin_2)*%
X159004000Y-84836000D03*
%TO.P,MX1,8,A2*%
%TO.N,GND*%
X159004000Y-82296000D03*
%TO.P,MX1,7,A1*%
X159004000Y-79756000D03*
%TO.P,MX1,6,A0*%
X159004000Y-77216000D03*
%TO.P,MX1,5,RST*%
%TO.N,unconnected-(MX1-RST-Pad5)*%
X159004000Y-74676000D03*
%TO.P,MX1,4,SCL*%
%TO.N,Net-(FeatherRP1-SCL)*%
X159004000Y-72136000D03*
%TO.P,MX1,3,SDA*%
%TO.N,Net-(FeatherRP1-SDA)*%
X159004000Y-69596000D03*
%TO.P,MX1,2,GND*%
%TO.N,GND*%
X159004000Y-67056000D03*
%TO.P,MX1,1,VIN*%
%TO.N,+3.3V*%
X159004000Y-64516000D03*
D15*
%TO.P,MX1,0*%
%TO.N,N/C*%
X166624000Y-91186000D03*
X166624000Y-65786000D03*
%TD*%
D10*
%TO.P,J7,1,Pin_1*%
%TO.N,GND*%
X177272000Y-53086000D03*
D11*
%TO.P,J7,2,Pin_2*%
%TO.N,Net-(J7-Pin_2)*%
X174732000Y-53086000D03*
%TO.P,J7,3,Pin_3*%
%TO.N,Net-(J7-Pin_3)*%
X172192000Y-53086000D03*
%TO.P,J7,4,Pin_4*%
%TO.N,+3.3V*%
X169652000Y-53086000D03*
%TD*%
D10*
%TO.P,J6,1,Pin_1*%
%TO.N,GND*%
X191496000Y-53086000D03*
D11*
%TO.P,J6,2,Pin_2*%
%TO.N,Net-(J6-Pin_2)*%
X188956000Y-53086000D03*
%TO.P,J6,3,Pin_3*%
%TO.N,Net-(J6-Pin_3)*%
X186416000Y-53086000D03*
%TO.P,J6,4,Pin_4*%
%TO.N,+3.3V*%
X183876000Y-53086000D03*
%TD*%
D14*
%TO.P,FeatherRP1,28,VBAT*%
%TO.N,unconnected-(FeatherRP1-VBAT-Pad28)*%
X192024000Y-117856000D03*
%TO.P,FeatherRP1,27,EN*%
%TO.N,unconnected-(FeatherRP1-EN-Pad27)*%
X189484000Y-117856000D03*
%TO.P,FeatherRP1,26,VBUS*%
%TO.N,unconnected-(FeatherRP1-VBUS-Pad26)*%
X186944000Y-117856000D03*
%TO.P,FeatherRP1,25,D13*%
%TO.N,unconnected-(FeatherRP1-D13-Pad25)*%
X184404000Y-117856000D03*
%TO.P,FeatherRP1,24,D12*%
%TO.N,unconnected-(FeatherRP1-D12-Pad24)*%
X181864000Y-117856000D03*
%TO.P,FeatherRP1,23,D11*%
%TO.N,unconnected-(FeatherRP1-D11-Pad23)*%
X179324000Y-117856000D03*
%TO.P,FeatherRP1,22,D10*%
%TO.N,unconnected-(FeatherRP1-D10-Pad22)*%
X176784000Y-117856000D03*
%TO.P,FeatherRP1,21,D9*%
%TO.N,unconnected-(FeatherRP1-D9-Pad21)*%
X174244000Y-117856000D03*
%TO.P,FeatherRP1,20,D6*%
%TO.N,unconnected-(FeatherRP1-D6-Pad20)*%
X171704000Y-117856000D03*
%TO.P,FeatherRP1,19,D5*%
%TO.N,unconnected-(FeatherRP1-D5-Pad19)*%
X169164000Y-117856000D03*
%TO.P,FeatherRP1,18,SCL*%
%TO.N,Net-(FeatherRP1-SCL)*%
X166624000Y-117856000D03*
%TO.P,FeatherRP1,17,SDA*%
%TO.N,Net-(FeatherRP1-SDA)*%
X164084000Y-117856000D03*
%TO.P,FeatherRP1,16,D4*%
%TO.N,unconnected-(FeatherRP1-D4-Pad16)*%
X164084000Y-97536000D03*
%TO.P,FeatherRP1,15,TX*%
%TO.N,unconnected-(FeatherRP1-TX-Pad15)*%
X166624000Y-97536000D03*
%TO.P,FeatherRP1,14,RX*%
%TO.N,unconnected-(FeatherRP1-RX-Pad14)*%
X169164000Y-97536000D03*
%TO.P,FeatherRP1,13,MISO*%
%TO.N,unconnected-(FeatherRP1-MISO-Pad13)*%
X171704000Y-97536000D03*
%TO.P,FeatherRP1,12,MOSI*%
%TO.N,unconnected-(FeatherRP1-MOSI-Pad12)*%
X174244000Y-97536000D03*
%TO.P,FeatherRP1,11,SCK*%
%TO.N,unconnected-(FeatherRP1-SCK-Pad11)*%
X176784000Y-97536000D03*
%TO.P,FeatherRP1,10,D25*%
%TO.N,unconnected-(FeatherRP1-D25-Pad10)*%
X179324000Y-97536000D03*
%TO.P,FeatherRP1,9,D24*%
%TO.N,unconnected-(FeatherRP1-D24-Pad9)*%
X181864000Y-97536000D03*
%TO.P,FeatherRP1,8,A3*%
%TO.N,unconnected-(FeatherRP1-A3-Pad8)*%
X184404000Y-97536000D03*
%TO.P,FeatherRP1,7,A2*%
%TO.N,unconnected-(FeatherRP1-A2-Pad7)*%
X186944000Y-97536000D03*
%TO.P,FeatherRP1,6,A1*%
%TO.N,unconnected-(FeatherRP1-A1-Pad6)*%
X189484000Y-97536000D03*
%TO.P,FeatherRP1,5,A0*%
%TO.N,unconnected-(FeatherRP1-A0-Pad5)*%
X192024000Y-97536000D03*
%TO.P,FeatherRP1,4,GND*%
%TO.N,GND*%
X194564000Y-97536000D03*
%TO.P,FeatherRP1,3,3.3V*%
%TO.N,+3.3V*%
X197104000Y-97536000D03*
%TO.P,FeatherRP1,2,3.3V*%
X199644000Y-97536000D03*
%TO.P,FeatherRP1,1,RST*%
%TO.N,unconnected-(FeatherRP1-RST-Pad1)*%
X202184000Y-97536000D03*
D15*
%TO.P,FeatherRP1,0*%
%TO.N,N/C*%
X205975949Y-98824051D03*
X205994000Y-116586000D03*
%TD*%
D16*
%TO.N,+3.3V*%
X204470000Y-93472000D02*
X203962000Y-93980000D01*
X204470000Y-81006000D02*
X204470000Y-93472000D01*
X206248000Y-79228000D02*
X204470000Y-81006000D01*
X159004000Y-56916000D02*
X157714000Y-55626000D01*
X167112000Y-55626000D02*
X169652000Y-53086000D01*
X155174000Y-53086000D02*
X157714000Y-55626000D01*
X157714000Y-55626000D02*
X167112000Y-55626000D01*
X204216000Y-77196000D02*
X204216000Y-66528000D01*
X206248000Y-79228000D02*
X204216000Y-77196000D01*
X204216000Y-66528000D02*
X206248000Y-64496000D01*
X198354000Y-56602000D02*
X198354000Y-53086000D01*
X206248000Y-64496000D02*
X198354000Y-56602000D01*
X195814000Y-55626000D02*
X198354000Y-53086000D01*
X186436000Y-55626000D02*
X195814000Y-55626000D01*
X185046000Y-54236000D02*
X186436000Y-55626000D01*
X185026000Y-54236000D02*
X185046000Y-54236000D01*
X183876000Y-53086000D02*
X185026000Y-54236000D01*
X172100000Y-55534000D02*
X181428000Y-55534000D01*
X169652000Y-53086000D02*
X172100000Y-55534000D01*
X181428000Y-55534000D02*
X183876000Y-53086000D01*
X159004000Y-64516000D02*
X159004000Y-56916000D01*
X156698000Y-72878000D02*
X156698000Y-72156000D01*
X157226000Y-84856000D02*
X157226000Y-73406000D01*
X157226000Y-73406000D02*
X156698000Y-72878000D01*
X155194000Y-86888000D02*
X157226000Y-84856000D01*
X156698000Y-72156000D02*
X155194000Y-72156000D01*
X157226000Y-71628000D02*
X156698000Y-72156000D01*
X157226000Y-65278000D02*
X157226000Y-71628000D01*
X157734000Y-64770000D02*
X157226000Y-65278000D01*
X158750000Y-64770000D02*
X157734000Y-64770000D01*
X159004000Y-64516000D02*
X158750000Y-64770000D01*
%TD*%
%TA.AperFunction,Conductor*%
%TO.N,GND*%
G36*
X158530619Y-82492081D02*
G01*
X158597498Y-82607920D01*
X158692080Y-82702502D01*
X158807919Y-82769381D01*
X158868057Y-82785495D01*
X158213040Y-83440512D01*
X158213040Y-83440514D01*
X158245733Y-83465960D01*
X158244789Y-83467172D01*
X158285639Y-83515043D01*
X158295060Y-83584274D01*
X158265556Y-83647609D01*
X158245181Y-83665263D01*
X158245459Y-83665620D01*
X158059694Y-83810206D01*
X158059688Y-83810212D01*
X158041729Y-83829721D01*
X157981841Y-83865711D01*
X157912003Y-83863610D01*
X157854387Y-83824085D01*
X157827287Y-83759685D01*
X157826500Y-83745737D01*
X157826500Y-83171307D01*
X157846185Y-83104268D01*
X157862819Y-83083626D01*
X158514504Y-82431941D01*
X158530619Y-82492081D01*
G37*
%TD.AperFunction*%
%TA.AperFunction,Conductor*%
G36*
X158530619Y-79952081D02*
G01*
X158597498Y-80067920D01*
X158692080Y-80162502D01*
X158807919Y-80229381D01*
X158868057Y-80245495D01*
X158213040Y-80900512D01*
X158213040Y-80900514D01*
X158245733Y-80925960D01*
X158244886Y-80927047D01*
X158286099Y-80975345D01*
X158295519Y-81044577D01*
X158266013Y-81107911D01*
X158245474Y-81125708D01*
X158245733Y-81126041D01*
X158213040Y-81151485D01*
X158213040Y-81151487D01*
X158868058Y-81806504D01*
X158807919Y-81822619D01*
X158692080Y-81889498D01*
X158597498Y-81984080D01*
X158530619Y-82099919D01*
X158514504Y-82160057D01*
X157862819Y-81508372D01*
X157829334Y-81447049D01*
X157826500Y-81420691D01*
X157826500Y-80631307D01*
X157846185Y-80564268D01*
X157862819Y-80543626D01*
X158514504Y-79891941D01*
X158530619Y-79952081D01*
G37*
%TD.AperFunction*%
%TA.AperFunction,Conductor*%
G36*
X158530619Y-77412081D02*
G01*
X158597498Y-77527920D01*
X158692080Y-77622502D01*
X158807919Y-77689381D01*
X158868057Y-77705495D01*
X158213040Y-78360512D01*
X158213040Y-78360514D01*
X158245733Y-78385960D01*
X158244886Y-78387047D01*
X158286099Y-78435345D01*
X158295519Y-78504577D01*
X158266013Y-78567911D01*
X158245474Y-78585708D01*
X158245733Y-78586041D01*
X158213040Y-78611485D01*
X158213040Y-78611487D01*
X158868058Y-79266504D01*
X158807919Y-79282619D01*
X158692080Y-79349498D01*
X158597498Y-79444080D01*
X158530619Y-79559919D01*
X158514504Y-79620057D01*
X157862819Y-78968372D01*
X157829334Y-78907049D01*
X157826500Y-78880691D01*
X157826500Y-78091307D01*
X157846185Y-78024268D01*
X157862819Y-78003626D01*
X158514504Y-77351941D01*
X158530619Y-77412081D01*
G37*
%TD.AperFunction*%
%TA.AperFunction,Conductor*%
G36*
X158031703Y-75672549D02*
G01*
X158041730Y-75682280D01*
X158059683Y-75701783D01*
X158059687Y-75701786D01*
X158059692Y-75701792D01*
X158176591Y-75792778D01*
X158245459Y-75846380D01*
X158244570Y-75847521D01*
X158285632Y-75895624D01*
X158295063Y-75964855D01*
X158265568Y-76028194D01*
X158245429Y-76045651D01*
X158245733Y-76046041D01*
X158213040Y-76071485D01*
X158213040Y-76071487D01*
X158868058Y-76726504D01*
X158807919Y-76742619D01*
X158692080Y-76809498D01*
X158597498Y-76904080D01*
X158530619Y-77019919D01*
X158514504Y-77080057D01*
X157862819Y-76428372D01*
X157829334Y-76367049D01*
X157826500Y-76340691D01*
X157826500Y-75766262D01*
X157846185Y-75699223D01*
X157898989Y-75653468D01*
X157968147Y-75643524D01*
X158031703Y-75672549D01*
G37*
%TD.AperFunction*%
%TA.AperFunction,Conductor*%
G36*
X158530619Y-67252081D02*
G01*
X158597498Y-67367920D01*
X158692080Y-67462502D01*
X158807919Y-67529381D01*
X158868057Y-67545495D01*
X158213040Y-68200512D01*
X158213040Y-68200514D01*
X158245733Y-68225960D01*
X158244789Y-68227172D01*
X158285639Y-68275043D01*
X158295060Y-68344274D01*
X158265556Y-68407609D01*
X158245181Y-68425263D01*
X158245459Y-68425620D01*
X158059694Y-68570206D01*
X158059688Y-68570212D01*
X158041729Y-68589721D01*
X157981841Y-68625711D01*
X157912003Y-68623610D01*
X157854387Y-68584085D01*
X157827287Y-68519685D01*
X157826500Y-68505737D01*
X157826500Y-67931307D01*
X157846185Y-67864268D01*
X157862819Y-67843626D01*
X158514504Y-67191940D01*
X158530619Y-67252081D01*
G37*
%TD.AperFunction*%
%TA.AperFunction,Conductor*%
G36*
X158031703Y-65512549D02*
G01*
X158041729Y-65522279D01*
X158059692Y-65541792D01*
X158059695Y-65541794D01*
X158059698Y-65541797D01*
X158245458Y-65686380D01*
X158244569Y-65687521D01*
X158285632Y-65735624D01*
X158295063Y-65804855D01*
X158265568Y-65868194D01*
X158245429Y-65885651D01*
X158245733Y-65886041D01*
X158213040Y-65911485D01*
X158213040Y-65911487D01*
X158868058Y-66566504D01*
X158807919Y-66582619D01*
X158692080Y-66649498D01*
X158597498Y-66744080D01*
X158530619Y-66859919D01*
X158514504Y-66920057D01*
X157862819Y-66268372D01*
X157829334Y-66207049D01*
X157826500Y-66180691D01*
X157826500Y-65606262D01*
X157846185Y-65539223D01*
X157898989Y-65493468D01*
X157968147Y-65483524D01*
X158031703Y-65512549D01*
G37*
%TD.AperFunction*%
%TA.AperFunction,Conductor*%
G36*
X208230539Y-50812185D02*
G01*
X208276294Y-50864989D01*
X208287500Y-50916500D01*
X208287500Y-97550338D01*
X208267815Y-97617377D01*
X208215011Y-97663132D01*
X208145853Y-97673076D01*
X208082297Y-97644051D01*
X208058803Y-97616780D01*
X207925890Y-97407342D01*
X207870113Y-97339919D01*
X207732950Y-97174117D01*
X207512304Y-96966917D01*
X207512301Y-96966915D01*
X207512295Y-96966910D01*
X207267440Y-96789012D01*
X207267433Y-96789007D01*
X207267429Y-96789005D01*
X207002186Y-96643186D01*
X207002183Y-96643184D01*
X207002178Y-96643182D01*
X207002177Y-96643181D01*
X206720762Y-96531761D01*
X206720759Y-96531760D01*
X206427589Y-96456487D01*
X206427576Y-96456485D01*
X206127301Y-96418551D01*
X206127290Y-96418551D01*
X205824608Y-96418551D01*
X205824596Y-96418551D01*
X205524321Y-96456485D01*
X205524308Y-96456487D01*
X205231138Y-96531760D01*
X205231135Y-96531761D01*
X204949720Y-96643181D01*
X204949719Y-96643182D01*
X204684469Y-96789005D01*
X204684457Y-96789012D01*
X204439602Y-96966910D01*
X204439592Y-96966918D01*
X204218950Y-97174115D01*
X204026007Y-97407342D01*
X203863827Y-97662898D01*
X203863823Y-97662904D01*
X203796972Y-97804971D01*
X203750617Y-97857249D01*
X203683357Y-97876166D01*
X203616547Y-97855717D01*
X203571398Y-97802393D01*
X203561198Y-97741934D01*
X203578262Y-97536005D01*
X203578262Y-97535994D01*
X203559246Y-97306515D01*
X203559246Y-97306512D01*
X203502717Y-97083284D01*
X203410217Y-96872405D01*
X203380123Y-96826342D01*
X203284271Y-96679629D01*
X203250718Y-96643181D01*
X203128308Y-96510208D01*
X202975775Y-96391487D01*
X202946591Y-96368772D01*
X202744069Y-96259172D01*
X202744061Y-96259169D01*
X202526274Y-96184402D01*
X202355920Y-96155975D01*
X202299137Y-96146500D01*
X202068863Y-96146500D01*
X202023436Y-96154080D01*
X201841725Y-96184402D01*
X201623938Y-96259169D01*
X201623930Y-96259172D01*
X201421408Y-96368772D01*
X201239694Y-96510206D01*
X201239689Y-96510211D01*
X201083727Y-96679630D01*
X201017808Y-96780528D01*
X200964662Y-96825884D01*
X200895431Y-96835308D01*
X200832095Y-96805806D01*
X200810192Y-96780528D01*
X200744272Y-96679630D01*
X200707104Y-96639256D01*
X200588308Y-96510208D01*
X200435775Y-96391487D01*
X200406591Y-96368772D01*
X200204069Y-96259172D01*
X200204061Y-96259169D01*
X199986274Y-96184402D01*
X199815920Y-96155975D01*
X199759137Y-96146500D01*
X199528863Y-96146500D01*
X199483436Y-96154080D01*
X199301725Y-96184402D01*
X199083938Y-96259169D01*
X199083930Y-96259172D01*
X198881408Y-96368772D01*
X198699694Y-96510206D01*
X198699689Y-96510211D01*
X198543727Y-96679630D01*
X198477808Y-96780528D01*
X198424662Y-96825884D01*
X198355431Y-96835308D01*
X198292095Y-96805806D01*
X198270192Y-96780528D01*
X198204272Y-96679630D01*
X198167104Y-96639256D01*
X198048308Y-96510208D01*
X197895775Y-96391487D01*
X197866591Y-96368772D01*
X197664069Y-96259172D01*
X197664061Y-96259169D01*
X197446274Y-96184402D01*
X197275920Y-96155975D01*
X197219137Y-96146500D01*
X196988863Y-96146500D01*
X196943436Y-96154080D01*
X196761725Y-96184402D01*
X196543938Y-96259169D01*
X196543930Y-96259172D01*
X196341408Y-96368772D01*
X196159694Y-96510206D01*
X196159689Y-96510211D01*
X196003727Y-96679631D01*
X195937508Y-96780987D01*
X195884362Y-96826343D01*
X195815131Y-96835767D01*
X195751795Y-96806265D01*
X195729892Y-96780987D01*
X195707238Y-96746313D01*
X195053494Y-97400057D01*
X195037381Y-97339919D01*
X194970502Y-97224080D01*
X194875920Y-97129498D01*
X194760081Y-97062619D01*
X194699941Y-97046504D01*
X195354958Y-96391486D01*
X195354958Y-96391484D01*
X195326322Y-96369196D01*
X195326316Y-96369192D01*
X195123868Y-96259632D01*
X195123859Y-96259629D01*
X194906150Y-96184889D01*
X194679095Y-96147000D01*
X194448905Y-96147000D01*
X194221849Y-96184889D01*
X194004140Y-96259629D01*
X194004132Y-96259632D01*
X193801681Y-96369194D01*
X193773040Y-96391485D01*
X193773040Y-96391487D01*
X194428058Y-97046504D01*
X194367919Y-97062619D01*
X194252080Y-97129498D01*
X194157498Y-97224080D01*
X194090619Y-97339919D01*
X194074504Y-97400058D01*
X193420760Y-96746314D01*
X193398108Y-96780986D01*
X193344961Y-96826342D01*
X193275730Y-96835766D01*
X193212394Y-96806264D01*
X193190490Y-96780986D01*
X193190191Y-96780528D01*
X193124269Y-96679627D01*
X192968308Y-96510208D01*
X192815775Y-96391487D01*
X192786591Y-96368772D01*
X192584069Y-96259172D01*
X192584061Y-96259169D01*
X192366274Y-96184402D01*
X192195920Y-96155975D01*
X192139137Y-96146500D01*
X191908863Y-96146500D01*
X191863436Y-96154080D01*
X191681725Y-96184402D01*
X191463938Y-96259169D01*
X191463930Y-96259172D01*
X191261408Y-96368772D01*
X191079694Y-96510206D01*
X191079689Y-96510211D01*
X190923727Y-96679630D01*
X190857808Y-96780528D01*
X190804662Y-96825884D01*
X190735431Y-96835308D01*
X190672095Y-96805806D01*
X190650192Y-96780528D01*
X190584272Y-96679630D01*
X190547104Y-96639256D01*
X190428308Y-96510208D01*
X190275775Y-96391487D01*
X190246591Y-96368772D01*
X190044069Y-96259172D01*
X190044061Y-96259169D01*
X189826274Y-96184402D01*
X189655920Y-96155975D01*
X189599137Y-96146500D01*
X189368863Y-96146500D01*
X189323436Y-96154080D01*
X189141725Y-96184402D01*
X188923938Y-96259169D01*
X188923930Y-96259172D01*
X188721408Y-96368772D01*
X188539694Y-96510206D01*
X188539689Y-96510211D01*
X188383727Y-96679630D01*
X188317808Y-96780528D01*
X188264662Y-96825884D01*
X188195431Y-96835308D01*
X188132095Y-96805806D01*
X188110192Y-96780528D01*
X188044272Y-96679630D01*
X188007104Y-96639256D01*
X187888308Y-96510208D01*
X187735775Y-96391487D01*
X187706591Y-96368772D01*
X187504069Y-96259172D01*
X187504061Y-96259169D01*
X187286274Y-96184402D01*
X187115920Y-96155975D01*
X187059137Y-96146500D01*
X186828863Y-96146500D01*
X186783436Y-96154080D01*
X186601725Y-96184402D01*
X186383938Y-96259169D01*
X186383930Y-96259172D01*
X186181408Y-96368772D01*
X185999694Y-96510206D01*
X185999689Y-96510211D01*
X185843727Y-96679630D01*
X185777808Y-96780528D01*
X185724662Y-96825884D01*
X185655431Y-96835308D01*
X185592095Y-96805806D01*
X185570192Y-96780528D01*
X185504272Y-96679630D01*
X185467104Y-96639256D01*
X185348308Y-96510208D01*
X185195775Y-96391487D01*
X185166591Y-96368772D01*
X184964069Y-96259172D01*
X184964061Y-96259169D01*
X184746274Y-96184402D01*
X184575920Y-96155975D01*
X184519137Y-96146500D01*
X184288863Y-96146500D01*
X184243436Y-96154080D01*
X184061725Y-96184402D01*
X183843938Y-96259169D01*
X183843930Y-96259172D01*
X183641408Y-96368772D01*
X183459694Y-96510206D01*
X183459689Y-96510211D01*
X183303727Y-96679630D01*
X183237808Y-96780528D01*
X183184662Y-96825884D01*
X183115431Y-96835308D01*
X183052095Y-96805806D01*
X183030192Y-96780528D01*
X182964272Y-96679630D01*
X182927104Y-96639256D01*
X182808308Y-96510208D01*
X182655775Y-96391487D01*
X182626591Y-96368772D01*
X182424069Y-96259172D01*
X182424061Y-96259169D01*
X182206274Y-96184402D01*
X182035920Y-96155975D01*
X181979137Y-96146500D01*
X181748863Y-96146500D01*
X181703436Y-96154080D01*
X181521725Y-96184402D01*
X181303938Y-96259169D01*
X181303930Y-96259172D01*
X181101408Y-96368772D01*
X180919694Y-96510206D01*
X180919689Y-96510211D01*
X180763727Y-96679630D01*
X180697808Y-96780528D01*
X180644662Y-96825884D01*
X180575431Y-96835308D01*
X180512095Y-96805806D01*
X180490192Y-96780528D01*
X180424272Y-96679630D01*
X180387104Y-96639256D01*
X180268308Y-96510208D01*
X180115775Y-96391487D01*
X180086591Y-96368772D01*
X179884069Y-96259172D01*
X179884061Y-96259169D01*
X179666274Y-96184402D01*
X179495920Y-96155975D01*
X179439137Y-96146500D01*
X179208863Y-96146500D01*
X179163436Y-96154080D01*
X178981725Y-96184402D01*
X178763938Y-96259169D01*
X178763930Y-96259172D01*
X178561408Y-96368772D01*
X178379694Y-96510206D01*
X178379689Y-96510211D01*
X178223727Y-96679630D01*
X178157808Y-96780528D01*
X178104662Y-96825884D01*
X178035431Y-96835308D01*
X177972095Y-96805806D01*
X177950192Y-96780528D01*
X177884272Y-96679630D01*
X177847104Y-96639256D01*
X177728308Y-96510208D01*
X177575775Y-96391487D01*
X177546591Y-96368772D01*
X177344069Y-96259172D01*
X177344061Y-96259169D01*
X177126274Y-96184402D01*
X176955920Y-96155975D01*
X176899137Y-96146500D01*
X176668863Y-96146500D01*
X176623436Y-96154080D01*
X176441725Y-96184402D01*
X176223938Y-96259169D01*
X176223930Y-96259172D01*
X176021408Y-96368772D01*
X175839694Y-96510206D01*
X175839689Y-96510211D01*
X175683727Y-96679630D01*
X175617808Y-96780528D01*
X175564662Y-96825884D01*
X175495431Y-96835308D01*
X175432095Y-96805806D01*
X175410192Y-96780528D01*
X175344272Y-96679630D01*
X175307104Y-96639256D01*
X175188308Y-96510208D01*
X175035775Y-96391487D01*
X175006591Y-96368772D01*
X174804069Y-96259172D01*
X174804061Y-96259169D01*
X174586274Y-96184402D01*
X174415920Y-96155975D01*
X174359137Y-96146500D01*
X174128863Y-96146500D01*
X174083436Y-96154080D01*
X173901725Y-96184402D01*
X173683938Y-96259169D01*
X173683930Y-96259172D01*
X173481408Y-96368772D01*
X173299694Y-96510206D01*
X173299689Y-96510211D01*
X173143727Y-96679630D01*
X173077808Y-96780528D01*
X173024662Y-96825884D01*
X172955431Y-96835308D01*
X172892095Y-96805806D01*
X172870192Y-96780528D01*
X172804272Y-96679630D01*
X172767104Y-96639256D01*
X172648308Y-96510208D01*
X172495775Y-96391487D01*
X172466591Y-96368772D01*
X172264069Y-96259172D01*
X172264061Y-96259169D01*
X172046274Y-96184402D01*
X171875920Y-96155975D01*
X171819137Y-96146500D01*
X171588863Y-96146500D01*
X171543436Y-96154080D01*
X171361725Y-96184402D01*
X171143938Y-96259169D01*
X171143930Y-96259172D01*
X170941408Y-96368772D01*
X170759694Y-96510206D01*
X170759689Y-96510211D01*
X170603727Y-96679630D01*
X170537808Y-96780528D01*
X170484662Y-96825884D01*
X170415431Y-96835308D01*
X170352095Y-96805806D01*
X170330192Y-96780528D01*
X170264272Y-96679630D01*
X170227104Y-96639256D01*
X170108308Y-96510208D01*
X169955775Y-96391487D01*
X169926591Y-96368772D01*
X169724069Y-96259172D01*
X169724061Y-96259169D01*
X169506274Y-96184402D01*
X169335920Y-96155975D01*
X169279137Y-96146500D01*
X169048863Y-96146500D01*
X169003436Y-96154080D01*
X168821725Y-96184402D01*
X168603938Y-96259169D01*
X168603930Y-96259172D01*
X168401408Y-96368772D01*
X168219694Y-96510206D01*
X168219689Y-96510211D01*
X168063727Y-96679630D01*
X167997808Y-96780528D01*
X167944662Y-96825884D01*
X167875431Y-96835308D01*
X167812095Y-96805806D01*
X167790192Y-96780528D01*
X167724272Y-96679630D01*
X167687104Y-96639256D01*
X167568308Y-96510208D01*
X167415775Y-96391487D01*
X167386591Y-96368772D01*
X167184069Y-96259172D01*
X167184061Y-96259169D01*
X166966274Y-96184402D01*
X166795920Y-96155975D01*
X166739137Y-96146500D01*
X166508863Y-96146500D01*
X166463436Y-96154080D01*
X166281725Y-96184402D01*
X166063938Y-96259169D01*
X166063930Y-96259172D01*
X165861408Y-96368772D01*
X165679694Y-96510206D01*
X165679689Y-96510211D01*
X165523727Y-96679630D01*
X165457808Y-96780528D01*
X165404662Y-96825884D01*
X165335431Y-96835308D01*
X165272095Y-96805806D01*
X165250192Y-96780528D01*
X165184272Y-96679630D01*
X165147104Y-96639256D01*
X165028308Y-96510208D01*
X164875775Y-96391487D01*
X164846591Y-96368772D01*
X164644069Y-96259172D01*
X164644061Y-96259169D01*
X164426274Y-96184402D01*
X164255920Y-96155975D01*
X164199137Y-96146500D01*
X163968863Y-96146500D01*
X163923436Y-96154080D01*
X163741725Y-96184402D01*
X163523938Y-96259169D01*
X163523930Y-96259172D01*
X163321408Y-96368772D01*
X163139694Y-96510206D01*
X163139689Y-96510211D01*
X162983728Y-96679629D01*
X162857782Y-96872405D01*
X162765282Y-97083285D01*
X162708753Y-97306515D01*
X162689738Y-97535994D01*
X162689738Y-97536005D01*
X162708753Y-97765484D01*
X162765282Y-97988714D01*
X162857782Y-98199594D01*
X162983728Y-98392370D01*
X162983731Y-98392373D01*
X163139692Y-98561792D01*
X163253139Y-98650091D01*
X163320868Y-98702807D01*
X163321411Y-98703229D01*
X163523931Y-98812828D01*
X163637025Y-98851653D01*
X163741725Y-98887597D01*
X163741727Y-98887597D01*
X163741729Y-98887598D01*
X163968863Y-98925500D01*
X163968864Y-98925500D01*
X164199136Y-98925500D01*
X164199137Y-98925500D01*
X164426271Y-98887598D01*
X164427693Y-98887110D01*
X164434662Y-98884717D01*
X164644069Y-98812828D01*
X164846589Y-98703229D01*
X165028308Y-98561792D01*
X165184269Y-98392373D01*
X165184271Y-98392370D01*
X165250191Y-98291472D01*
X165303337Y-98246115D01*
X165372569Y-98236691D01*
X165435905Y-98266193D01*
X165457809Y-98291472D01*
X165523728Y-98392370D01*
X165523731Y-98392373D01*
X165679692Y-98561792D01*
X165793139Y-98650091D01*
X165860868Y-98702807D01*
X165861411Y-98703229D01*
X166063931Y-98812828D01*
X166177025Y-98851653D01*
X166281725Y-98887597D01*
X166281727Y-98887597D01*
X166281729Y-98887598D01*
X166508863Y-98925500D01*
X166508864Y-98925500D01*
X166739136Y-98925500D01*
X166739137Y-98925500D01*
X166966271Y-98887598D01*
X166967693Y-98887110D01*
X166974662Y-98884717D01*
X167184069Y-98812828D01*
X167386589Y-98703229D01*
X167568308Y-98561792D01*
X167724269Y-98392373D01*
X167724271Y-98392370D01*
X167790191Y-98291472D01*
X167843337Y-98246115D01*
X167912569Y-98236691D01*
X167975905Y-98266193D01*
X167997809Y-98291472D01*
X168063728Y-98392370D01*
X168063731Y-98392373D01*
X168219692Y-98561792D01*
X168333139Y-98650091D01*
X168400868Y-98702807D01*
X168401411Y-98703229D01*
X168603931Y-98812828D01*
X168717025Y-98851653D01*
X168821725Y-98887597D01*
X168821727Y-98887597D01*
X168821729Y-98887598D01*
X169048863Y-98925500D01*
X169048864Y-98925500D01*
X169279136Y-98925500D01*
X169279137Y-98925500D01*
X169506271Y-98887598D01*
X169507693Y-98887110D01*
X169514662Y-98884717D01*
X169724069Y-98812828D01*
X169926589Y-98703229D01*
X170108308Y-98561792D01*
X170264269Y-98392373D01*
X170264271Y-98392370D01*
X170330191Y-98291472D01*
X170383337Y-98246115D01*
X170452569Y-98236691D01*
X170515905Y-98266193D01*
X170537809Y-98291472D01*
X170603728Y-98392370D01*
X170603731Y-98392373D01*
X170759692Y-98561792D01*
X170873139Y-98650091D01*
X170940868Y-98702807D01*
X170941411Y-98703229D01*
X171143931Y-98812828D01*
X171257025Y-98851653D01*
X171361725Y-98887597D01*
X171361727Y-98887597D01*
X171361729Y-98887598D01*
X171588863Y-98925500D01*
X171588864Y-98925500D01*
X171819136Y-98925500D01*
X171819137Y-98925500D01*
X172046271Y-98887598D01*
X172047693Y-98887110D01*
X172054662Y-98884717D01*
X172264069Y-98812828D01*
X172466589Y-98703229D01*
X172648308Y-98561792D01*
X172804269Y-98392373D01*
X172804271Y-98392370D01*
X172870191Y-98291472D01*
X172923337Y-98246115D01*
X172992569Y-98236691D01*
X173055905Y-98266193D01*
X173077809Y-98291472D01*
X173143728Y-98392370D01*
X173143731Y-98392373D01*
X173299692Y-98561792D01*
X173413139Y-98650091D01*
X173480868Y-98702807D01*
X173481411Y-98703229D01*
X173683931Y-98812828D01*
X173797025Y-98851653D01*
X173901725Y-98887597D01*
X173901727Y-98887597D01*
X173901729Y-98887598D01*
X174128863Y-98925500D01*
X174128864Y-98925500D01*
X174359136Y-98925500D01*
X174359137Y-98925500D01*
X174586271Y-98887598D01*
X174587693Y-98887110D01*
X174594662Y-98884717D01*
X174804069Y-98812828D01*
X175006589Y-98703229D01*
X175188308Y-98561792D01*
X175344269Y-98392373D01*
X175344271Y-98392370D01*
X175410191Y-98291472D01*
X175463337Y-98246115D01*
X175532569Y-98236691D01*
X175595905Y-98266193D01*
X175617809Y-98291472D01*
X175683728Y-98392370D01*
X175683731Y-98392373D01*
X175839692Y-98561792D01*
X175953139Y-98650091D01*
X176020868Y-98702807D01*
X176021411Y-98703229D01*
X176223931Y-98812828D01*
X176337025Y-98851653D01*
X176441725Y-98887597D01*
X176441727Y-98887597D01*
X176441729Y-98887598D01*
X176668863Y-98925500D01*
X176668864Y-98925500D01*
X176899136Y-98925500D01*
X176899137Y-98925500D01*
X177126271Y-98887598D01*
X177127693Y-98887110D01*
X177134662Y-98884717D01*
X177344069Y-98812828D01*
X177546589Y-98703229D01*
X177728308Y-98561792D01*
X177884269Y-98392373D01*
X177884271Y-98392370D01*
X177950191Y-98291472D01*
X178003337Y-98246115D01*
X178072569Y-98236691D01*
X178135905Y-98266193D01*
X178157809Y-98291472D01*
X178223728Y-98392370D01*
X178223731Y-98392373D01*
X178379692Y-98561792D01*
X178493139Y-98650091D01*
X178560868Y-98702807D01*
X178561411Y-98703229D01*
X178763931Y-98812828D01*
X178877025Y-98851653D01*
X178981725Y-98887597D01*
X178981727Y-98887597D01*
X178981729Y-98887598D01*
X179208863Y-98925500D01*
X179208864Y-98925500D01*
X179439136Y-98925500D01*
X179439137Y-98925500D01*
X179666271Y-98887598D01*
X179667693Y-98887110D01*
X179674662Y-98884717D01*
X179884069Y-98812828D01*
X180086589Y-98703229D01*
X180268308Y-98561792D01*
X180424269Y-98392373D01*
X180424271Y-98392370D01*
X180490191Y-98291472D01*
X180543337Y-98246115D01*
X180612569Y-98236691D01*
X180675905Y-98266193D01*
X180697809Y-98291472D01*
X180763728Y-98392370D01*
X180763731Y-98392373D01*
X180919692Y-98561792D01*
X181033139Y-98650091D01*
X181100868Y-98702807D01*
X181101411Y-98703229D01*
X181303931Y-98812828D01*
X181417025Y-98851653D01*
X181521725Y-98887597D01*
X181521727Y-98887597D01*
X181521729Y-98887598D01*
X181748863Y-98925500D01*
X181748864Y-98925500D01*
X181979136Y-98925500D01*
X181979137Y-98925500D01*
X182206271Y-98887598D01*
X182207693Y-98887110D01*
X182214662Y-98884717D01*
X182424069Y-98812828D01*
X182626589Y-98703229D01*
X182808308Y-98561792D01*
X182964269Y-98392373D01*
X182964271Y-98392370D01*
X183030191Y-98291472D01*
X183083337Y-98246115D01*
X183152569Y-98236691D01*
X183215905Y-98266193D01*
X183237809Y-98291472D01*
X183303728Y-98392370D01*
X183303731Y-98392373D01*
X183459692Y-98561792D01*
X183573139Y-98650091D01*
X183640868Y-98702807D01*
X183641411Y-98703229D01*
X183843931Y-98812828D01*
X183957025Y-98851653D01*
X184061725Y-98887597D01*
X184061727Y-98887597D01*
X184061729Y-98887598D01*
X184288863Y-98925500D01*
X184288864Y-98925500D01*
X184519136Y-98925500D01*
X184519137Y-98925500D01*
X184746271Y-98887598D01*
X184747693Y-98887110D01*
X184754662Y-98884717D01*
X184964069Y-98812828D01*
X185166589Y-98703229D01*
X185348308Y-98561792D01*
X185504269Y-98392373D01*
X185504271Y-98392370D01*
X185570191Y-98291472D01*
X185623337Y-98246115D01*
X185692569Y-98236691D01*
X185755905Y-98266193D01*
X185777809Y-98291472D01*
X185843728Y-98392370D01*
X185843731Y-98392373D01*
X185999692Y-98561792D01*
X186113139Y-98650091D01*
X186180868Y-98702807D01*
X186181411Y-98703229D01*
X186383931Y-98812828D01*
X186497025Y-98851653D01*
X186601725Y-98887597D01*
X186601727Y-98887597D01*
X186601729Y-98887598D01*
X186828863Y-98925500D01*
X186828864Y-98925500D01*
X187059136Y-98925500D01*
X187059137Y-98925500D01*
X187286271Y-98887598D01*
X187287693Y-98887110D01*
X187294662Y-98884717D01*
X187504069Y-98812828D01*
X187706589Y-98703229D01*
X187888308Y-98561792D01*
X188044269Y-98392373D01*
X188044271Y-98392370D01*
X188110191Y-98291472D01*
X188163337Y-98246115D01*
X188232569Y-98236691D01*
X188295905Y-98266193D01*
X188317809Y-98291472D01*
X188383728Y-98392370D01*
X188383731Y-98392373D01*
X188539692Y-98561792D01*
X188653139Y-98650091D01*
X188720868Y-98702807D01*
X188721411Y-98703229D01*
X188923931Y-98812828D01*
X189037025Y-98851653D01*
X189141725Y-98887597D01*
X189141727Y-98887597D01*
X189141729Y-98887598D01*
X189368863Y-98925500D01*
X189368864Y-98925500D01*
X189599136Y-98925500D01*
X189599137Y-98925500D01*
X189826271Y-98887598D01*
X189827693Y-98887110D01*
X189834662Y-98884717D01*
X190044069Y-98812828D01*
X190246589Y-98703229D01*
X190428308Y-98561792D01*
X190584269Y-98392373D01*
X190584271Y-98392370D01*
X190650191Y-98291472D01*
X190703337Y-98246115D01*
X190772569Y-98236691D01*
X190835905Y-98266193D01*
X190857809Y-98291472D01*
X190923728Y-98392370D01*
X190923731Y-98392373D01*
X191079692Y-98561792D01*
X191193139Y-98650091D01*
X191260868Y-98702807D01*
X191261411Y-98703229D01*
X191463931Y-98812828D01*
X191577025Y-98851653D01*
X191681725Y-98887597D01*
X191681727Y-98887597D01*
X191681729Y-98887598D01*
X191908863Y-98925500D01*
X191908864Y-98925500D01*
X192139136Y-98925500D01*
X192139137Y-98925500D01*
X192366271Y-98887598D01*
X192367693Y-98887110D01*
X192374662Y-98884717D01*
X192584069Y-98812828D01*
X192786589Y-98703229D01*
X192968308Y-98561792D01*
X193124269Y-98392373D01*
X193190490Y-98291013D01*
X193243636Y-98245657D01*
X193312868Y-98236233D01*
X193376203Y-98265735D01*
X193398108Y-98291013D01*
X193420760Y-98325685D01*
X194074504Y-97671941D01*
X194090619Y-97732081D01*
X194157498Y-97847920D01*
X194252080Y-97942502D01*
X194367919Y-98009381D01*
X194428057Y-98025495D01*
X193773040Y-98680512D01*
X193773040Y-98680514D01*
X193801677Y-98702803D01*
X193801683Y-98702807D01*
X194004131Y-98812367D01*
X194004140Y-98812370D01*
X194221849Y-98887110D01*
X194448905Y-98925000D01*
X194679095Y-98925000D01*
X194906150Y-98887110D01*
X195123859Y-98812370D01*
X195123868Y-98812367D01*
X195326315Y-98702807D01*
X195326316Y-98702806D01*
X195354958Y-98680513D01*
X195354959Y-98680511D01*
X194699942Y-98025494D01*
X194760081Y-98009381D01*
X194875920Y-97942502D01*
X194970502Y-97847920D01*
X195037381Y-97732081D01*
X195053495Y-97671942D01*
X195707238Y-98325685D01*
X195729892Y-98291012D01*
X195783038Y-98245656D01*
X195852269Y-98236232D01*
X195915605Y-98265734D01*
X195937509Y-98291013D01*
X196003728Y-98392370D01*
X196003731Y-98392373D01*
X196159692Y-98561792D01*
X196273139Y-98650091D01*
X196340868Y-98702807D01*
X196341411Y-98703229D01*
X196543931Y-98812828D01*
X196657025Y-98851653D01*
X196761725Y-98887597D01*
X196761727Y-98887597D01*
X196761729Y-98887598D01*
X196988863Y-98925500D01*
X196988864Y-98925500D01*
X197219136Y-98925500D01*
X197219137Y-98925500D01*
X197446271Y-98887598D01*
X197447693Y-98887110D01*
X197454662Y-98884717D01*
X197664069Y-98812828D01*
X197866589Y-98703229D01*
X198048308Y-98561792D01*
X198204269Y-98392373D01*
X198204271Y-98392370D01*
X198270191Y-98291472D01*
X198323337Y-98246115D01*
X198392569Y-98236691D01*
X198455905Y-98266193D01*
X198477809Y-98291472D01*
X198543728Y-98392370D01*
X198543731Y-98392373D01*
X198699692Y-98561792D01*
X198813139Y-98650091D01*
X198880868Y-98702807D01*
X198881411Y-98703229D01*
X199083931Y-98812828D01*
X199197025Y-98851653D01*
X199301725Y-98887597D01*
X199301727Y-98887597D01*
X199301729Y-98887598D01*
X199528863Y-98925500D01*
X199528864Y-98925500D01*
X199759136Y-98925500D01*
X199759137Y-98925500D01*
X199986271Y-98887598D01*
X199987693Y-98887110D01*
X199994662Y-98884717D01*
X200204069Y-98812828D01*
X200406589Y-98703229D01*
X200588308Y-98561792D01*
X200744269Y-98392373D01*
X200744271Y-98392370D01*
X200810191Y-98291472D01*
X200863337Y-98246115D01*
X200932569Y-98236691D01*
X200995905Y-98266193D01*
X201017809Y-98291472D01*
X201083728Y-98392370D01*
X201083731Y-98392373D01*
X201239692Y-98561792D01*
X201353139Y-98650091D01*
X201420868Y-98702807D01*
X201421411Y-98703229D01*
X201623931Y-98812828D01*
X201737025Y-98851653D01*
X201841725Y-98887597D01*
X201841727Y-98887597D01*
X201841729Y-98887598D01*
X202068863Y-98925500D01*
X202068864Y-98925500D01*
X202299136Y-98925500D01*
X202299137Y-98925500D01*
X202526271Y-98887598D01*
X202527693Y-98887110D01*
X202534662Y-98884717D01*
X202744069Y-98812828D01*
X202946589Y-98703229D01*
X203128308Y-98561792D01*
X203284269Y-98392373D01*
X203400324Y-98214736D01*
X203453469Y-98169381D01*
X203522700Y-98159957D01*
X203586036Y-98189459D01*
X203623368Y-98248519D01*
X203625936Y-98305794D01*
X203584698Y-98521969D01*
X203584697Y-98521976D01*
X203565693Y-98824045D01*
X203565693Y-98824056D01*
X203584697Y-99126125D01*
X203584698Y-99126132D01*
X203584699Y-99126136D01*
X203641416Y-99423457D01*
X203734950Y-99711325D01*
X203863826Y-99985201D01*
X203863828Y-99985204D01*
X203863829Y-99985206D01*
X204026007Y-100240759D01*
X204026010Y-100240763D01*
X204026011Y-100240764D01*
X204218948Y-100473985D01*
X204439592Y-100681183D01*
X204439602Y-100681191D01*
X204684457Y-100859089D01*
X204684462Y-100859091D01*
X204684469Y-100859097D01*
X204949712Y-101004916D01*
X204949717Y-101004918D01*
X204949719Y-101004919D01*
X204949720Y-101004920D01*
X205231135Y-101116340D01*
X205231138Y-101116341D01*
X205524308Y-101191614D01*
X205524312Y-101191615D01*
X205587309Y-101199573D01*
X205824596Y-101229550D01*
X205824605Y-101229550D01*
X205824608Y-101229551D01*
X205824610Y-101229551D01*
X206127288Y-101229551D01*
X206127290Y-101229551D01*
X206127293Y-101229550D01*
X206127301Y-101229550D01*
X206306488Y-101206913D01*
X206427586Y-101191615D01*
X206720759Y-101116341D01*
X206720762Y-101116340D01*
X207002177Y-101004920D01*
X207002178Y-101004919D01*
X207002176Y-101004919D01*
X207002186Y-101004916D01*
X207267429Y-100859097D01*
X207512304Y-100681185D01*
X207732950Y-100473985D01*
X207925887Y-100240764D01*
X208058803Y-100031320D01*
X208111345Y-99985265D01*
X208180445Y-99974926D01*
X208244166Y-100003587D01*
X208282276Y-100062149D01*
X208287500Y-100097763D01*
X208287500Y-115283843D01*
X208267815Y-115350882D01*
X208215011Y-115396637D01*
X208145853Y-115406581D01*
X208082297Y-115377556D01*
X208058803Y-115350285D01*
X207943941Y-115169291D01*
X207943938Y-115169287D01*
X207751001Y-114936066D01*
X207530355Y-114728866D01*
X207530352Y-114728864D01*
X207530346Y-114728859D01*
X207285491Y-114550961D01*
X207285484Y-114550956D01*
X207285480Y-114550954D01*
X207020237Y-114405135D01*
X207020234Y-114405133D01*
X207020229Y-114405131D01*
X207020228Y-114405130D01*
X206738813Y-114293710D01*
X206738810Y-114293709D01*
X206445640Y-114218436D01*
X206445627Y-114218434D01*
X206145352Y-114180500D01*
X206145341Y-114180500D01*
X205842659Y-114180500D01*
X205842647Y-114180500D01*
X205542372Y-114218434D01*
X205542359Y-114218436D01*
X205249189Y-114293709D01*
X205249186Y-114293710D01*
X204967771Y-114405130D01*
X204967770Y-114405131D01*
X204702520Y-114550954D01*
X204702508Y-114550961D01*
X204457653Y-114728859D01*
X204457643Y-114728867D01*
X204237001Y-114936064D01*
X204044058Y-115169291D01*
X203881880Y-115424844D01*
X203753000Y-115698728D01*
X203659468Y-115986589D01*
X203602749Y-116283918D01*
X203602748Y-116283925D01*
X203583744Y-116585994D01*
X203583744Y-116586005D01*
X203602748Y-116888074D01*
X203602749Y-116888081D01*
X203602750Y-116888085D01*
X203659467Y-117185406D01*
X203753001Y-117473274D01*
X203881877Y-117747150D01*
X203881879Y-117747153D01*
X203881880Y-117747155D01*
X204044058Y-118002708D01*
X204044061Y-118002712D01*
X204044062Y-118002713D01*
X204236999Y-118235934D01*
X204457643Y-118443132D01*
X204457653Y-118443140D01*
X204702508Y-118621038D01*
X204702513Y-118621040D01*
X204702520Y-118621046D01*
X204967763Y-118766865D01*
X204967768Y-118766867D01*
X204967770Y-118766868D01*
X204967771Y-118766869D01*
X205249186Y-118878289D01*
X205249189Y-118878290D01*
X205542359Y-118953563D01*
X205542363Y-118953564D01*
X205605360Y-118961522D01*
X205842647Y-118991499D01*
X205842656Y-118991499D01*
X205842659Y-118991500D01*
X205842661Y-118991500D01*
X206145339Y-118991500D01*
X206145341Y-118991500D01*
X206145344Y-118991499D01*
X206145352Y-118991499D01*
X206324539Y-118968862D01*
X206445637Y-118953564D01*
X206738810Y-118878290D01*
X206738813Y-118878289D01*
X207020228Y-118766869D01*
X207020229Y-118766868D01*
X207020227Y-118766868D01*
X207020237Y-118766865D01*
X207285480Y-118621046D01*
X207530355Y-118443134D01*
X207751001Y-118235934D01*
X207943938Y-118002713D01*
X208058803Y-117821713D01*
X208111345Y-117775658D01*
X208180445Y-117765319D01*
X208244166Y-117793980D01*
X208282276Y-117852542D01*
X208287500Y-117888156D01*
X208287500Y-126375500D01*
X208267815Y-126442539D01*
X208215011Y-126488294D01*
X208163500Y-126499500D01*
X153024500Y-126499500D01*
X152957461Y-126479815D01*
X152911706Y-126427011D01*
X152900500Y-126375500D01*
X152900500Y-122682005D01*
X153926493Y-122682005D01*
X153946500Y-123000023D01*
X153946501Y-123000030D01*
X154006214Y-123313056D01*
X154104686Y-123616120D01*
X154104688Y-123616125D01*
X154240364Y-123904449D01*
X154240367Y-123904455D01*
X154411110Y-124173504D01*
X154411113Y-124173508D01*
X154411114Y-124173509D01*
X154592314Y-124392543D01*
X154614238Y-124419044D01*
X154846530Y-124637181D01*
X154846540Y-124637189D01*
X155104324Y-124824480D01*
X155104342Y-124824492D01*
X155302060Y-124933188D01*
X155383582Y-124978005D01*
X155679867Y-125095313D01*
X155679866Y-125095313D01*
X155936430Y-125161187D01*
X155988519Y-125174561D01*
X156054843Y-125182939D01*
X156304657Y-125214499D01*
X156304666Y-125214499D01*
X156304669Y-125214500D01*
X156304671Y-125214500D01*
X156623329Y-125214500D01*
X156623331Y-125214500D01*
X156623334Y-125214499D01*
X156623342Y-125214499D01*
X156811989Y-125190666D01*
X156939481Y-125174561D01*
X157248133Y-125095313D01*
X157544418Y-124978005D01*
X157823664Y-124824488D01*
X158081468Y-124637183D01*
X158313763Y-124419043D01*
X158516886Y-124173509D01*
X158687634Y-123904453D01*
X158823314Y-123616119D01*
X158921787Y-123313052D01*
X158964491Y-123089188D01*
X174251500Y-123089188D01*
X174288429Y-123393330D01*
X174331248Y-123567052D01*
X174361751Y-123690809D01*
X174416889Y-123836193D01*
X174470392Y-123977270D01*
X174470394Y-123977274D01*
X174470395Y-123977276D01*
X174470395Y-123977277D01*
X174612766Y-124248540D01*
X174612772Y-124248551D01*
X174786811Y-124500692D01*
X174786816Y-124500698D01*
X174989977Y-124730020D01*
X174989979Y-124730022D01*
X175219301Y-124933183D01*
X175219307Y-124933188D01*
X175284238Y-124978006D01*
X175471447Y-125107227D01*
X175634216Y-125192655D01*
X175675837Y-125214500D01*
X175742730Y-125249608D01*
X175965621Y-125334139D01*
X176029190Y-125358248D01*
X176029192Y-125358248D01*
X176029196Y-125358250D01*
X176326670Y-125431571D01*
X176561874Y-125460129D01*
X176630809Y-125468500D01*
X176630812Y-125468500D01*
X178119890Y-125468500D01*
X178119892Y-125468500D01*
X178247186Y-125434392D01*
X178361314Y-125368500D01*
X178454500Y-125275314D01*
X178520392Y-125161186D01*
X178554500Y-125033892D01*
X182633500Y-125033892D01*
X182649958Y-125095313D01*
X182667608Y-125161187D01*
X182698388Y-125214499D01*
X182733500Y-125275314D01*
X182826686Y-125368500D01*
X182940814Y-125434392D01*
X183068108Y-125468500D01*
X183068110Y-125468500D01*
X184557191Y-125468500D01*
X184621283Y-125460717D01*
X184861330Y-125431571D01*
X185158804Y-125358250D01*
X185445270Y-125249608D01*
X185716553Y-125107227D01*
X185968695Y-124933186D01*
X186198021Y-124730021D01*
X186401186Y-124500695D01*
X186575227Y-124248553D01*
X186717608Y-123977270D01*
X186826250Y-123690804D01*
X186899571Y-123393330D01*
X186936500Y-123089188D01*
X186936500Y-122936005D01*
X202186493Y-122936005D01*
X202206500Y-123254023D01*
X202206501Y-123254030D01*
X202266214Y-123567056D01*
X202364686Y-123870120D01*
X202364688Y-123870125D01*
X202500364Y-124158449D01*
X202500367Y-124158455D01*
X202671110Y-124427504D01*
X202671113Y-124427508D01*
X202671114Y-124427509D01*
X202874237Y-124673043D01*
X203035513Y-124824492D01*
X203106530Y-124891181D01*
X203106540Y-124891189D01*
X203364324Y-125078480D01*
X203364342Y-125078492D01*
X203643582Y-125232005D01*
X203939867Y-125349313D01*
X203939866Y-125349313D01*
X204248515Y-125428560D01*
X204248519Y-125428561D01*
X204294676Y-125434392D01*
X204564657Y-125468499D01*
X204564666Y-125468499D01*
X204564669Y-125468500D01*
X204564671Y-125468500D01*
X204883329Y-125468500D01*
X204883331Y-125468500D01*
X204883334Y-125468499D01*
X204883342Y-125468499D01*
X205071989Y-125444666D01*
X205199481Y-125428561D01*
X205508133Y-125349313D01*
X205804418Y-125232005D01*
X206031388Y-125107227D01*
X206083657Y-125078492D01*
X206083658Y-125078491D01*
X206083664Y-125078488D01*
X206341468Y-124891183D01*
X206573763Y-124673043D01*
X206776886Y-124427509D01*
X206947634Y-124158453D01*
X207083314Y-123870119D01*
X207181787Y-123567052D01*
X207241498Y-123254034D01*
X207251869Y-123089190D01*
X207261507Y-122936005D01*
X207261507Y-122935994D01*
X207241499Y-122617976D01*
X207241498Y-122617969D01*
X207241498Y-122617966D01*
X207181787Y-122304948D01*
X207083314Y-122001881D01*
X206947634Y-121713547D01*
X206918195Y-121667159D01*
X206776889Y-121444495D01*
X206759401Y-121423355D01*
X206573763Y-121198957D01*
X206341468Y-120980817D01*
X206341465Y-120980815D01*
X206341459Y-120980810D01*
X206083675Y-120793519D01*
X206083657Y-120793507D01*
X205804417Y-120639994D01*
X205804414Y-120639993D01*
X205600236Y-120559153D01*
X205508133Y-120522687D01*
X205508131Y-120522686D01*
X205508133Y-120522686D01*
X205199484Y-120443439D01*
X205199471Y-120443437D01*
X204883342Y-120403500D01*
X204883331Y-120403500D01*
X204564669Y-120403500D01*
X204564657Y-120403500D01*
X204248528Y-120443437D01*
X204248515Y-120443439D01*
X203939867Y-120522686D01*
X203643585Y-120639993D01*
X203643582Y-120639994D01*
X203364342Y-120793507D01*
X203364324Y-120793519D01*
X203106540Y-120980810D01*
X203106530Y-120980818D01*
X202874238Y-121198955D01*
X202671110Y-121444495D01*
X202500367Y-121713544D01*
X202500364Y-121713550D01*
X202364688Y-122001874D01*
X202364686Y-122001879D01*
X202266214Y-122304943D01*
X202206501Y-122617969D01*
X202206500Y-122617976D01*
X202186493Y-122935994D01*
X202186493Y-122936005D01*
X186936500Y-122936005D01*
X186936500Y-122782812D01*
X186899571Y-122478670D01*
X186826250Y-122181196D01*
X186717608Y-121894730D01*
X186575227Y-121623447D01*
X186462093Y-121459544D01*
X186401188Y-121371307D01*
X186401183Y-121371301D01*
X186198022Y-121141979D01*
X186198020Y-121141977D01*
X185968698Y-120938816D01*
X185968692Y-120938811D01*
X185758199Y-120793519D01*
X185716553Y-120764773D01*
X185716540Y-120764766D01*
X185445277Y-120622395D01*
X185445272Y-120622393D01*
X185445270Y-120622392D01*
X185365611Y-120592181D01*
X185158809Y-120513751D01*
X185087672Y-120496217D01*
X184861330Y-120440429D01*
X184709259Y-120421964D01*
X184557191Y-120403500D01*
X184557188Y-120403500D01*
X184469892Y-120403500D01*
X183199892Y-120403500D01*
X183068108Y-120403500D01*
X182940812Y-120437608D01*
X182826686Y-120503500D01*
X182826683Y-120503502D01*
X182733502Y-120596683D01*
X182733500Y-120596686D01*
X182667608Y-120710812D01*
X182653150Y-120764772D01*
X182633500Y-120838108D01*
X182633500Y-124902108D01*
X182633500Y-125033892D01*
X178554500Y-125033892D01*
X178554500Y-120838108D01*
X178520392Y-120710814D01*
X178454500Y-120596686D01*
X178361314Y-120503500D01*
X178257286Y-120443439D01*
X178247187Y-120437608D01*
X178183539Y-120420554D01*
X178119892Y-120403500D01*
X176849892Y-120403500D01*
X176784000Y-120403500D01*
X176630812Y-120403500D01*
X176630809Y-120403500D01*
X176448326Y-120425657D01*
X176326670Y-120440429D01*
X176175775Y-120477621D01*
X176029190Y-120513751D01*
X175810519Y-120596683D01*
X175742730Y-120622392D01*
X175742727Y-120622393D01*
X175742723Y-120622395D01*
X175742722Y-120622395D01*
X175471459Y-120764766D01*
X175471448Y-120764772D01*
X175219307Y-120938811D01*
X175219301Y-120938816D01*
X174989979Y-121141977D01*
X174989977Y-121141979D01*
X174786816Y-121371301D01*
X174786811Y-121371307D01*
X174612772Y-121623448D01*
X174612766Y-121623459D01*
X174470395Y-121894722D01*
X174470395Y-121894723D01*
X174361751Y-122181190D01*
X174361750Y-122181196D01*
X174292356Y-122462740D01*
X174288429Y-122478672D01*
X174261990Y-122696421D01*
X174251500Y-122782812D01*
X174251500Y-123089188D01*
X158964491Y-123089188D01*
X158981498Y-123000034D01*
X158981499Y-123000023D01*
X159001507Y-122682005D01*
X159001507Y-122681994D01*
X158981499Y-122363976D01*
X158981498Y-122363969D01*
X158981498Y-122363966D01*
X158921787Y-122050948D01*
X158823314Y-121747881D01*
X158799366Y-121696990D01*
X158687635Y-121459550D01*
X158687634Y-121459547D01*
X158631634Y-121371305D01*
X158516889Y-121190495D01*
X158476753Y-121141979D01*
X158313763Y-120944957D01*
X158307221Y-120938814D01*
X158081469Y-120726818D01*
X158081459Y-120726810D01*
X157823675Y-120539519D01*
X157823657Y-120539507D01*
X157544417Y-120385994D01*
X157544414Y-120385993D01*
X157248130Y-120268686D01*
X157248133Y-120268686D01*
X156939484Y-120189439D01*
X156939471Y-120189437D01*
X156623342Y-120149500D01*
X156623331Y-120149500D01*
X156304669Y-120149500D01*
X156304657Y-120149500D01*
X155988528Y-120189437D01*
X155988515Y-120189439D01*
X155679867Y-120268686D01*
X155383585Y-120385993D01*
X155383582Y-120385994D01*
X155104342Y-120539507D01*
X155104324Y-120539519D01*
X154846540Y-120726810D01*
X154846530Y-120726818D01*
X154614238Y-120944955D01*
X154411110Y-121190495D01*
X154240367Y-121459544D01*
X154240364Y-121459550D01*
X154104688Y-121747874D01*
X154104686Y-121747879D01*
X154006214Y-122050943D01*
X153946501Y-122363969D01*
X153946500Y-122363976D01*
X153926493Y-122681994D01*
X153926493Y-122682005D01*
X152900500Y-122682005D01*
X152900500Y-117856005D01*
X162689738Y-117856005D01*
X162708753Y-118085484D01*
X162765282Y-118308714D01*
X162857782Y-118519594D01*
X162983728Y-118712370D01*
X162983731Y-118712373D01*
X163139692Y-118881792D01*
X163321411Y-119023229D01*
X163523931Y-119132828D01*
X163637025Y-119171653D01*
X163741725Y-119207597D01*
X163741727Y-119207597D01*
X163741729Y-119207598D01*
X163968863Y-119245500D01*
X163968864Y-119245500D01*
X164199136Y-119245500D01*
X164199137Y-119245500D01*
X164426271Y-119207598D01*
X164644069Y-119132828D01*
X164846589Y-119023229D01*
X165028308Y-118881792D01*
X165184269Y-118712373D01*
X165243936Y-118621046D01*
X165250191Y-118611472D01*
X165303337Y-118566115D01*
X165372569Y-118556691D01*
X165435905Y-118586193D01*
X165457809Y-118611472D01*
X165523728Y-118712370D01*
X165523731Y-118712373D01*
X165679692Y-118881792D01*
X165861411Y-119023229D01*
X166063931Y-119132828D01*
X166177025Y-119171653D01*
X166281725Y-119207597D01*
X166281727Y-119207597D01*
X166281729Y-119207598D01*
X166508863Y-119245500D01*
X166508864Y-119245500D01*
X166739136Y-119245500D01*
X166739137Y-119245500D01*
X166966271Y-119207598D01*
X167184069Y-119132828D01*
X167386589Y-119023229D01*
X167568308Y-118881792D01*
X167724269Y-118712373D01*
X167783936Y-118621046D01*
X167790191Y-118611472D01*
X167843337Y-118566115D01*
X167912569Y-118556691D01*
X167975905Y-118586193D01*
X167997809Y-118611472D01*
X168063728Y-118712370D01*
X168063731Y-118712373D01*
X168219692Y-118881792D01*
X168401411Y-119023229D01*
X168603931Y-119132828D01*
X168717025Y-119171653D01*
X168821725Y-119207597D01*
X168821727Y-119207597D01*
X168821729Y-119207598D01*
X169048863Y-119245500D01*
X169048864Y-119245500D01*
X169279136Y-119245500D01*
X169279137Y-119245500D01*
X169506271Y-119207598D01*
X169724069Y-119132828D01*
X169926589Y-119023229D01*
X170108308Y-118881792D01*
X170264269Y-118712373D01*
X170323936Y-118621046D01*
X170330191Y-118611472D01*
X170383337Y-118566115D01*
X170452569Y-118556691D01*
X170515905Y-118586193D01*
X170537809Y-118611472D01*
X170603728Y-118712370D01*
X170603731Y-118712373D01*
X170759692Y-118881792D01*
X170941411Y-119023229D01*
X171143931Y-119132828D01*
X171257025Y-119171653D01*
X171361725Y-119207597D01*
X171361727Y-119207597D01*
X171361729Y-119207598D01*
X171588863Y-119245500D01*
X171588864Y-119245500D01*
X171819136Y-119245500D01*
X171819137Y-119245500D01*
X172046271Y-119207598D01*
X172264069Y-119132828D01*
X172466589Y-119023229D01*
X172648308Y-118881792D01*
X172804269Y-118712373D01*
X172863936Y-118621046D01*
X172870191Y-118611472D01*
X172923337Y-118566115D01*
X172992569Y-118556691D01*
X173055905Y-118586193D01*
X173077809Y-118611472D01*
X173143728Y-118712370D01*
X173143731Y-118712373D01*
X173299692Y-118881792D01*
X173481411Y-119023229D01*
X173683931Y-119132828D01*
X173797025Y-119171653D01*
X173901725Y-119207597D01*
X173901727Y-119207597D01*
X173901729Y-119207598D01*
X174128863Y-119245500D01*
X174128864Y-119245500D01*
X174359136Y-119245500D01*
X174359137Y-119245500D01*
X174586271Y-119207598D01*
X174804069Y-119132828D01*
X175006589Y-119023229D01*
X175188308Y-118881792D01*
X175344269Y-118712373D01*
X175403936Y-118621046D01*
X175410191Y-118611472D01*
X175463337Y-118566115D01*
X175532569Y-118556691D01*
X175595905Y-118586193D01*
X175617809Y-118611472D01*
X175683728Y-118712370D01*
X175683731Y-118712373D01*
X175839692Y-118881792D01*
X176021411Y-119023229D01*
X176223931Y-119132828D01*
X176337025Y-119171653D01*
X176441725Y-119207597D01*
X176441727Y-119207597D01*
X176441729Y-119207598D01*
X176668863Y-119245500D01*
X176668864Y-119245500D01*
X176899136Y-119245500D01*
X176899137Y-119245500D01*
X177126271Y-119207598D01*
X177344069Y-119132828D01*
X177546589Y-119023229D01*
X177728308Y-118881792D01*
X177884269Y-118712373D01*
X177943936Y-118621046D01*
X177950191Y-118611472D01*
X178003337Y-118566115D01*
X178072569Y-118556691D01*
X178135905Y-118586193D01*
X178157809Y-118611472D01*
X178223728Y-118712370D01*
X178223731Y-118712373D01*
X178379692Y-118881792D01*
X178561411Y-119023229D01*
X178763931Y-119132828D01*
X178877025Y-119171653D01*
X178981725Y-119207597D01*
X178981727Y-119207597D01*
X178981729Y-119207598D01*
X179208863Y-119245500D01*
X179208864Y-119245500D01*
X179439136Y-119245500D01*
X179439137Y-119245500D01*
X179666271Y-119207598D01*
X179884069Y-119132828D01*
X180086589Y-119023229D01*
X180268308Y-118881792D01*
X180424269Y-118712373D01*
X180483936Y-118621046D01*
X180490191Y-118611472D01*
X180543337Y-118566115D01*
X180612569Y-118556691D01*
X180675905Y-118586193D01*
X180697809Y-118611472D01*
X180763728Y-118712370D01*
X180763731Y-118712373D01*
X180919692Y-118881792D01*
X181101411Y-119023229D01*
X181303931Y-119132828D01*
X181417025Y-119171653D01*
X181521725Y-119207597D01*
X181521727Y-119207597D01*
X181521729Y-119207598D01*
X181748863Y-119245500D01*
X181748864Y-119245500D01*
X181979136Y-119245500D01*
X181979137Y-119245500D01*
X182206271Y-119207598D01*
X182424069Y-119132828D01*
X182626589Y-119023229D01*
X182808308Y-118881792D01*
X182964269Y-118712373D01*
X183023936Y-118621046D01*
X183030191Y-118611472D01*
X183083337Y-118566115D01*
X183152569Y-118556691D01*
X183215905Y-118586193D01*
X183237809Y-118611472D01*
X183303728Y-118712370D01*
X183303731Y-118712373D01*
X183459692Y-118881792D01*
X183641411Y-119023229D01*
X183843931Y-119132828D01*
X183957025Y-119171653D01*
X184061725Y-119207597D01*
X184061727Y-119207597D01*
X184061729Y-119207598D01*
X184288863Y-119245500D01*
X184288864Y-119245500D01*
X184519136Y-119245500D01*
X184519137Y-119245500D01*
X184746271Y-119207598D01*
X184964069Y-119132828D01*
X185166589Y-119023229D01*
X185348308Y-118881792D01*
X185504269Y-118712373D01*
X185563936Y-118621046D01*
X185570191Y-118611472D01*
X185623337Y-118566115D01*
X185692569Y-118556691D01*
X185755905Y-118586193D01*
X185777809Y-118611472D01*
X185843728Y-118712370D01*
X185843731Y-118712373D01*
X185999692Y-118881792D01*
X186181411Y-119023229D01*
X186383931Y-119132828D01*
X186497025Y-119171653D01*
X186601725Y-119207597D01*
X186601727Y-119207597D01*
X186601729Y-119207598D01*
X186828863Y-119245500D01*
X186828864Y-119245500D01*
X187059136Y-119245500D01*
X187059137Y-119245500D01*
X187286271Y-119207598D01*
X187504069Y-119132828D01*
X187706589Y-119023229D01*
X187888308Y-118881792D01*
X188044269Y-118712373D01*
X188103936Y-118621046D01*
X188110191Y-118611472D01*
X188163337Y-118566115D01*
X188232569Y-118556691D01*
X188295905Y-118586193D01*
X188317809Y-118611472D01*
X188383728Y-118712370D01*
X188383731Y-118712373D01*
X188539692Y-118881792D01*
X188721411Y-119023229D01*
X188923931Y-119132828D01*
X189037025Y-119171653D01*
X189141725Y-119207597D01*
X189141727Y-119207597D01*
X189141729Y-119207598D01*
X189368863Y-119245500D01*
X189368864Y-119245500D01*
X189599136Y-119245500D01*
X189599137Y-119245500D01*
X189826271Y-119207598D01*
X190044069Y-119132828D01*
X190246589Y-119023229D01*
X190428308Y-118881792D01*
X190584269Y-118712373D01*
X190643936Y-118621046D01*
X190650191Y-118611472D01*
X190703337Y-118566115D01*
X190772569Y-118556691D01*
X190835905Y-118586193D01*
X190857809Y-118611472D01*
X190923728Y-118712370D01*
X190923731Y-118712373D01*
X191079692Y-118881792D01*
X191261411Y-119023229D01*
X191463931Y-119132828D01*
X191577025Y-119171653D01*
X191681725Y-119207597D01*
X191681727Y-119207597D01*
X191681729Y-119207598D01*
X191908863Y-119245500D01*
X191908864Y-119245500D01*
X192139136Y-119245500D01*
X192139137Y-119245500D01*
X192366271Y-119207598D01*
X192584069Y-119132828D01*
X192786589Y-119023229D01*
X192968308Y-118881792D01*
X193124269Y-118712373D01*
X193250217Y-118519595D01*
X193342717Y-118308716D01*
X193399246Y-118085488D01*
X193407697Y-117983493D01*
X193418262Y-117856005D01*
X193418262Y-117855994D01*
X193399246Y-117626515D01*
X193399246Y-117626512D01*
X193342717Y-117403284D01*
X193250217Y-117192405D01*
X193225980Y-117155308D01*
X193124271Y-116999629D01*
X193021587Y-116888085D01*
X192968308Y-116830208D01*
X192900036Y-116777070D01*
X192786591Y-116688772D01*
X192584069Y-116579172D01*
X192584061Y-116579169D01*
X192366274Y-116504402D01*
X192195920Y-116475975D01*
X192139137Y-116466500D01*
X191908863Y-116466500D01*
X191863436Y-116474080D01*
X191681725Y-116504402D01*
X191463938Y-116579169D01*
X191463930Y-116579172D01*
X191261408Y-116688772D01*
X191079694Y-116830206D01*
X191079689Y-116830211D01*
X190923727Y-116999630D01*
X190857808Y-117100528D01*
X190804662Y-117145884D01*
X190735431Y-117155308D01*
X190672095Y-117125806D01*
X190650192Y-117100528D01*
X190584272Y-116999630D01*
X190481587Y-116888085D01*
X190428308Y-116830208D01*
X190360036Y-116777070D01*
X190246591Y-116688772D01*
X190044069Y-116579172D01*
X190044061Y-116579169D01*
X189826274Y-116504402D01*
X189655920Y-116475975D01*
X189599137Y-116466500D01*
X189368863Y-116466500D01*
X189323436Y-116474080D01*
X189141725Y-116504402D01*
X188923938Y-116579169D01*
X188923930Y-116579172D01*
X188721408Y-116688772D01*
X188539694Y-116830206D01*
X188539689Y-116830211D01*
X188383727Y-116999630D01*
X188317808Y-117100528D01*
X188264662Y-117145884D01*
X188195431Y-117155308D01*
X188132095Y-117125806D01*
X188110192Y-117100528D01*
X188044272Y-116999630D01*
X187941587Y-116888085D01*
X187888308Y-116830208D01*
X187820036Y-116777070D01*
X187706591Y-116688772D01*
X187504069Y-116579172D01*
X187504061Y-116579169D01*
X187286274Y-116504402D01*
X187115920Y-116475975D01*
X187059137Y-116466500D01*
X186828863Y-116466500D01*
X186783436Y-116474080D01*
X186601725Y-116504402D01*
X186383938Y-116579169D01*
X186383930Y-116579172D01*
X186181408Y-116688772D01*
X185999694Y-116830206D01*
X185999689Y-116830211D01*
X185843727Y-116999630D01*
X185777808Y-117100528D01*
X185724662Y-117145884D01*
X185655431Y-117155308D01*
X185592095Y-117125806D01*
X185570192Y-117100528D01*
X185504272Y-116999630D01*
X185401587Y-116888085D01*
X185348308Y-116830208D01*
X185280036Y-116777070D01*
X185166591Y-116688772D01*
X184964069Y-116579172D01*
X184964061Y-116579169D01*
X184746274Y-116504402D01*
X184575920Y-116475975D01*
X184519137Y-116466500D01*
X184288863Y-116466500D01*
X184243436Y-116474080D01*
X184061725Y-116504402D01*
X183843938Y-116579169D01*
X183843930Y-116579172D01*
X183641408Y-116688772D01*
X183459694Y-116830206D01*
X183459689Y-116830211D01*
X183303727Y-116999630D01*
X183237808Y-117100528D01*
X183184662Y-117145884D01*
X183115431Y-117155308D01*
X183052095Y-117125806D01*
X183030192Y-117100528D01*
X182964272Y-116999630D01*
X182861587Y-116888085D01*
X182808308Y-116830208D01*
X182740036Y-116777070D01*
X182626591Y-116688772D01*
X182424069Y-116579172D01*
X182424061Y-116579169D01*
X182206274Y-116504402D01*
X182035920Y-116475975D01*
X181979137Y-116466500D01*
X181748863Y-116466500D01*
X181703436Y-116474080D01*
X181521725Y-116504402D01*
X181303938Y-116579169D01*
X181303930Y-116579172D01*
X181101408Y-116688772D01*
X180919694Y-116830206D01*
X180919689Y-116830211D01*
X180763727Y-116999630D01*
X180697808Y-117100528D01*
X180644662Y-117145884D01*
X180575431Y-117155308D01*
X180512095Y-117125806D01*
X180490192Y-117100528D01*
X180424272Y-116999630D01*
X180321587Y-116888085D01*
X180268308Y-116830208D01*
X180200036Y-116777070D01*
X180086591Y-116688772D01*
X179884069Y-116579172D01*
X179884061Y-116579169D01*
X179666274Y-116504402D01*
X179495920Y-116475975D01*
X179439137Y-116466500D01*
X179208863Y-116466500D01*
X179163436Y-116474080D01*
X178981725Y-116504402D01*
X178763938Y-116579169D01*
X178763930Y-116579172D01*
X178561408Y-116688772D01*
X178379694Y-116830206D01*
X178379689Y-116830211D01*
X178223727Y-116999630D01*
X178157808Y-117100528D01*
X178104662Y-117145884D01*
X178035431Y-117155308D01*
X177972095Y-117125806D01*
X177950192Y-117100528D01*
X177884272Y-116999630D01*
X177781587Y-116888085D01*
X177728308Y-116830208D01*
X177660036Y-116777070D01*
X177546591Y-116688772D01*
X177344069Y-116579172D01*
X177344061Y-116579169D01*
X177126274Y-116504402D01*
X176955920Y-116475975D01*
X176899137Y-116466500D01*
X176668863Y-116466500D01*
X176623436Y-116474080D01*
X176441725Y-116504402D01*
X176223938Y-116579169D01*
X176223930Y-116579172D01*
X176021408Y-116688772D01*
X175839694Y-116830206D01*
X175839689Y-116830211D01*
X175683727Y-116999630D01*
X175617808Y-117100528D01*
X175564662Y-117145884D01*
X175495431Y-117155308D01*
X175432095Y-117125806D01*
X175410192Y-117100528D01*
X175344272Y-116999630D01*
X175241587Y-116888085D01*
X175188308Y-116830208D01*
X175120036Y-116777070D01*
X175006591Y-116688772D01*
X174804069Y-116579172D01*
X174804061Y-116579169D01*
X174586274Y-116504402D01*
X174415920Y-116475975D01*
X174359137Y-116466500D01*
X174128863Y-116466500D01*
X174083436Y-116474080D01*
X173901725Y-116504402D01*
X173683938Y-116579169D01*
X173683930Y-116579172D01*
X173481408Y-116688772D01*
X173299694Y-116830206D01*
X173299689Y-116830211D01*
X173143727Y-116999630D01*
X173077808Y-117100528D01*
X173024662Y-117145884D01*
X172955431Y-117155308D01*
X172892095Y-117125806D01*
X172870192Y-117100528D01*
X172804272Y-116999630D01*
X172701587Y-116888085D01*
X172648308Y-116830208D01*
X172580036Y-116777070D01*
X172466591Y-116688772D01*
X172264069Y-116579172D01*
X172264061Y-116579169D01*
X172046274Y-116504402D01*
X171875920Y-116475975D01*
X171819137Y-116466500D01*
X171588863Y-116466500D01*
X171543436Y-116474080D01*
X171361725Y-116504402D01*
X171143938Y-116579169D01*
X171143930Y-116579172D01*
X170941408Y-116688772D01*
X170759694Y-116830206D01*
X170759689Y-116830211D01*
X170603727Y-116999630D01*
X170537808Y-117100528D01*
X170484662Y-117145884D01*
X170415431Y-117155308D01*
X170352095Y-117125806D01*
X170330192Y-117100528D01*
X170264272Y-116999630D01*
X170161587Y-116888085D01*
X170108308Y-116830208D01*
X170040036Y-116777070D01*
X169926591Y-116688772D01*
X169724069Y-116579172D01*
X169724061Y-116579169D01*
X169506274Y-116504402D01*
X169335920Y-116475975D01*
X169279137Y-116466500D01*
X169048863Y-116466500D01*
X169003436Y-116474080D01*
X168821725Y-116504402D01*
X168603938Y-116579169D01*
X168603930Y-116579172D01*
X168401408Y-116688772D01*
X168219694Y-116830206D01*
X168219689Y-116830211D01*
X168063727Y-116999630D01*
X167997808Y-117100528D01*
X167944662Y-117145884D01*
X167875431Y-117155308D01*
X167812095Y-117125806D01*
X167790192Y-117100528D01*
X167724272Y-116999630D01*
X167621587Y-116888085D01*
X167568308Y-116830208D01*
X167500036Y-116777070D01*
X167386591Y-116688772D01*
X167184069Y-116579172D01*
X167184061Y-116579169D01*
X166966274Y-116504402D01*
X166795920Y-116475975D01*
X166739137Y-116466500D01*
X166508863Y-116466500D01*
X166463436Y-116474080D01*
X166281725Y-116504402D01*
X166063938Y-116579169D01*
X166063930Y-116579172D01*
X165861408Y-116688772D01*
X165679694Y-116830206D01*
X165679689Y-116830211D01*
X165523727Y-116999630D01*
X165457808Y-117100528D01*
X165404662Y-117145884D01*
X165335431Y-117155308D01*
X165272095Y-117125806D01*
X165250192Y-117100528D01*
X165184272Y-116999630D01*
X165081587Y-116888085D01*
X165028308Y-116830208D01*
X164960036Y-116777070D01*
X164846591Y-116688772D01*
X164644069Y-116579172D01*
X164644061Y-116579169D01*
X164426274Y-116504402D01*
X164255920Y-116475975D01*
X164199137Y-116466500D01*
X163968863Y-116466500D01*
X163923436Y-116474080D01*
X163741725Y-116504402D01*
X163523938Y-116579169D01*
X163523930Y-116579172D01*
X163321408Y-116688772D01*
X163139694Y-116830206D01*
X163139689Y-116830211D01*
X162983728Y-116999629D01*
X162857782Y-117192405D01*
X162765282Y-117403285D01*
X162708753Y-117626515D01*
X162689738Y-117855994D01*
X162689738Y-117856005D01*
X152900500Y-117856005D01*
X152900500Y-58166005D01*
X153672493Y-58166005D01*
X153692500Y-58484023D01*
X153692501Y-58484030D01*
X153752214Y-58797056D01*
X153850686Y-59100120D01*
X153850688Y-59100125D01*
X153986364Y-59388449D01*
X153986367Y-59388455D01*
X154157110Y-59657504D01*
X154157113Y-59657508D01*
X154157114Y-59657509D01*
X154360235Y-59903041D01*
X154360238Y-59903044D01*
X154592530Y-60121181D01*
X154592540Y-60121189D01*
X154850324Y-60308480D01*
X154850342Y-60308492D01*
X155129582Y-60462005D01*
X155425867Y-60579313D01*
X155425866Y-60579313D01*
X155734515Y-60658560D01*
X155734519Y-60658561D01*
X155780676Y-60664392D01*
X156050657Y-60698499D01*
X156050666Y-60698499D01*
X156050669Y-60698500D01*
X156050671Y-60698500D01*
X156369329Y-60698500D01*
X156369331Y-60698500D01*
X156369334Y-60698499D01*
X156369342Y-60698499D01*
X156557989Y-60674666D01*
X156685481Y-60658561D01*
X156994133Y-60579313D01*
X157290418Y-60462005D01*
X157569664Y-60308488D01*
X157827468Y-60121183D01*
X158059763Y-59903043D01*
X158183956Y-59752918D01*
X158241856Y-59713811D01*
X158311707Y-59712215D01*
X158371333Y-59748636D01*
X158401803Y-59811512D01*
X158403500Y-59831959D01*
X158403500Y-63187163D01*
X158383815Y-63254202D01*
X158338519Y-63296217D01*
X158241413Y-63348769D01*
X158241408Y-63348772D01*
X158059694Y-63490206D01*
X158059689Y-63490211D01*
X157903728Y-63659629D01*
X157777782Y-63852405D01*
X157685281Y-64063286D01*
X157676490Y-64098002D01*
X157640950Y-64158157D01*
X157588380Y-64187334D01*
X157502220Y-64210421D01*
X157502209Y-64210426D01*
X157365290Y-64289475D01*
X157365282Y-64289481D01*
X156755681Y-64899083D01*
X156694358Y-64932568D01*
X156624666Y-64927584D01*
X156568733Y-64885712D01*
X156544316Y-64820248D01*
X156544000Y-64811402D01*
X156544000Y-64786000D01*
X155627012Y-64786000D01*
X155659925Y-64728993D01*
X155694000Y-64601826D01*
X155694000Y-64470174D01*
X155659925Y-64343007D01*
X155627012Y-64286000D01*
X156544000Y-64286000D01*
X156544000Y-63638172D01*
X156543999Y-63638155D01*
X156537598Y-63578627D01*
X156537596Y-63578620D01*
X156487354Y-63443913D01*
X156487350Y-63443906D01*
X156401190Y-63328812D01*
X156401187Y-63328809D01*
X156286093Y-63242649D01*
X156286086Y-63242645D01*
X156151379Y-63192403D01*
X156151372Y-63192401D01*
X156091844Y-63186000D01*
X155444000Y-63186000D01*
X155444000Y-64102988D01*
X155386993Y-64070075D01*
X155259826Y-64036000D01*
X155128174Y-64036000D01*
X155001007Y-64070075D01*
X154944000Y-64102988D01*
X154944000Y-63186000D01*
X154296155Y-63186000D01*
X154236627Y-63192401D01*
X154236620Y-63192403D01*
X154101913Y-63242645D01*
X154101906Y-63242649D01*
X153986812Y-63328809D01*
X153986809Y-63328812D01*
X153900649Y-63443906D01*
X153900645Y-63443913D01*
X153850403Y-63578620D01*
X153850401Y-63578627D01*
X153844000Y-63638155D01*
X153844000Y-64286000D01*
X154760988Y-64286000D01*
X154728075Y-64343007D01*
X154694000Y-64470174D01*
X154694000Y-64601826D01*
X154728075Y-64728993D01*
X154760988Y-64786000D01*
X153844000Y-64786000D01*
X153844000Y-65433844D01*
X153850401Y-65493372D01*
X153850403Y-65493379D01*
X153900645Y-65628086D01*
X153900649Y-65628093D01*
X153986809Y-65743187D01*
X153986812Y-65743190D01*
X154101906Y-65829350D01*
X154101913Y-65829354D01*
X154233470Y-65878421D01*
X154289403Y-65920292D01*
X154313821Y-65985756D01*
X154298970Y-66054029D01*
X154277819Y-66082284D01*
X154155503Y-66204600D01*
X154019965Y-66398169D01*
X154019964Y-66398171D01*
X153920098Y-66612335D01*
X153920094Y-66612344D01*
X153858938Y-66840586D01*
X153858936Y-66840596D01*
X153838341Y-67075999D01*
X153838341Y-67076000D01*
X153858936Y-67311403D01*
X153858938Y-67311413D01*
X153920094Y-67539655D01*
X153920096Y-67539659D01*
X153920097Y-67539663D01*
X154004001Y-67719595D01*
X154019965Y-67753830D01*
X154019967Y-67753834D01*
X154155501Y-67947395D01*
X154155506Y-67947402D01*
X154322597Y-68114493D01*
X154322603Y-68114498D01*
X154508158Y-68244425D01*
X154551783Y-68299002D01*
X154558977Y-68368500D01*
X154527454Y-68430855D01*
X154508158Y-68447575D01*
X154322597Y-68577505D01*
X154155505Y-68744597D01*
X154019965Y-68938169D01*
X154019964Y-68938171D01*
X153920098Y-69152335D01*
X153920094Y-69152344D01*
X153858938Y-69380586D01*
X153858936Y-69380596D01*
X153838341Y-69615999D01*
X153838341Y-69616000D01*
X153858936Y-69851403D01*
X153858938Y-69851413D01*
X153920094Y-70079655D01*
X153920096Y-70079659D01*
X153920097Y-70079663D01*
X154004001Y-70259595D01*
X154019965Y-70293830D01*
X154019967Y-70293834D01*
X154155501Y-70487395D01*
X154155506Y-70487402D01*
X154322597Y-70654493D01*
X154322603Y-70654498D01*
X154508158Y-70784425D01*
X154551783Y-70839002D01*
X154558977Y-70908500D01*
X154527454Y-70970855D01*
X154508158Y-70987575D01*
X154322597Y-71117505D01*
X154155505Y-71284597D01*
X154019965Y-71478169D01*
X154019964Y-71478171D01*
X153920098Y-71692335D01*
X153920094Y-71692344D01*
X153858938Y-71920586D01*
X153858936Y-71920596D01*
X153838341Y-72155999D01*
X153838341Y-72156000D01*
X153858936Y-72391403D01*
X153858938Y-72391413D01*
X153920094Y-72619655D01*
X153920096Y-72619659D01*
X153920097Y-72619663D01*
X154004001Y-72799595D01*
X154019965Y-72833830D01*
X154019967Y-72833834D01*
X154128281Y-72988521D01*
X154155505Y-73027401D01*
X154322599Y-73194495D01*
X154389942Y-73241649D01*
X154516165Y-73330032D01*
X154516167Y-73330033D01*
X154516170Y-73330035D01*
X154730337Y-73429903D01*
X154958592Y-73491063D01*
X155146918Y-73507539D01*
X155193999Y-73511659D01*
X155194000Y-73511659D01*
X155194001Y-73511659D01*
X155233234Y-73508226D01*
X155429408Y-73491063D01*
X155657663Y-73429903D01*
X155871830Y-73330035D01*
X156041381Y-73211313D01*
X156107584Y-73188988D01*
X156175352Y-73205998D01*
X156210726Y-73241649D01*
X156212530Y-73240265D01*
X156217479Y-73246714D01*
X156217480Y-73246716D01*
X156329284Y-73358520D01*
X156329285Y-73358521D01*
X156476384Y-73505620D01*
X156589181Y-73618416D01*
X156622666Y-73679739D01*
X156625500Y-73706097D01*
X156625500Y-77987895D01*
X156605815Y-78054934D01*
X156553011Y-78100689D01*
X156483853Y-78110633D01*
X156420297Y-78081608D01*
X156402236Y-78062209D01*
X156401190Y-78060812D01*
X156401187Y-78060809D01*
X156286093Y-77974649D01*
X156286086Y-77974645D01*
X156151379Y-77924403D01*
X156151372Y-77924401D01*
X156091844Y-77918000D01*
X155444000Y-77918000D01*
X155444000Y-78834988D01*
X155386993Y-78802075D01*
X155259826Y-78768000D01*
X155128174Y-78768000D01*
X155001007Y-78802075D01*
X154944000Y-78834988D01*
X154944000Y-77918000D01*
X154296155Y-77918000D01*
X154236627Y-77924401D01*
X154236620Y-77924403D01*
X154101913Y-77974645D01*
X154101906Y-77974649D01*
X153986812Y-78060809D01*
X153986809Y-78060812D01*
X153900649Y-78175906D01*
X153900645Y-78175913D01*
X153850403Y-78310620D01*
X153850401Y-78310627D01*
X153844000Y-78370155D01*
X153844000Y-79018000D01*
X154760988Y-79018000D01*
X154728075Y-79075007D01*
X154694000Y-79202174D01*
X154694000Y-79333826D01*
X154728075Y-79460993D01*
X154760988Y-79518000D01*
X153844000Y-79518000D01*
X153844000Y-80165844D01*
X153850401Y-80225372D01*
X153850403Y-80225379D01*
X153900645Y-80360086D01*
X153900649Y-80360093D01*
X153986809Y-80475187D01*
X153986812Y-80475190D01*
X154101906Y-80561350D01*
X154101913Y-80561354D01*
X154233470Y-80610421D01*
X154289403Y-80652292D01*
X154313821Y-80717756D01*
X154298970Y-80786029D01*
X154277819Y-80814284D01*
X154155503Y-80936600D01*
X154019965Y-81130169D01*
X154019964Y-81130171D01*
X153920098Y-81344335D01*
X153920094Y-81344344D01*
X153858938Y-81572586D01*
X153858936Y-81572596D01*
X153838341Y-81807999D01*
X153838341Y-81808000D01*
X153858936Y-82043403D01*
X153858938Y-82043413D01*
X153920094Y-82271655D01*
X153920096Y-82271659D01*
X153920097Y-82271663D01*
X153998882Y-82440617D01*
X154019965Y-82485830D01*
X154019967Y-82485834D01*
X154155501Y-82679395D01*
X154155506Y-82679402D01*
X154322597Y-82846493D01*
X154322603Y-82846498D01*
X154508158Y-82976425D01*
X154551783Y-83031002D01*
X154558977Y-83100500D01*
X154527454Y-83162855D01*
X154508158Y-83179575D01*
X154322597Y-83309505D01*
X154155505Y-83476597D01*
X154019965Y-83670169D01*
X154019964Y-83670171D01*
X153920098Y-83884335D01*
X153920094Y-83884344D01*
X153858938Y-84112586D01*
X153858936Y-84112596D01*
X153838341Y-84347999D01*
X153838341Y-84348000D01*
X153858936Y-84583403D01*
X153858938Y-84583413D01*
X153920094Y-84811655D01*
X153920096Y-84811659D01*
X153920097Y-84811663D01*
X154001313Y-84985830D01*
X154019965Y-85025830D01*
X154019967Y-85025834D01*
X154155501Y-85219395D01*
X154155506Y-85219402D01*
X154322597Y-85386493D01*
X154322603Y-85386498D01*
X154508158Y-85516425D01*
X154551783Y-85571002D01*
X154558977Y-85640500D01*
X154527454Y-85702855D01*
X154508158Y-85719575D01*
X154322597Y-85849505D01*
X154155505Y-86016597D01*
X154019965Y-86210169D01*
X154019964Y-86210171D01*
X153920098Y-86424335D01*
X153920094Y-86424344D01*
X153858938Y-86652586D01*
X153858936Y-86652596D01*
X153838341Y-86887999D01*
X153838341Y-86888000D01*
X153858936Y-87123403D01*
X153858938Y-87123413D01*
X153920094Y-87351655D01*
X153920096Y-87351659D01*
X153920097Y-87351663D01*
X154010032Y-87544528D01*
X154019965Y-87565830D01*
X154019967Y-87565834D01*
X154128281Y-87720521D01*
X154155505Y-87759401D01*
X154322599Y-87926495D01*
X154419384Y-87994265D01*
X154516165Y-88062032D01*
X154516167Y-88062033D01*
X154516170Y-88062035D01*
X154730337Y-88161903D01*
X154730343Y-88161904D01*
X154730344Y-88161905D01*
X154780321Y-88175296D01*
X154958592Y-88223063D01*
X155146918Y-88239539D01*
X155193999Y-88243659D01*
X155194000Y-88243659D01*
X155194001Y-88243659D01*
X155233234Y-88240226D01*
X155429408Y-88223063D01*
X155657663Y-88161903D01*
X155871830Y-88062035D01*
X156065401Y-87926495D01*
X156232495Y-87759401D01*
X156368035Y-87565830D01*
X156467903Y-87351663D01*
X156529063Y-87123408D01*
X156549659Y-86888000D01*
X156529063Y-86652592D01*
X156494671Y-86524239D01*
X156496334Y-86454393D01*
X156526763Y-86404470D01*
X157543912Y-85387321D01*
X157605233Y-85353838D01*
X157674925Y-85358822D01*
X157730858Y-85400694D01*
X157745147Y-85425193D01*
X157777783Y-85499596D01*
X157903728Y-85692370D01*
X157903731Y-85692373D01*
X158059692Y-85861792D01*
X158173221Y-85950155D01*
X158245459Y-86006380D01*
X158244476Y-86007641D01*
X158285183Y-86055349D01*
X158294600Y-86124581D01*
X158265092Y-86187914D01*
X158245136Y-86205205D01*
X158245459Y-86205620D01*
X158059694Y-86350206D01*
X158059689Y-86350211D01*
X157903728Y-86519629D01*
X157777782Y-86712405D01*
X157685282Y-86923285D01*
X157628753Y-87146515D01*
X157609738Y-87375994D01*
X157609738Y-87376005D01*
X157628753Y-87605484D01*
X157685282Y-87828714D01*
X157777782Y-88039594D01*
X157903728Y-88232370D01*
X157932415Y-88263532D01*
X158059692Y-88401792D01*
X158176591Y-88492778D01*
X158245459Y-88546380D01*
X158244476Y-88547641D01*
X158285183Y-88595349D01*
X158294600Y-88664581D01*
X158265092Y-88727914D01*
X158245136Y-88745205D01*
X158245459Y-88745620D01*
X158059694Y-88890206D01*
X158059689Y-88890211D01*
X157903728Y-89059629D01*
X157777782Y-89252405D01*
X157685282Y-89463285D01*
X157628753Y-89686515D01*
X157609738Y-89915994D01*
X157609738Y-89916005D01*
X157628753Y-90145484D01*
X157685282Y-90368714D01*
X157777782Y-90579594D01*
X157903728Y-90772370D01*
X157903731Y-90772373D01*
X158059692Y-90941792D01*
X158176591Y-91032778D01*
X158245459Y-91086380D01*
X158244476Y-91087641D01*
X158285183Y-91135349D01*
X158294600Y-91204581D01*
X158265092Y-91267914D01*
X158245136Y-91285205D01*
X158245459Y-91285620D01*
X158059694Y-91430206D01*
X158059689Y-91430211D01*
X157903728Y-91599629D01*
X157777782Y-91792405D01*
X157685282Y-92003285D01*
X157628753Y-92226515D01*
X157609738Y-92455994D01*
X157609738Y-92456005D01*
X157628753Y-92685484D01*
X157685282Y-92908714D01*
X157777782Y-93119594D01*
X157903728Y-93312370D01*
X157903731Y-93312373D01*
X158059692Y-93481792D01*
X158241411Y-93623229D01*
X158443931Y-93732828D01*
X158557025Y-93771653D01*
X158661725Y-93807597D01*
X158661727Y-93807597D01*
X158661729Y-93807598D01*
X158888863Y-93845500D01*
X158888864Y-93845500D01*
X159119136Y-93845500D01*
X159119137Y-93845500D01*
X159346271Y-93807598D01*
X159564069Y-93732828D01*
X159766589Y-93623229D01*
X159948308Y-93481792D01*
X160104269Y-93312373D01*
X160230217Y-93119595D01*
X160322717Y-92908716D01*
X160379246Y-92685488D01*
X160387697Y-92583493D01*
X160398262Y-92456005D01*
X160398262Y-92455994D01*
X160379246Y-92226515D01*
X160379246Y-92226512D01*
X160322717Y-92003284D01*
X160230217Y-91792405D01*
X160225644Y-91785406D01*
X160104271Y-91599629D01*
X160037871Y-91527500D01*
X159948308Y-91430208D01*
X159766589Y-91288771D01*
X159766590Y-91288771D01*
X159762541Y-91285620D01*
X159763525Y-91284354D01*
X159722824Y-91236670D01*
X159715924Y-91186005D01*
X164213744Y-91186005D01*
X164232748Y-91488074D01*
X164232749Y-91488081D01*
X164240269Y-91527500D01*
X164289467Y-91785406D01*
X164383001Y-92073274D01*
X164511877Y-92347150D01*
X164511879Y-92347153D01*
X164511880Y-92347155D01*
X164674058Y-92602708D01*
X164674061Y-92602712D01*
X164674062Y-92602713D01*
X164866999Y-92835934D01*
X164979417Y-92941501D01*
X165087643Y-93043132D01*
X165087653Y-93043140D01*
X165332508Y-93221038D01*
X165332513Y-93221040D01*
X165332520Y-93221046D01*
X165597763Y-93366865D01*
X165597768Y-93366867D01*
X165597770Y-93366868D01*
X165597771Y-93366869D01*
X165879186Y-93478289D01*
X165879189Y-93478290D01*
X166172359Y-93553563D01*
X166172363Y-93553564D01*
X166235360Y-93561522D01*
X166472647Y-93591499D01*
X166472656Y-93591499D01*
X166472659Y-93591500D01*
X166472661Y-93591500D01*
X166775339Y-93591500D01*
X166775341Y-93591500D01*
X166775344Y-93591499D01*
X166775352Y-93591499D01*
X166954539Y-93568862D01*
X167075637Y-93553564D01*
X167368810Y-93478290D01*
X167368813Y-93478289D01*
X167650228Y-93366869D01*
X167650229Y-93366868D01*
X167650227Y-93366868D01*
X167650237Y-93366865D01*
X167915480Y-93221046D01*
X168160355Y-93043134D01*
X168381001Y-92835934D01*
X168573938Y-92602713D01*
X168667042Y-92456005D01*
X172849738Y-92456005D01*
X172868753Y-92685484D01*
X172925282Y-92908714D01*
X173017782Y-93119594D01*
X173143728Y-93312370D01*
X173143731Y-93312373D01*
X173299692Y-93481792D01*
X173481411Y-93623229D01*
X173683931Y-93732828D01*
X173797025Y-93771653D01*
X173901725Y-93807597D01*
X173901727Y-93807597D01*
X173901729Y-93807598D01*
X174128863Y-93845500D01*
X174128864Y-93845500D01*
X174359136Y-93845500D01*
X174359137Y-93845500D01*
X174586271Y-93807598D01*
X174804069Y-93732828D01*
X175006589Y-93623229D01*
X175188308Y-93481792D01*
X175344269Y-93312373D01*
X175470217Y-93119595D01*
X175562717Y-92908716D01*
X175619246Y-92685488D01*
X175627697Y-92583493D01*
X175638262Y-92456005D01*
X175638262Y-92455994D01*
X175619246Y-92226515D01*
X175619246Y-92226512D01*
X175562717Y-92003284D01*
X175470217Y-91792405D01*
X175465644Y-91785406D01*
X175344271Y-91599629D01*
X175277871Y-91527500D01*
X175188308Y-91430208D01*
X175006589Y-91288771D01*
X175006590Y-91288771D01*
X175002541Y-91285620D01*
X175003525Y-91284354D01*
X174962824Y-91236670D01*
X174953396Y-91167439D01*
X174982893Y-91104102D01*
X175002865Y-91086796D01*
X175002541Y-91086380D01*
X175066250Y-91036793D01*
X175188308Y-90941792D01*
X175344269Y-90772373D01*
X175470217Y-90579595D01*
X175562717Y-90368716D01*
X175572564Y-90329832D01*
X176061500Y-90329832D01*
X176061501Y-90329847D01*
X176072003Y-90463302D01*
X176127528Y-90683657D01*
X176127529Y-90683660D01*
X176221512Y-90890568D01*
X176221515Y-90890574D01*
X176322815Y-91036793D01*
X176350931Y-91077376D01*
X176511624Y-91238069D01*
X176584809Y-91288771D01*
X176691372Y-91362598D01*
X176698428Y-91367486D01*
X176836510Y-91430206D01*
X176905339Y-91461470D01*
X176905342Y-91461471D01*
X177125694Y-91516995D01*
X177125697Y-91516995D01*
X177125703Y-91516997D01*
X177259159Y-91527500D01*
X178912840Y-91527499D01*
X179046297Y-91516997D01*
X179046300Y-91516996D01*
X179046302Y-91516996D01*
X179266657Y-91461471D01*
X179266660Y-91461470D01*
X179266661Y-91461469D01*
X179266663Y-91461469D01*
X179473572Y-91367486D01*
X179660376Y-91238069D01*
X179821069Y-91077376D01*
X179950486Y-90890572D01*
X180044469Y-90683663D01*
X180046755Y-90674594D01*
X180099995Y-90463305D01*
X180099995Y-90463304D01*
X180099997Y-90463297D01*
X180110500Y-90329841D01*
X180110500Y-90011005D01*
X184819738Y-90011005D01*
X184838753Y-90240484D01*
X184895282Y-90463714D01*
X184987782Y-90674594D01*
X185113728Y-90867370D01*
X185113731Y-90867373D01*
X185269692Y-91036792D01*
X185335023Y-91087641D01*
X185450868Y-91177807D01*
X185451411Y-91178229D01*
X185653931Y-91287828D01*
X185767025Y-91326653D01*
X185871725Y-91362597D01*
X185871727Y-91362597D01*
X185871729Y-91362598D01*
X186098863Y-91400500D01*
X186098864Y-91400500D01*
X186329136Y-91400500D01*
X186329137Y-91400500D01*
X186556271Y-91362598D01*
X186557693Y-91362110D01*
X186564662Y-91359717D01*
X186774069Y-91287828D01*
X186976589Y-91178229D01*
X187158308Y-91036792D01*
X187314269Y-90867373D01*
X187352075Y-90809506D01*
X187380191Y-90766472D01*
X187433337Y-90721115D01*
X187502569Y-90711691D01*
X187565905Y-90741193D01*
X187587809Y-90766472D01*
X187653728Y-90867370D01*
X187653731Y-90867373D01*
X187809692Y-91036792D01*
X187875023Y-91087641D01*
X187990868Y-91177807D01*
X187991411Y-91178229D01*
X188193931Y-91287828D01*
X188307025Y-91326653D01*
X188411725Y-91362597D01*
X188411727Y-91362597D01*
X188411729Y-91362598D01*
X188638863Y-91400500D01*
X188638864Y-91400500D01*
X188869136Y-91400500D01*
X188869137Y-91400500D01*
X189096271Y-91362598D01*
X189097693Y-91362110D01*
X189104662Y-91359717D01*
X189314069Y-91287828D01*
X189516589Y-91178229D01*
X189698308Y-91036792D01*
X189854269Y-90867373D01*
X189892075Y-90809506D01*
X189920191Y-90766472D01*
X189973337Y-90721115D01*
X190042569Y-90711691D01*
X190105905Y-90741193D01*
X190127809Y-90766472D01*
X190193728Y-90867370D01*
X190193731Y-90867373D01*
X190349692Y-91036792D01*
X190415023Y-91087641D01*
X190530868Y-91177807D01*
X190531411Y-91178229D01*
X190733931Y-91287828D01*
X190847025Y-91326653D01*
X190951725Y-91362597D01*
X190951727Y-91362597D01*
X190951729Y-91362598D01*
X191178863Y-91400500D01*
X191178864Y-91400500D01*
X191409136Y-91400500D01*
X191409137Y-91400500D01*
X191636271Y-91362598D01*
X191637693Y-91362110D01*
X191644662Y-91359717D01*
X191854069Y-91287828D01*
X192056589Y-91178229D01*
X192238308Y-91036792D01*
X192394269Y-90867373D01*
X192460490Y-90766013D01*
X192513636Y-90720657D01*
X192582868Y-90711233D01*
X192646203Y-90740735D01*
X192668108Y-90766013D01*
X192690760Y-90800685D01*
X193344504Y-90146941D01*
X193360619Y-90207081D01*
X193427498Y-90322920D01*
X193522080Y-90417502D01*
X193637919Y-90484381D01*
X193698057Y-90500495D01*
X193043040Y-91155512D01*
X193043040Y-91155514D01*
X193071677Y-91177803D01*
X193071683Y-91177807D01*
X193274131Y-91287367D01*
X193274140Y-91287370D01*
X193491849Y-91362110D01*
X193718905Y-91400000D01*
X193949095Y-91400000D01*
X194176150Y-91362110D01*
X194393859Y-91287370D01*
X194393868Y-91287367D01*
X194596315Y-91177807D01*
X194596316Y-91177806D01*
X194624958Y-91155513D01*
X194624959Y-91155511D01*
X193969942Y-90500494D01*
X194030081Y-90484381D01*
X194145920Y-90417502D01*
X194240502Y-90322920D01*
X194307381Y-90207081D01*
X194323495Y-90146942D01*
X194977238Y-90800685D01*
X195059772Y-90674359D01*
X195059777Y-90674351D01*
X195152242Y-90463553D01*
X195208750Y-90240408D01*
X195208752Y-90240396D01*
X195227760Y-90011005D01*
X195227760Y-90010994D01*
X195208752Y-89781603D01*
X195208750Y-89781591D01*
X195152242Y-89558446D01*
X195059774Y-89347642D01*
X194977238Y-89221313D01*
X194323494Y-89875057D01*
X194307381Y-89814919D01*
X194240502Y-89699080D01*
X194145920Y-89604498D01*
X194030081Y-89537619D01*
X193969941Y-89521504D01*
X194624958Y-88866486D01*
X194624958Y-88866484D01*
X194596322Y-88844196D01*
X194596316Y-88844192D01*
X194393868Y-88734632D01*
X194393859Y-88734629D01*
X194176150Y-88659889D01*
X193949095Y-88622000D01*
X193718905Y-88622000D01*
X193491849Y-88659889D01*
X193274140Y-88734629D01*
X193274132Y-88734632D01*
X193071681Y-88844194D01*
X193043040Y-88866485D01*
X193043040Y-88866487D01*
X193698058Y-89521504D01*
X193637919Y-89537619D01*
X193522080Y-89604498D01*
X193427498Y-89699080D01*
X193360619Y-89814919D01*
X193344504Y-89875058D01*
X192690760Y-89221314D01*
X192668108Y-89255986D01*
X192614961Y-89301342D01*
X192545730Y-89310766D01*
X192482394Y-89281264D01*
X192460490Y-89255986D01*
X192458150Y-89252405D01*
X192394269Y-89154627D01*
X192238308Y-88985208D01*
X192120750Y-88893709D01*
X192056591Y-88843772D01*
X191854069Y-88734172D01*
X191854061Y-88734169D01*
X191636274Y-88659402D01*
X191444727Y-88627439D01*
X191409137Y-88621500D01*
X191178863Y-88621500D01*
X191143273Y-88627439D01*
X190951725Y-88659402D01*
X190733938Y-88734169D01*
X190733930Y-88734172D01*
X190531408Y-88843772D01*
X190349694Y-88985206D01*
X190349689Y-88985211D01*
X190193727Y-89154630D01*
X190127808Y-89255528D01*
X190074662Y-89300884D01*
X190005431Y-89310308D01*
X189942095Y-89280806D01*
X189920192Y-89255528D01*
X189854272Y-89154630D01*
X189766815Y-89059627D01*
X189698308Y-88985208D01*
X189580750Y-88893709D01*
X189516591Y-88843772D01*
X189314069Y-88734172D01*
X189314061Y-88734169D01*
X189096274Y-88659402D01*
X188904727Y-88627439D01*
X188869137Y-88621500D01*
X188638863Y-88621500D01*
X188603273Y-88627439D01*
X188411725Y-88659402D01*
X188193938Y-88734169D01*
X188193930Y-88734172D01*
X187991408Y-88843772D01*
X187809694Y-88985206D01*
X187809689Y-88985211D01*
X187653727Y-89154630D01*
X187587808Y-89255528D01*
X187534662Y-89300884D01*
X187465431Y-89310308D01*
X187402095Y-89280806D01*
X187380192Y-89255528D01*
X187314272Y-89154630D01*
X187226815Y-89059627D01*
X187158308Y-88985208D01*
X187040750Y-88893709D01*
X186976591Y-88843772D01*
X186774069Y-88734172D01*
X186774061Y-88734169D01*
X186556274Y-88659402D01*
X186364727Y-88627439D01*
X186329137Y-88621500D01*
X186098863Y-88621500D01*
X186063273Y-88627439D01*
X185871725Y-88659402D01*
X185653938Y-88734169D01*
X185653930Y-88734172D01*
X185451408Y-88843772D01*
X185269694Y-88985206D01*
X185269689Y-88985211D01*
X185113728Y-89154629D01*
X184987782Y-89347405D01*
X184895282Y-89558285D01*
X184838753Y-89781515D01*
X184819738Y-90010994D01*
X184819738Y-90011005D01*
X180110500Y-90011005D01*
X180110499Y-88676160D01*
X180099997Y-88542703D01*
X180099996Y-88542699D01*
X180099996Y-88542697D01*
X180044471Y-88322342D01*
X180044470Y-88322339D01*
X180010601Y-88247774D01*
X179950486Y-88115428D01*
X179821069Y-87928624D01*
X179660376Y-87767931D01*
X179628495Y-87745844D01*
X179473574Y-87638515D01*
X179473568Y-87638512D01*
X179266660Y-87544529D01*
X179266657Y-87544528D01*
X179046305Y-87489004D01*
X179046299Y-87489003D01*
X178979569Y-87483751D01*
X178912841Y-87478500D01*
X178912839Y-87478500D01*
X177259167Y-87478500D01*
X177259152Y-87478501D01*
X177125697Y-87489003D01*
X176905342Y-87544528D01*
X176905339Y-87544529D01*
X176698431Y-87638512D01*
X176698425Y-87638515D01*
X176511623Y-87767931D01*
X176350931Y-87928623D01*
X176221515Y-88115425D01*
X176221512Y-88115431D01*
X176127529Y-88322339D01*
X176127528Y-88322342D01*
X176072004Y-88542694D01*
X176072003Y-88542700D01*
X176061500Y-88676153D01*
X176061500Y-90329832D01*
X175572564Y-90329832D01*
X175619246Y-90145488D01*
X175638262Y-89916000D01*
X175627125Y-89781603D01*
X175619246Y-89686515D01*
X175619246Y-89686512D01*
X175562717Y-89463284D01*
X175470217Y-89252405D01*
X175449904Y-89221313D01*
X175344271Y-89059629D01*
X175317355Y-89030390D01*
X175188308Y-88890208D01*
X175006589Y-88748771D01*
X175006590Y-88748771D01*
X175002541Y-88745620D01*
X175003525Y-88744354D01*
X174962824Y-88696670D01*
X174953396Y-88627439D01*
X174982893Y-88564102D01*
X175002865Y-88546796D01*
X175002541Y-88546380D01*
X175039174Y-88517866D01*
X175188308Y-88401792D01*
X175344269Y-88232373D01*
X175470217Y-88039595D01*
X175562717Y-87828716D01*
X175619246Y-87605488D01*
X175628898Y-87489003D01*
X175638262Y-87376005D01*
X175638262Y-87375994D01*
X175619246Y-87146515D01*
X175619246Y-87146512D01*
X175562717Y-86923284D01*
X175470217Y-86712405D01*
X175431138Y-86652590D01*
X175344271Y-86519629D01*
X175284217Y-86454393D01*
X175188308Y-86350208D01*
X175008388Y-86210171D01*
X175002541Y-86205620D01*
X175003525Y-86204354D01*
X174962824Y-86156670D01*
X174953396Y-86087439D01*
X174982893Y-86024102D01*
X175002865Y-86006796D01*
X175002541Y-86006380D01*
X175074757Y-85950172D01*
X175188308Y-85861792D01*
X175344269Y-85692373D01*
X175470217Y-85499595D01*
X175562717Y-85288716D01*
X175619246Y-85065488D01*
X175638262Y-84836000D01*
X175636245Y-84811664D01*
X175619246Y-84606515D01*
X175619246Y-84606512D01*
X175562717Y-84383284D01*
X175470217Y-84172405D01*
X175431139Y-84112592D01*
X175344271Y-83979629D01*
X175256548Y-83884337D01*
X175188308Y-83810208D01*
X175008388Y-83670171D01*
X175002541Y-83665620D01*
X175003525Y-83664354D01*
X174962824Y-83616670D01*
X174953396Y-83547439D01*
X174982893Y-83484102D01*
X175002865Y-83466796D01*
X175002541Y-83466380D01*
X175091157Y-83397407D01*
X175188308Y-83321792D01*
X175344269Y-83152373D01*
X175470217Y-82959595D01*
X175562717Y-82748716D01*
X175619246Y-82525488D01*
X175638262Y-82296000D01*
X175636245Y-82271664D01*
X175622014Y-82099919D01*
X175619246Y-82066512D01*
X175562717Y-81843284D01*
X175470217Y-81632405D01*
X175431139Y-81572592D01*
X175344271Y-81439629D01*
X175256548Y-81344337D01*
X175188308Y-81270208D01*
X175035775Y-81151487D01*
X175002541Y-81125620D01*
X175003525Y-81124354D01*
X174962824Y-81076670D01*
X174953396Y-81007439D01*
X174982893Y-80944102D01*
X175002865Y-80926796D01*
X175002541Y-80926380D01*
X175040806Y-80896597D01*
X175188308Y-80781792D01*
X175344269Y-80612373D01*
X175470217Y-80419595D01*
X175562717Y-80208716D01*
X175619246Y-79985488D01*
X175638262Y-79756000D01*
X175630382Y-79660908D01*
X175622014Y-79559919D01*
X175619246Y-79526512D01*
X175562717Y-79303284D01*
X175470217Y-79092405D01*
X175405000Y-78992583D01*
X175344271Y-78899629D01*
X175248037Y-78795091D01*
X175188308Y-78730208D01*
X175035775Y-78611487D01*
X175002541Y-78585620D01*
X175003525Y-78584354D01*
X174962824Y-78536670D01*
X174953396Y-78467439D01*
X174982893Y-78404102D01*
X175002865Y-78386796D01*
X175002541Y-78386380D01*
X175099877Y-78310620D01*
X175188308Y-78241792D01*
X175344269Y-78072373D01*
X175470217Y-77879595D01*
X175562717Y-77668716D01*
X175619246Y-77445488D01*
X175632720Y-77282880D01*
X175638262Y-77216005D01*
X175638262Y-77215994D01*
X175622014Y-77019919D01*
X175619246Y-76986512D01*
X175562717Y-76763284D01*
X175470217Y-76552405D01*
X175344271Y-76359629D01*
X175317355Y-76330390D01*
X175188308Y-76190208D01*
X175035775Y-76071487D01*
X175002541Y-76045620D01*
X175003525Y-76044354D01*
X174962824Y-75996670D01*
X174953396Y-75927439D01*
X174982893Y-75864102D01*
X175002865Y-75846796D01*
X175002541Y-75846380D01*
X175039174Y-75817866D01*
X175188308Y-75701792D01*
X175344269Y-75532373D01*
X175470217Y-75339595D01*
X175562717Y-75128716D01*
X175619246Y-74905488D01*
X175638262Y-74676000D01*
X175619246Y-74446512D01*
X175562717Y-74223284D01*
X175470217Y-74012405D01*
X175344271Y-73819629D01*
X175239402Y-73705711D01*
X175188308Y-73650208D01*
X175006589Y-73508771D01*
X175006590Y-73508771D01*
X175002541Y-73505620D01*
X175003525Y-73504354D01*
X174962824Y-73456670D01*
X174953396Y-73387439D01*
X174982893Y-73324102D01*
X175002865Y-73306796D01*
X175002541Y-73306380D01*
X175044957Y-73273366D01*
X175188308Y-73161792D01*
X175344269Y-72992373D01*
X175470217Y-72799595D01*
X175562717Y-72588716D01*
X175619246Y-72365488D01*
X175638262Y-72136000D01*
X175619246Y-71906512D01*
X175562717Y-71683284D01*
X175470217Y-71472405D01*
X175455825Y-71450377D01*
X175344271Y-71279629D01*
X175239402Y-71165711D01*
X175188308Y-71110208D01*
X175077427Y-71023906D01*
X175002541Y-70965620D01*
X175003525Y-70964354D01*
X174962824Y-70916670D01*
X174953396Y-70847439D01*
X174982893Y-70784102D01*
X175002865Y-70766796D01*
X175002541Y-70766380D01*
X175086889Y-70700729D01*
X175188308Y-70621792D01*
X175344269Y-70452373D01*
X175470217Y-70259595D01*
X175562717Y-70048716D01*
X175619246Y-69825488D01*
X175638262Y-69596000D01*
X175619246Y-69366512D01*
X175562717Y-69143284D01*
X175470217Y-68932405D01*
X175447850Y-68898169D01*
X175344271Y-68739629D01*
X175239402Y-68625711D01*
X175188308Y-68570208D01*
X175094436Y-68497144D01*
X175002541Y-68425620D01*
X175003525Y-68424354D01*
X174962824Y-68376670D01*
X174953396Y-68307439D01*
X174982893Y-68244102D01*
X175002865Y-68226796D01*
X175002541Y-68226380D01*
X175039174Y-68197866D01*
X175188308Y-68081792D01*
X175344269Y-67912373D01*
X175470217Y-67719595D01*
X175562717Y-67508716D01*
X175619246Y-67285488D01*
X175638262Y-67056000D01*
X175632253Y-66983487D01*
X175620412Y-66840586D01*
X175619246Y-66826512D01*
X175562717Y-66603284D01*
X175470217Y-66392405D01*
X175409622Y-66299657D01*
X175344271Y-66199629D01*
X175241587Y-66088085D01*
X175188308Y-66030208D01*
X175079905Y-65945835D01*
X176061500Y-65945835D01*
X176061501Y-65945840D01*
X176064117Y-65979084D01*
X176072003Y-66079302D01*
X176127528Y-66299657D01*
X176127529Y-66299660D01*
X176221512Y-66506568D01*
X176221515Y-66506574D01*
X176337002Y-66673271D01*
X176350931Y-66693376D01*
X176511624Y-66854069D01*
X176698428Y-66983486D01*
X176814041Y-67036000D01*
X176905339Y-67077470D01*
X176905342Y-67077471D01*
X177125694Y-67132995D01*
X177125697Y-67132995D01*
X177125703Y-67132997D01*
X177259159Y-67143500D01*
X178912840Y-67143499D01*
X179046297Y-67132997D01*
X179046300Y-67132996D01*
X179046302Y-67132996D01*
X179266657Y-67077471D01*
X179266660Y-67077470D01*
X179266661Y-67077469D01*
X179266663Y-67077469D01*
X179473572Y-66983486D01*
X179660376Y-66854069D01*
X179821069Y-66693376D01*
X179950486Y-66506572D01*
X180044469Y-66299663D01*
X180068424Y-66204599D01*
X180099995Y-66079305D01*
X180099995Y-66079304D01*
X180099997Y-66079297D01*
X180110500Y-65945841D01*
X180110499Y-64292160D01*
X180099997Y-64158703D01*
X180099996Y-64158699D01*
X180099996Y-64158697D01*
X180044471Y-63938342D01*
X180044470Y-63938339D01*
X179950487Y-63731431D01*
X179950486Y-63731428D01*
X179821069Y-63544624D01*
X179660376Y-63383931D01*
X179580816Y-63328812D01*
X179473574Y-63254515D01*
X179473568Y-63254512D01*
X179266660Y-63160529D01*
X179266657Y-63160528D01*
X179046305Y-63105004D01*
X179046299Y-63105003D01*
X178979569Y-63099751D01*
X178912841Y-63094500D01*
X178912839Y-63094500D01*
X177259167Y-63094500D01*
X177259152Y-63094501D01*
X177125697Y-63105003D01*
X176905342Y-63160528D01*
X176905339Y-63160529D01*
X176698431Y-63254512D01*
X176698425Y-63254515D01*
X176511623Y-63383931D01*
X176350931Y-63544623D01*
X176221515Y-63731425D01*
X176221512Y-63731431D01*
X176127529Y-63938339D01*
X176127528Y-63938342D01*
X176072004Y-64158694D01*
X176072003Y-64158700D01*
X176061500Y-64292153D01*
X176061500Y-65945832D01*
X176061500Y-65945835D01*
X175079905Y-65945835D01*
X175068826Y-65937212D01*
X175002541Y-65885620D01*
X175003525Y-65884354D01*
X174962824Y-65836670D01*
X174953396Y-65767439D01*
X174982893Y-65704102D01*
X175002865Y-65686796D01*
X175002541Y-65686380D01*
X175077437Y-65628086D01*
X175188308Y-65541792D01*
X175344269Y-65372373D01*
X175470217Y-65179595D01*
X175562717Y-64968716D01*
X175619246Y-64745488D01*
X175638262Y-64516000D01*
X175628756Y-64401286D01*
X175623927Y-64343007D01*
X175619246Y-64286512D01*
X175562717Y-64063284D01*
X175470217Y-63852405D01*
X175447850Y-63818169D01*
X175344271Y-63659629D01*
X175312022Y-63624597D01*
X175188308Y-63490208D01*
X175096095Y-63418436D01*
X175006591Y-63348772D01*
X174804069Y-63239172D01*
X174804061Y-63239169D01*
X174586274Y-63164402D01*
X174415920Y-63135975D01*
X174359137Y-63126500D01*
X174128863Y-63126500D01*
X174083436Y-63134080D01*
X173901725Y-63164402D01*
X173683938Y-63239169D01*
X173683930Y-63239172D01*
X173481408Y-63348772D01*
X173299694Y-63490206D01*
X173299689Y-63490211D01*
X173143728Y-63659629D01*
X173017782Y-63852405D01*
X172925282Y-64063285D01*
X172868753Y-64286515D01*
X172849738Y-64515994D01*
X172849738Y-64516005D01*
X172868753Y-64745484D01*
X172925282Y-64968714D01*
X173017782Y-65179594D01*
X173143728Y-65372370D01*
X173143731Y-65372373D01*
X173299692Y-65541792D01*
X173410563Y-65628086D01*
X173485459Y-65686380D01*
X173484476Y-65687641D01*
X173525183Y-65735349D01*
X173534600Y-65804581D01*
X173505092Y-65867914D01*
X173485136Y-65885205D01*
X173485459Y-65885620D01*
X173299694Y-66030206D01*
X173299689Y-66030211D01*
X173143728Y-66199629D01*
X173017782Y-66392405D01*
X172925282Y-66603285D01*
X172868753Y-66826515D01*
X172849738Y-67055994D01*
X172849738Y-67056005D01*
X172868753Y-67285484D01*
X172925282Y-67508714D01*
X173017782Y-67719594D01*
X173143728Y-67912370D01*
X173175977Y-67947402D01*
X173299692Y-68081792D01*
X173341709Y-68114495D01*
X173485459Y-68226380D01*
X173484476Y-68227641D01*
X173525183Y-68275349D01*
X173534600Y-68344581D01*
X173505092Y-68407914D01*
X173485136Y-68425205D01*
X173485459Y-68425620D01*
X173299694Y-68570206D01*
X173299689Y-68570211D01*
X173143728Y-68739629D01*
X173017782Y-68932405D01*
X172925282Y-69143285D01*
X172868753Y-69366515D01*
X172849738Y-69595994D01*
X172849738Y-69596005D01*
X172868753Y-69825484D01*
X172925282Y-70048714D01*
X173017782Y-70259594D01*
X173143728Y-70452370D01*
X173175977Y-70487402D01*
X173299692Y-70621792D01*
X173401111Y-70700729D01*
X173485459Y-70766380D01*
X173484476Y-70767641D01*
X173525183Y-70815349D01*
X173534600Y-70884581D01*
X173505092Y-70947914D01*
X173485136Y-70965205D01*
X173485459Y-70965620D01*
X173299694Y-71110206D01*
X173299689Y-71110211D01*
X173143728Y-71279629D01*
X173017782Y-71472405D01*
X172925282Y-71683285D01*
X172868753Y-71906515D01*
X172849738Y-72135994D01*
X172849738Y-72136005D01*
X172868753Y-72365484D01*
X172925282Y-72588714D01*
X173017782Y-72799594D01*
X173143728Y-72992370D01*
X173175977Y-73027402D01*
X173299692Y-73161792D01*
X173400515Y-73240265D01*
X173485459Y-73306380D01*
X173484476Y-73307641D01*
X173525183Y-73355349D01*
X173534600Y-73424581D01*
X173505092Y-73487914D01*
X173485136Y-73505205D01*
X173485459Y-73505620D01*
X173299694Y-73650206D01*
X173299689Y-73650211D01*
X173143728Y-73819629D01*
X173017782Y-74012405D01*
X172925282Y-74223285D01*
X172868753Y-74446515D01*
X172849738Y-74675994D01*
X172849738Y-74676005D01*
X172868753Y-74905484D01*
X172925282Y-75128714D01*
X173017782Y-75339594D01*
X173143728Y-75532370D01*
X173143731Y-75532373D01*
X173299692Y-75701792D01*
X173416591Y-75792778D01*
X173485459Y-75846380D01*
X173484476Y-75847641D01*
X173525183Y-75895349D01*
X173534600Y-75964581D01*
X173505092Y-76027914D01*
X173485136Y-76045205D01*
X173485459Y-76045620D01*
X173299694Y-76190206D01*
X173299689Y-76190211D01*
X173143728Y-76359629D01*
X173017782Y-76552405D01*
X172925282Y-76763285D01*
X172868753Y-76986515D01*
X172849738Y-77215994D01*
X172849738Y-77216005D01*
X172868753Y-77445484D01*
X172925282Y-77668714D01*
X173017782Y-77879594D01*
X173143728Y-78072370D01*
X173143731Y-78072373D01*
X173299692Y-78241792D01*
X173388123Y-78310620D01*
X173485459Y-78386380D01*
X173484476Y-78387641D01*
X173525183Y-78435349D01*
X173534600Y-78504581D01*
X173505092Y-78567914D01*
X173485136Y-78585205D01*
X173485459Y-78585620D01*
X173299694Y-78730206D01*
X173299689Y-78730211D01*
X173143728Y-78899629D01*
X173017782Y-79092405D01*
X172925282Y-79303285D01*
X172868753Y-79526515D01*
X172849738Y-79755994D01*
X172849738Y-79756005D01*
X172868753Y-79985484D01*
X172925282Y-80208714D01*
X173017782Y-80419594D01*
X173143728Y-80612370D01*
X173143731Y-80612373D01*
X173299692Y-80781792D01*
X173416591Y-80872778D01*
X173485459Y-80926380D01*
X173484476Y-80927641D01*
X173525183Y-80975349D01*
X173534600Y-81044581D01*
X173505092Y-81107914D01*
X173485136Y-81125205D01*
X173485459Y-81125620D01*
X173299694Y-81270206D01*
X173299689Y-81270211D01*
X173143728Y-81439629D01*
X173017782Y-81632405D01*
X172925282Y-81843285D01*
X172868753Y-82066515D01*
X172849738Y-82295994D01*
X172849738Y-82296005D01*
X172868753Y-82525484D01*
X172925282Y-82748714D01*
X173017782Y-82959594D01*
X173143728Y-83152370D01*
X173143731Y-83152373D01*
X173299692Y-83321792D01*
X173336642Y-83350551D01*
X173485459Y-83466380D01*
X173484476Y-83467641D01*
X173525183Y-83515349D01*
X173534600Y-83584581D01*
X173505092Y-83647914D01*
X173485136Y-83665205D01*
X173485459Y-83665620D01*
X173299694Y-83810206D01*
X173299689Y-83810211D01*
X173143728Y-83979629D01*
X173017782Y-84172405D01*
X172925282Y-84383285D01*
X172868753Y-84606515D01*
X172849738Y-84835994D01*
X172849738Y-84836005D01*
X172868753Y-85065484D01*
X172925282Y-85288714D01*
X173017782Y-85499594D01*
X173143728Y-85692370D01*
X173143731Y-85692373D01*
X173299692Y-85861792D01*
X173413221Y-85950155D01*
X173485459Y-86006380D01*
X173484476Y-86007641D01*
X173525183Y-86055349D01*
X173534600Y-86124581D01*
X173505092Y-86187914D01*
X173485136Y-86205205D01*
X173485459Y-86205620D01*
X173299694Y-86350206D01*
X173299689Y-86350211D01*
X173143728Y-86519629D01*
X173017782Y-86712405D01*
X172925282Y-86923285D01*
X172868753Y-87146515D01*
X172849738Y-87375994D01*
X172849738Y-87376005D01*
X172868753Y-87605484D01*
X172925282Y-87828714D01*
X173017782Y-88039594D01*
X173143728Y-88232370D01*
X173172415Y-88263532D01*
X173299692Y-88401792D01*
X173416591Y-88492778D01*
X173485459Y-88546380D01*
X173484476Y-88547641D01*
X173525183Y-88595349D01*
X173534600Y-88664581D01*
X173505092Y-88727914D01*
X173485136Y-88745205D01*
X173485459Y-88745620D01*
X173299694Y-88890206D01*
X173299689Y-88890211D01*
X173143728Y-89059629D01*
X173017782Y-89252405D01*
X172925282Y-89463285D01*
X172868753Y-89686515D01*
X172849738Y-89915994D01*
X172849738Y-89916005D01*
X172868753Y-90145484D01*
X172925282Y-90368714D01*
X173017782Y-90579594D01*
X173143728Y-90772370D01*
X173143731Y-90772373D01*
X173299692Y-90941792D01*
X173416591Y-91032778D01*
X173485459Y-91086380D01*
X173484476Y-91087641D01*
X173525183Y-91135349D01*
X173534600Y-91204581D01*
X173505092Y-91267914D01*
X173485136Y-91285205D01*
X173485459Y-91285620D01*
X173299694Y-91430206D01*
X173299689Y-91430211D01*
X173143728Y-91599629D01*
X173017782Y-91792405D01*
X172925282Y-92003285D01*
X172868753Y-92226515D01*
X172849738Y-92455994D01*
X172849738Y-92456005D01*
X168667042Y-92456005D01*
X168736123Y-92347150D01*
X168864999Y-92073274D01*
X168958533Y-91785406D01*
X169015250Y-91488085D01*
X169015251Y-91488074D01*
X169034256Y-91186005D01*
X169034256Y-91185994D01*
X169015251Y-90883925D01*
X169015250Y-90883918D01*
X169015250Y-90883915D01*
X168958533Y-90586594D01*
X168864999Y-90298726D01*
X168736123Y-90024850D01*
X168581754Y-89781603D01*
X168573941Y-89769291D01*
X168573938Y-89769287D01*
X168381001Y-89536066D01*
X168160355Y-89328866D01*
X168160352Y-89328864D01*
X168160346Y-89328859D01*
X167915491Y-89150961D01*
X167915484Y-89150956D01*
X167915480Y-89150954D01*
X167650237Y-89005135D01*
X167650234Y-89005133D01*
X167650229Y-89005131D01*
X167650228Y-89005130D01*
X167368813Y-88893710D01*
X167368810Y-88893709D01*
X167075640Y-88818436D01*
X167075627Y-88818434D01*
X166775352Y-88780500D01*
X166775341Y-88780500D01*
X166472659Y-88780500D01*
X166472647Y-88780500D01*
X166172372Y-88818434D01*
X166172359Y-88818436D01*
X165879189Y-88893709D01*
X165879186Y-88893710D01*
X165597771Y-89005130D01*
X165597770Y-89005131D01*
X165332520Y-89150954D01*
X165332508Y-89150961D01*
X165087653Y-89328859D01*
X165087643Y-89328867D01*
X164944504Y-89463284D01*
X164866999Y-89536066D01*
X164848619Y-89558284D01*
X164674058Y-89769291D01*
X164511880Y-90024844D01*
X164383000Y-90298728D01*
X164289468Y-90586589D01*
X164232749Y-90883918D01*
X164232748Y-90883925D01*
X164213744Y-91185994D01*
X164213744Y-91186005D01*
X159715924Y-91186005D01*
X159713396Y-91167439D01*
X159742893Y-91104102D01*
X159762865Y-91086796D01*
X159762541Y-91086380D01*
X159826250Y-91036793D01*
X159948308Y-90941792D01*
X160104269Y-90772373D01*
X160230217Y-90579595D01*
X160322717Y-90368716D01*
X160379246Y-90145488D01*
X160398262Y-89916000D01*
X160387125Y-89781603D01*
X160379246Y-89686515D01*
X160379246Y-89686512D01*
X160322717Y-89463284D01*
X160230217Y-89252405D01*
X160209904Y-89221313D01*
X160104271Y-89059629D01*
X160077355Y-89030390D01*
X159948308Y-88890208D01*
X159766589Y-88748771D01*
X159766590Y-88748771D01*
X159762541Y-88745620D01*
X159763525Y-88744354D01*
X159722824Y-88696670D01*
X159713396Y-88627439D01*
X159742893Y-88564102D01*
X159762865Y-88546796D01*
X159762541Y-88546380D01*
X159799174Y-88517866D01*
X159948308Y-88401792D01*
X160104269Y-88232373D01*
X160230217Y-88039595D01*
X160322717Y-87828716D01*
X160379246Y-87605488D01*
X160388898Y-87489003D01*
X160398262Y-87376005D01*
X160398262Y-87375994D01*
X160379246Y-87146515D01*
X160379246Y-87146512D01*
X160322717Y-86923284D01*
X160230217Y-86712405D01*
X160191138Y-86652590D01*
X160104271Y-86519629D01*
X160044217Y-86454393D01*
X159948308Y-86350208D01*
X159768388Y-86210171D01*
X159762541Y-86205620D01*
X159763525Y-86204354D01*
X159722824Y-86156670D01*
X159713396Y-86087439D01*
X159742893Y-86024102D01*
X159762865Y-86006796D01*
X159762541Y-86006380D01*
X159834757Y-85950172D01*
X159948308Y-85861792D01*
X160104269Y-85692373D01*
X160230217Y-85499595D01*
X160322717Y-85288716D01*
X160379246Y-85065488D01*
X160398262Y-84836000D01*
X160396245Y-84811664D01*
X160379246Y-84606515D01*
X160379246Y-84606512D01*
X160322717Y-84383284D01*
X160230217Y-84172405D01*
X160191139Y-84112592D01*
X160104271Y-83979629D01*
X160016548Y-83884337D01*
X159948308Y-83810208D01*
X159768388Y-83670171D01*
X159762541Y-83665620D01*
X159763428Y-83664480D01*
X159722363Y-83616366D01*
X159712938Y-83547135D01*
X159742437Y-83483798D01*
X159762571Y-83466352D01*
X159762266Y-83465960D01*
X159794958Y-83440513D01*
X159794959Y-83440511D01*
X159139942Y-82785494D01*
X159200081Y-82769381D01*
X159315920Y-82702502D01*
X159410502Y-82607920D01*
X159477381Y-82492081D01*
X159493495Y-82431942D01*
X160147238Y-83085685D01*
X160229772Y-82959359D01*
X160229777Y-82959351D01*
X160322242Y-82748553D01*
X160378750Y-82525408D01*
X160378752Y-82525396D01*
X160397760Y-82296005D01*
X160397760Y-82295994D01*
X160378752Y-82066603D01*
X160378750Y-82066591D01*
X160322242Y-81843446D01*
X160229774Y-81632642D01*
X160147238Y-81506313D01*
X159493494Y-82160057D01*
X159477381Y-82099919D01*
X159410502Y-81984080D01*
X159315920Y-81889498D01*
X159200081Y-81822619D01*
X159139941Y-81806504D01*
X159794958Y-81151486D01*
X159794958Y-81151484D01*
X159762267Y-81126040D01*
X159763111Y-81124954D01*
X159721896Y-81076646D01*
X159712482Y-81007414D01*
X159741992Y-80944082D01*
X159762526Y-80926294D01*
X159762266Y-80925960D01*
X159794958Y-80900513D01*
X159794959Y-80900511D01*
X159139942Y-80245494D01*
X159200081Y-80229381D01*
X159315920Y-80162502D01*
X159410502Y-80067920D01*
X159477381Y-79952081D01*
X159493495Y-79891942D01*
X160147238Y-80545685D01*
X160229772Y-80419359D01*
X160229777Y-80419351D01*
X160322242Y-80208553D01*
X160378750Y-79985408D01*
X160378752Y-79985396D01*
X160397760Y-79756005D01*
X160397760Y-79755994D01*
X160378752Y-79526603D01*
X160378750Y-79526591D01*
X160322242Y-79303446D01*
X160229774Y-79092642D01*
X160147238Y-78966313D01*
X159493494Y-79620057D01*
X159477381Y-79559919D01*
X159410502Y-79444080D01*
X159315920Y-79349498D01*
X159200081Y-79282619D01*
X159139941Y-79266504D01*
X159794958Y-78611486D01*
X159794958Y-78611484D01*
X159762267Y-78586040D01*
X159763111Y-78584954D01*
X159721896Y-78536646D01*
X159712482Y-78467414D01*
X159741992Y-78404082D01*
X159762526Y-78386294D01*
X159762266Y-78385960D01*
X159794958Y-78360513D01*
X159794959Y-78360511D01*
X159139942Y-77705494D01*
X159200081Y-77689381D01*
X159315920Y-77622502D01*
X159410502Y-77527920D01*
X159477381Y-77412081D01*
X159493495Y-77351942D01*
X160147238Y-78005685D01*
X160229772Y-77879359D01*
X160229777Y-77879351D01*
X160322242Y-77668553D01*
X160378750Y-77445408D01*
X160378752Y-77445396D01*
X160397760Y-77216005D01*
X160397760Y-77215994D01*
X160378752Y-76986603D01*
X160378750Y-76986591D01*
X160322242Y-76763446D01*
X160229774Y-76552642D01*
X160147238Y-76426313D01*
X159493494Y-77080057D01*
X159477381Y-77019919D01*
X159410502Y-76904080D01*
X159315920Y-76809498D01*
X159200081Y-76742619D01*
X159139941Y-76726504D01*
X159794958Y-76071486D01*
X159794958Y-76071484D01*
X159762267Y-76046040D01*
X159763209Y-76044829D01*
X159722355Y-75996947D01*
X159712941Y-75927714D01*
X159742450Y-75864382D01*
X159762820Y-75846738D01*
X159762541Y-75846380D01*
X159799174Y-75817866D01*
X159948308Y-75701792D01*
X160104269Y-75532373D01*
X160230217Y-75339595D01*
X160322717Y-75128716D01*
X160379246Y-74905488D01*
X160398262Y-74676000D01*
X160379246Y-74446512D01*
X160322717Y-74223284D01*
X160230217Y-74012405D01*
X160104271Y-73819629D01*
X159999402Y-73705711D01*
X159948308Y-73650208D01*
X159766589Y-73508771D01*
X159766590Y-73508771D01*
X159762541Y-73505620D01*
X159763525Y-73504354D01*
X159722824Y-73456670D01*
X159713396Y-73387439D01*
X159742893Y-73324102D01*
X159762865Y-73306796D01*
X159762541Y-73306380D01*
X159804957Y-73273366D01*
X159948308Y-73161792D01*
X160104269Y-72992373D01*
X160230217Y-72799595D01*
X160322717Y-72588716D01*
X160379246Y-72365488D01*
X160398262Y-72136000D01*
X160379246Y-71906512D01*
X160322717Y-71683284D01*
X160230217Y-71472405D01*
X160215825Y-71450377D01*
X160104271Y-71279629D01*
X159999402Y-71165711D01*
X159948308Y-71110208D01*
X159837427Y-71023906D01*
X159762541Y-70965620D01*
X159763525Y-70964354D01*
X159722824Y-70916670D01*
X159713396Y-70847439D01*
X159742893Y-70784102D01*
X159762865Y-70766796D01*
X159762541Y-70766380D01*
X159846889Y-70700729D01*
X159948308Y-70621792D01*
X160104269Y-70452373D01*
X160230217Y-70259595D01*
X160322717Y-70048716D01*
X160379246Y-69825488D01*
X160398262Y-69596000D01*
X160379246Y-69366512D01*
X160322717Y-69143284D01*
X160230217Y-68932405D01*
X160207850Y-68898169D01*
X160104271Y-68739629D01*
X159999402Y-68625711D01*
X159948308Y-68570208D01*
X159854436Y-68497144D01*
X159762541Y-68425620D01*
X159763428Y-68424480D01*
X159722363Y-68376366D01*
X159712938Y-68307135D01*
X159742437Y-68243798D01*
X159762571Y-68226352D01*
X159762266Y-68225960D01*
X159794958Y-68200513D01*
X159794959Y-68200511D01*
X159139942Y-67545494D01*
X159200081Y-67529381D01*
X159315920Y-67462502D01*
X159410502Y-67367920D01*
X159477381Y-67252081D01*
X159493495Y-67191942D01*
X160147238Y-67845685D01*
X160229772Y-67719359D01*
X160229777Y-67719351D01*
X160322242Y-67508553D01*
X160378750Y-67285408D01*
X160378752Y-67285396D01*
X160397760Y-67056005D01*
X160397760Y-67055994D01*
X160378752Y-66826603D01*
X160378750Y-66826591D01*
X160322242Y-66603446D01*
X160229774Y-66392642D01*
X160147238Y-66266313D01*
X159493494Y-66920057D01*
X159477381Y-66859919D01*
X159410502Y-66744080D01*
X159315920Y-66649498D01*
X159200081Y-66582619D01*
X159139941Y-66566504D01*
X159794958Y-65911486D01*
X159794958Y-65911484D01*
X159762267Y-65886040D01*
X159763209Y-65884829D01*
X159722355Y-65836947D01*
X159715428Y-65786005D01*
X164213744Y-65786005D01*
X164232748Y-66088074D01*
X164232749Y-66088081D01*
X164289468Y-66385410D01*
X164361486Y-66607057D01*
X164383001Y-66673274D01*
X164511877Y-66947150D01*
X164511879Y-66947153D01*
X164511880Y-66947155D01*
X164674058Y-67202708D01*
X164674061Y-67202712D01*
X164674062Y-67202713D01*
X164866999Y-67435934D01*
X165050473Y-67608227D01*
X165087643Y-67643132D01*
X165087653Y-67643140D01*
X165332508Y-67821038D01*
X165332513Y-67821040D01*
X165332520Y-67821046D01*
X165597763Y-67966865D01*
X165597768Y-67966867D01*
X165597770Y-67966868D01*
X165597771Y-67966869D01*
X165879186Y-68078289D01*
X165879189Y-68078290D01*
X166172359Y-68153563D01*
X166172363Y-68153564D01*
X166235360Y-68161522D01*
X166472647Y-68191499D01*
X166472656Y-68191499D01*
X166472659Y-68191500D01*
X166472661Y-68191500D01*
X166775339Y-68191500D01*
X166775341Y-68191500D01*
X166775344Y-68191499D01*
X166775352Y-68191499D01*
X166954539Y-68168862D01*
X167075637Y-68153564D01*
X167368810Y-68078290D01*
X167368813Y-68078289D01*
X167650228Y-67966869D01*
X167650229Y-67966868D01*
X167650227Y-67966868D01*
X167650237Y-67966865D01*
X167915480Y-67821046D01*
X168160355Y-67643134D01*
X168381001Y-67435934D01*
X168573938Y-67202713D01*
X168736123Y-66947150D01*
X168864999Y-66673274D01*
X168958533Y-66385406D01*
X169015250Y-66088085D01*
X169015615Y-66082284D01*
X169034256Y-65786005D01*
X169034256Y-65785994D01*
X169015251Y-65483925D01*
X169015250Y-65483918D01*
X169015250Y-65483915D01*
X168958533Y-65186594D01*
X168864999Y-64898726D01*
X168736123Y-64624850D01*
X168667041Y-64515994D01*
X168573941Y-64369291D01*
X168552197Y-64343007D01*
X168381001Y-64136066D01*
X168160355Y-63928866D01*
X168160352Y-63928864D01*
X168160346Y-63928859D01*
X167915491Y-63750961D01*
X167915484Y-63750956D01*
X167915480Y-63750954D01*
X167650237Y-63605135D01*
X167650234Y-63605133D01*
X167650229Y-63605131D01*
X167650228Y-63605130D01*
X167368813Y-63493710D01*
X167368810Y-63493709D01*
X167075640Y-63418436D01*
X167075627Y-63418434D01*
X166775352Y-63380500D01*
X166775341Y-63380500D01*
X166472659Y-63380500D01*
X166472647Y-63380500D01*
X166172372Y-63418434D01*
X166172359Y-63418436D01*
X165879189Y-63493709D01*
X165879186Y-63493710D01*
X165597771Y-63605130D01*
X165597770Y-63605131D01*
X165332520Y-63750954D01*
X165332508Y-63750961D01*
X165087653Y-63928859D01*
X165087643Y-63928867D01*
X164944504Y-64063284D01*
X164866999Y-64136066D01*
X164805487Y-64210421D01*
X164674058Y-64369291D01*
X164511880Y-64624844D01*
X164383000Y-64898728D01*
X164289468Y-65186589D01*
X164232749Y-65483918D01*
X164232748Y-65483925D01*
X164213744Y-65785994D01*
X164213744Y-65786005D01*
X159715428Y-65786005D01*
X159712941Y-65767714D01*
X159742450Y-65704382D01*
X159762820Y-65686738D01*
X159762541Y-65686380D01*
X159837437Y-65628086D01*
X159948308Y-65541792D01*
X160104269Y-65372373D01*
X160230217Y-65179595D01*
X160322717Y-64968716D01*
X160379246Y-64745488D01*
X160398262Y-64516000D01*
X160388756Y-64401286D01*
X160383927Y-64343007D01*
X160379246Y-64286512D01*
X160322717Y-64063284D01*
X160230217Y-63852405D01*
X160207850Y-63818169D01*
X160104271Y-63659629D01*
X160072022Y-63624597D01*
X159948308Y-63490208D01*
X159856095Y-63418436D01*
X159766591Y-63348772D01*
X159766586Y-63348769D01*
X159669481Y-63296217D01*
X159619891Y-63246997D01*
X159604500Y-63187163D01*
X159604500Y-56836942D01*
X159602182Y-56828295D01*
X159602179Y-56828284D01*
X159570340Y-56709457D01*
X159570340Y-56709455D01*
X159563578Y-56684219D01*
X159563576Y-56684213D01*
X159484524Y-56547290D01*
X159484521Y-56547286D01*
X159484520Y-56547284D01*
X159375417Y-56438181D01*
X159341933Y-56376858D01*
X159346917Y-56307166D01*
X159388789Y-56251233D01*
X159454253Y-56226816D01*
X159463099Y-56226500D01*
X167025331Y-56226500D01*
X167025347Y-56226501D01*
X167032943Y-56226501D01*
X167191054Y-56226501D01*
X167191057Y-56226501D01*
X167343785Y-56185577D01*
X167420128Y-56141500D01*
X167480716Y-56106520D01*
X167592520Y-55994716D01*
X167592520Y-55994714D01*
X167602724Y-55984511D01*
X167602728Y-55984506D01*
X169168470Y-54418763D01*
X169229791Y-54385280D01*
X169288238Y-54386670D01*
X169416592Y-54421063D01*
X169587319Y-54436000D01*
X169651999Y-54441659D01*
X169652000Y-54441659D01*
X169652001Y-54441659D01*
X169716681Y-54436000D01*
X169887408Y-54421063D01*
X170015757Y-54386672D01*
X170085606Y-54388335D01*
X170135530Y-54418765D01*
X171731284Y-56014520D01*
X171868215Y-56093577D01*
X172020943Y-56134501D01*
X172020946Y-56134501D01*
X172186654Y-56134501D01*
X172186670Y-56134500D01*
X174931076Y-56134500D01*
X174998115Y-56154185D01*
X175043870Y-56206989D01*
X175053814Y-56276147D01*
X175024789Y-56339703D01*
X175013303Y-56351316D01*
X174989974Y-56371983D01*
X174786816Y-56601301D01*
X174786811Y-56601307D01*
X174712163Y-56709455D01*
X174612773Y-56853447D01*
X174612769Y-56853454D01*
X174612766Y-56853459D01*
X174470395Y-57124722D01*
X174470395Y-57124723D01*
X174361751Y-57411190D01*
X174361750Y-57411196D01*
X174292356Y-57692740D01*
X174288429Y-57708672D01*
X174261990Y-57926421D01*
X174251500Y-58012812D01*
X174251500Y-58319188D01*
X174288429Y-58623330D01*
X174331248Y-58797052D01*
X174361751Y-58920809D01*
X174416889Y-59066193D01*
X174470392Y-59207270D01*
X174470394Y-59207274D01*
X174470395Y-59207276D01*
X174470395Y-59207277D01*
X174612766Y-59478540D01*
X174612772Y-59478551D01*
X174786811Y-59730692D01*
X174786816Y-59730698D01*
X174989977Y-59960020D01*
X174989979Y-59960022D01*
X175219301Y-60163183D01*
X175219307Y-60163188D01*
X175338567Y-60245506D01*
X175471447Y-60337227D01*
X175742730Y-60479608D01*
X175965621Y-60564139D01*
X176029190Y-60588248D01*
X176029192Y-60588248D01*
X176029196Y-60588250D01*
X176326670Y-60661571D01*
X176561874Y-60690129D01*
X176630809Y-60698500D01*
X176630812Y-60698500D01*
X178119890Y-60698500D01*
X178119892Y-60698500D01*
X178247186Y-60664392D01*
X178361314Y-60598500D01*
X178454500Y-60505314D01*
X178520392Y-60391186D01*
X178554500Y-60263892D01*
X178554500Y-56258500D01*
X178574185Y-56191461D01*
X178626989Y-56145706D01*
X178678500Y-56134500D01*
X181341331Y-56134500D01*
X181341347Y-56134501D01*
X181348943Y-56134501D01*
X181507054Y-56134501D01*
X181507057Y-56134501D01*
X181659785Y-56093577D01*
X181709904Y-56064639D01*
X181796716Y-56014520D01*
X181908520Y-55902716D01*
X181908520Y-55902714D01*
X181918728Y-55892507D01*
X181918730Y-55892504D01*
X183392470Y-54418763D01*
X183453791Y-54385280D01*
X183512238Y-54386670D01*
X183640592Y-54421063D01*
X183811319Y-54436000D01*
X183875999Y-54441659D01*
X183876000Y-54441659D01*
X183876001Y-54441659D01*
X183940681Y-54436000D01*
X184111408Y-54421063D01*
X184239756Y-54386672D01*
X184309605Y-54388335D01*
X184359530Y-54418766D01*
X184657284Y-54716520D01*
X184661431Y-54718914D01*
X184690469Y-54735679D01*
X184716151Y-54755386D01*
X185643406Y-55682641D01*
X185676891Y-55743964D01*
X185671907Y-55813656D01*
X185630035Y-55869589D01*
X185564571Y-55894006D01*
X185498100Y-55880119D01*
X185445274Y-55852394D01*
X185445273Y-55852393D01*
X185445270Y-55852392D01*
X185343131Y-55813656D01*
X185158809Y-55743751D01*
X185087672Y-55726217D01*
X184861330Y-55670429D01*
X184709259Y-55651964D01*
X184557191Y-55633500D01*
X184557188Y-55633500D01*
X184469892Y-55633500D01*
X183199892Y-55633500D01*
X183068108Y-55633500D01*
X182940812Y-55667608D01*
X182826686Y-55733500D01*
X182826683Y-55733502D01*
X182733502Y-55826683D01*
X182733500Y-55826686D01*
X182667608Y-55940812D01*
X182634429Y-56064642D01*
X182633500Y-56068108D01*
X182633500Y-60263892D01*
X182650554Y-60327539D01*
X182667608Y-60391187D01*
X182700554Y-60448250D01*
X182733500Y-60505314D01*
X182826686Y-60598500D01*
X182940814Y-60664392D01*
X183068108Y-60698500D01*
X183068110Y-60698500D01*
X184557191Y-60698500D01*
X184621283Y-60690717D01*
X184861330Y-60661571D01*
X185158804Y-60588250D01*
X185445270Y-60479608D01*
X185716553Y-60337227D01*
X185968695Y-60163186D01*
X186198021Y-59960021D01*
X186401186Y-59730695D01*
X186575227Y-59478553D01*
X186717608Y-59207270D01*
X186826250Y-58920804D01*
X186899571Y-58623330D01*
X186936500Y-58319188D01*
X186936500Y-58012812D01*
X186899571Y-57708670D01*
X186826250Y-57411196D01*
X186717608Y-57124730D01*
X186699162Y-57089585D01*
X186622514Y-56943544D01*
X186575227Y-56853447D01*
X186456233Y-56681054D01*
X186401188Y-56601307D01*
X186401183Y-56601301D01*
X186251291Y-56432108D01*
X186221569Y-56368875D01*
X186230753Y-56299612D01*
X186275925Y-56246308D01*
X186342744Y-56225888D01*
X186352950Y-56226501D01*
X186356943Y-56226501D01*
X186522653Y-56226501D01*
X186522669Y-56226500D01*
X195727331Y-56226500D01*
X195727347Y-56226501D01*
X195734943Y-56226501D01*
X195893054Y-56226501D01*
X195893057Y-56226501D01*
X196045785Y-56185577D01*
X196122128Y-56141500D01*
X196182716Y-56106520D01*
X196294520Y-55994716D01*
X196294520Y-55994714D01*
X196304724Y-55984511D01*
X196304727Y-55984506D01*
X197541820Y-54747413D01*
X197603142Y-54713930D01*
X197672834Y-54718914D01*
X197728767Y-54760786D01*
X197753184Y-54826250D01*
X197753500Y-54835096D01*
X197753500Y-56515330D01*
X197753499Y-56515348D01*
X197753499Y-56681054D01*
X197753498Y-56681054D01*
X197794423Y-56833785D01*
X197805775Y-56853447D01*
X197873477Y-56970712D01*
X197873481Y-56970717D01*
X197992349Y-57089585D01*
X197992355Y-57089590D01*
X204915233Y-64012468D01*
X204948718Y-64073791D01*
X204947327Y-64132241D01*
X204912939Y-64260583D01*
X204912936Y-64260596D01*
X204892341Y-64495999D01*
X204892341Y-64496000D01*
X204912936Y-64731403D01*
X204912938Y-64731413D01*
X204947327Y-64859756D01*
X204945664Y-64929606D01*
X204915233Y-64979530D01*
X203944180Y-65950583D01*
X203882857Y-65984068D01*
X203813165Y-65979084D01*
X203757232Y-65937212D01*
X203732815Y-65871748D01*
X203732499Y-65862928D01*
X203732499Y-64292160D01*
X203721997Y-64158703D01*
X203721996Y-64158699D01*
X203721996Y-64158697D01*
X203666471Y-63938342D01*
X203666470Y-63938339D01*
X203572487Y-63731431D01*
X203572486Y-63731428D01*
X203443069Y-63544624D01*
X203282376Y-63383931D01*
X203202816Y-63328812D01*
X203095574Y-63254515D01*
X203095568Y-63254512D01*
X202888660Y-63160529D01*
X202888657Y-63160528D01*
X202668305Y-63105004D01*
X202668299Y-63105003D01*
X202601569Y-63099751D01*
X202534841Y-63094500D01*
X202534839Y-63094500D01*
X200881167Y-63094500D01*
X200881152Y-63094501D01*
X200747697Y-63105003D01*
X200527342Y-63160528D01*
X200527339Y-63160529D01*
X200320431Y-63254512D01*
X200320425Y-63254515D01*
X200133623Y-63383931D01*
X199972931Y-63544623D01*
X199843515Y-63731425D01*
X199843512Y-63731431D01*
X199749529Y-63938339D01*
X199749528Y-63938342D01*
X199694004Y-64158694D01*
X199694003Y-64158700D01*
X199683500Y-64292153D01*
X199683500Y-65945832D01*
X199683500Y-65945835D01*
X199683501Y-65945840D01*
X199686117Y-65979084D01*
X199694003Y-66079302D01*
X199749528Y-66299657D01*
X199749529Y-66299660D01*
X199843512Y-66506568D01*
X199843515Y-66506574D01*
X199959002Y-66673271D01*
X199972931Y-66693376D01*
X200133624Y-66854069D01*
X200320428Y-66983486D01*
X200436041Y-67036000D01*
X200527339Y-67077470D01*
X200527342Y-67077471D01*
X200747694Y-67132995D01*
X200747697Y-67132995D01*
X200747703Y-67132997D01*
X200881159Y-67143500D01*
X202534840Y-67143499D01*
X202668297Y-67132997D01*
X202668300Y-67132996D01*
X202668302Y-67132996D01*
X202888657Y-67077471D01*
X202888660Y-67077470D01*
X202888661Y-67077469D01*
X202888663Y-67077469D01*
X203095572Y-66983486D01*
X203282376Y-66854069D01*
X203403819Y-66732626D01*
X203465142Y-66699141D01*
X203534834Y-66704125D01*
X203590767Y-66745997D01*
X203615184Y-66811461D01*
X203615500Y-66820307D01*
X203615500Y-77109330D01*
X203615499Y-77109348D01*
X203615499Y-77275054D01*
X203615498Y-77275054D01*
X203656423Y-77427785D01*
X203666644Y-77445488D01*
X203735477Y-77564712D01*
X203735481Y-77564717D01*
X203854349Y-77683585D01*
X203854355Y-77683590D01*
X204915233Y-78744468D01*
X204948718Y-78805791D01*
X204947327Y-78864241D01*
X204912939Y-78992583D01*
X204912936Y-78992596D01*
X204892341Y-79227999D01*
X204892341Y-79228000D01*
X204912936Y-79463403D01*
X204912938Y-79463413D01*
X204947327Y-79591756D01*
X204945664Y-79661606D01*
X204915233Y-79711530D01*
X204464262Y-80162502D01*
X204101286Y-80525478D01*
X204101284Y-80525480D01*
X204065414Y-80561350D01*
X203989480Y-80637283D01*
X203984578Y-80645774D01*
X203982300Y-80649721D01*
X203910423Y-80774215D01*
X203869499Y-80926943D01*
X203869499Y-80926945D01*
X203869499Y-81095046D01*
X203869500Y-81095059D01*
X203869500Y-88196493D01*
X203849815Y-88263532D01*
X203797011Y-88309287D01*
X203727853Y-88319231D01*
X203664297Y-88290206D01*
X203632601Y-88247774D01*
X203599679Y-88175296D01*
X203572486Y-88115428D01*
X203443069Y-87928624D01*
X203282376Y-87767931D01*
X203250495Y-87745844D01*
X203095574Y-87638515D01*
X203095568Y-87638512D01*
X202888660Y-87544529D01*
X202888657Y-87544528D01*
X202668305Y-87489004D01*
X202668299Y-87489003D01*
X202601569Y-87483751D01*
X202534841Y-87478500D01*
X202534839Y-87478500D01*
X200881167Y-87478500D01*
X200881152Y-87478501D01*
X200747697Y-87489003D01*
X200527342Y-87544528D01*
X200527339Y-87544529D01*
X200320431Y-87638512D01*
X200320425Y-87638515D01*
X200133623Y-87767931D01*
X199972931Y-87928623D01*
X199843515Y-88115425D01*
X199843512Y-88115431D01*
X199749529Y-88322339D01*
X199749528Y-88322342D01*
X199694004Y-88542694D01*
X199694003Y-88542700D01*
X199683500Y-88676153D01*
X199683500Y-90329832D01*
X199683501Y-90329847D01*
X199694003Y-90463302D01*
X199749528Y-90683657D01*
X199749529Y-90683660D01*
X199843512Y-90890568D01*
X199843515Y-90890574D01*
X199944815Y-91036793D01*
X199972931Y-91077376D01*
X200133624Y-91238069D01*
X200206809Y-91288771D01*
X200313372Y-91362598D01*
X200320428Y-91367486D01*
X200458510Y-91430206D01*
X200527339Y-91461470D01*
X200527342Y-91461471D01*
X200747694Y-91516995D01*
X200747697Y-91516995D01*
X200747703Y-91516997D01*
X200881159Y-91527500D01*
X202534840Y-91527499D01*
X202668297Y-91516997D01*
X202668300Y-91516996D01*
X202668302Y-91516996D01*
X202888657Y-91461471D01*
X202888660Y-91461470D01*
X202888661Y-91461469D01*
X202888663Y-91461469D01*
X203095572Y-91367486D01*
X203282376Y-91238069D01*
X203443069Y-91077376D01*
X203572486Y-90890572D01*
X203632601Y-90758224D01*
X203678248Y-90705328D01*
X203745247Y-90685506D01*
X203812326Y-90705054D01*
X203858189Y-90757764D01*
X203869500Y-90809506D01*
X203869500Y-92518809D01*
X203849815Y-92585848D01*
X203797011Y-92631603D01*
X203756309Y-92642336D01*
X203751457Y-92642761D01*
X203726595Y-92644936D01*
X203726586Y-92644938D01*
X203498344Y-92706094D01*
X203498335Y-92706098D01*
X203284171Y-92805964D01*
X203284169Y-92805965D01*
X203090600Y-92941503D01*
X202968673Y-93063430D01*
X202907350Y-93096914D01*
X202837658Y-93091930D01*
X202781725Y-93050058D01*
X202764810Y-93019081D01*
X202715797Y-92887671D01*
X202715793Y-92887664D01*
X202629547Y-92772455D01*
X202629544Y-92772452D01*
X202514335Y-92686206D01*
X202514328Y-92686202D01*
X202379482Y-92635908D01*
X202379483Y-92635908D01*
X202319883Y-92629501D01*
X202319881Y-92629500D01*
X202319873Y-92629500D01*
X202319864Y-92629500D01*
X200524129Y-92629500D01*
X200524123Y-92629501D01*
X200464516Y-92635908D01*
X200329671Y-92686202D01*
X200329664Y-92686206D01*
X200214455Y-92772452D01*
X200214452Y-92772455D01*
X200128206Y-92887664D01*
X200128202Y-92887671D01*
X200077908Y-93022517D01*
X200071501Y-93082116D01*
X200071500Y-93082135D01*
X200071500Y-94877870D01*
X200071501Y-94877876D01*
X200077908Y-94937483D01*
X200128202Y-95072328D01*
X200128206Y-95072335D01*
X200214452Y-95187544D01*
X200214455Y-95187547D01*
X200329664Y-95273793D01*
X200329671Y-95273797D01*
X200464517Y-95324091D01*
X200464516Y-95324091D01*
X200471444Y-95324835D01*
X200524127Y-95330500D01*
X202319872Y-95330499D01*
X202379483Y-95324091D01*
X202514331Y-95273796D01*
X202629546Y-95187546D01*
X202715796Y-95072331D01*
X202764810Y-94940916D01*
X202806681Y-94884984D01*
X202872145Y-94860566D01*
X202940418Y-94875417D01*
X202968673Y-94896569D01*
X203090599Y-95018495D01*
X203187384Y-95086265D01*
X203284165Y-95154032D01*
X203284167Y-95154033D01*
X203284170Y-95154035D01*
X203498337Y-95253903D01*
X203726592Y-95315063D01*
X203903034Y-95330500D01*
X203961999Y-95335659D01*
X203962000Y-95335659D01*
X203962001Y-95335659D01*
X204020966Y-95330500D01*
X204197408Y-95315063D01*
X204425663Y-95253903D01*
X204639830Y-95154035D01*
X204833401Y-95018495D01*
X205000495Y-94851401D01*
X205130425Y-94665842D01*
X205185002Y-94622217D01*
X205254500Y-94615023D01*
X205316855Y-94646546D01*
X205333575Y-94665842D01*
X205463500Y-94851395D01*
X205463505Y-94851401D01*
X205630599Y-95018495D01*
X205727384Y-95086265D01*
X205824165Y-95154032D01*
X205824167Y-95154033D01*
X205824170Y-95154035D01*
X206038337Y-95253903D01*
X206266592Y-95315063D01*
X206443034Y-95330500D01*
X206501999Y-95335659D01*
X206502000Y-95335659D01*
X206502001Y-95335659D01*
X206560966Y-95330500D01*
X206737408Y-95315063D01*
X206965663Y-95253903D01*
X207179830Y-95154035D01*
X207373401Y-95018495D01*
X207540495Y-94851401D01*
X207676035Y-94657830D01*
X207775903Y-94443663D01*
X207837063Y-94215408D01*
X207857659Y-93980000D01*
X207837063Y-93744592D01*
X207775903Y-93516337D01*
X207676035Y-93302171D01*
X207619231Y-93221045D01*
X207540494Y-93108597D01*
X207373402Y-92941506D01*
X207373395Y-92941501D01*
X207179834Y-92805967D01*
X207179830Y-92805965D01*
X207179828Y-92805964D01*
X206965663Y-92706097D01*
X206965659Y-92706096D01*
X206965655Y-92706094D01*
X206737413Y-92644938D01*
X206737403Y-92644936D01*
X206502001Y-92624341D01*
X206501999Y-92624341D01*
X206266596Y-92644936D01*
X206266586Y-92644938D01*
X206038344Y-92706094D01*
X206038335Y-92706098D01*
X205824171Y-92805964D01*
X205824169Y-92805965D01*
X205630597Y-92941505D01*
X205463508Y-93108594D01*
X205333574Y-93294160D01*
X205278997Y-93337784D01*
X205209498Y-93344977D01*
X205147144Y-93313455D01*
X205130430Y-93294166D01*
X205092922Y-93240599D01*
X205070597Y-93174393D01*
X205070500Y-93169479D01*
X205070500Y-88288090D01*
X205090185Y-88221051D01*
X205142989Y-88175296D01*
X205212147Y-88165352D01*
X205237834Y-88171908D01*
X205290623Y-88191597D01*
X205290627Y-88191598D01*
X205350155Y-88197999D01*
X205350172Y-88198000D01*
X205998000Y-88198000D01*
X205998000Y-87281012D01*
X206055007Y-87313925D01*
X206182174Y-87348000D01*
X206313826Y-87348000D01*
X206440993Y-87313925D01*
X206498000Y-87281012D01*
X206498000Y-88198000D01*
X207145828Y-88198000D01*
X207145844Y-88197999D01*
X207205372Y-88191598D01*
X207205379Y-88191596D01*
X207340086Y-88141354D01*
X207340093Y-88141350D01*
X207455187Y-88055190D01*
X207455190Y-88055187D01*
X207541350Y-87940093D01*
X207541354Y-87940086D01*
X207591596Y-87805379D01*
X207591598Y-87805372D01*
X207597999Y-87745844D01*
X207598000Y-87745827D01*
X207598000Y-87098000D01*
X206681012Y-87098000D01*
X206713925Y-87040993D01*
X206748000Y-86913826D01*
X206748000Y-86782174D01*
X206713925Y-86655007D01*
X206681012Y-86598000D01*
X207598000Y-86598000D01*
X207598000Y-85950172D01*
X207597999Y-85950155D01*
X207591598Y-85890627D01*
X207591596Y-85890620D01*
X207541354Y-85755913D01*
X207541350Y-85755906D01*
X207455190Y-85640812D01*
X207455187Y-85640809D01*
X207340093Y-85554649D01*
X207340088Y-85554646D01*
X207208528Y-85505577D01*
X207152595Y-85463705D01*
X207128178Y-85398241D01*
X207143030Y-85329968D01*
X207164175Y-85301720D01*
X207286495Y-85179401D01*
X207422035Y-84985830D01*
X207521903Y-84771663D01*
X207583063Y-84543408D01*
X207603659Y-84308000D01*
X207583063Y-84072592D01*
X207521903Y-83844337D01*
X207422035Y-83630171D01*
X207377103Y-83566000D01*
X207286494Y-83436597D01*
X207119402Y-83269506D01*
X207119396Y-83269501D01*
X206933842Y-83139575D01*
X206890217Y-83084998D01*
X206883023Y-83015500D01*
X206914546Y-82953145D01*
X206933842Y-82936425D01*
X206956026Y-82920891D01*
X207119401Y-82806495D01*
X207286495Y-82639401D01*
X207422035Y-82445830D01*
X207521903Y-82231663D01*
X207583063Y-82003408D01*
X207603659Y-81768000D01*
X207583063Y-81532592D01*
X207521903Y-81304337D01*
X207422035Y-81090171D01*
X207418457Y-81085060D01*
X207286494Y-80896597D01*
X207119402Y-80729506D01*
X207119396Y-80729501D01*
X206933842Y-80599575D01*
X206890217Y-80544998D01*
X206883023Y-80475500D01*
X206914546Y-80413145D01*
X206933842Y-80396425D01*
X206985739Y-80360086D01*
X207119401Y-80266495D01*
X207286495Y-80099401D01*
X207422035Y-79905830D01*
X207521903Y-79691663D01*
X207583063Y-79463408D01*
X207603659Y-79228000D01*
X207601399Y-79202174D01*
X207591796Y-79092405D01*
X207583063Y-78992592D01*
X207530143Y-78795091D01*
X207521905Y-78764344D01*
X207521904Y-78764343D01*
X207521903Y-78764337D01*
X207422035Y-78550171D01*
X207377103Y-78486000D01*
X207286494Y-78356597D01*
X207119402Y-78189506D01*
X207119395Y-78189501D01*
X207099989Y-78175913D01*
X207080521Y-78162281D01*
X206925834Y-78053967D01*
X206925830Y-78053965D01*
X206711663Y-77954097D01*
X206711659Y-77954096D01*
X206711655Y-77954094D01*
X206483413Y-77892938D01*
X206483403Y-77892936D01*
X206248001Y-77872341D01*
X206247999Y-77872341D01*
X206012596Y-77892936D01*
X206012583Y-77892939D01*
X205884241Y-77927327D01*
X205814392Y-77925664D01*
X205764468Y-77895233D01*
X204852819Y-76983584D01*
X204819334Y-76922261D01*
X204816500Y-76895903D01*
X204816500Y-73396104D01*
X204836185Y-73329065D01*
X204888989Y-73283310D01*
X204958147Y-73273366D01*
X205021703Y-73302391D01*
X205039769Y-73321796D01*
X205040813Y-73323191D01*
X205155906Y-73409350D01*
X205155913Y-73409354D01*
X205290620Y-73459596D01*
X205290627Y-73459598D01*
X205350155Y-73465999D01*
X205350172Y-73466000D01*
X205998000Y-73466000D01*
X205998000Y-72549012D01*
X206055007Y-72581925D01*
X206182174Y-72616000D01*
X206313826Y-72616000D01*
X206440993Y-72581925D01*
X206498000Y-72549012D01*
X206498000Y-73466000D01*
X207145828Y-73466000D01*
X207145844Y-73465999D01*
X207205372Y-73459598D01*
X207205379Y-73459596D01*
X207340086Y-73409354D01*
X207340093Y-73409350D01*
X207455187Y-73323190D01*
X207455190Y-73323187D01*
X207541350Y-73208093D01*
X207541354Y-73208086D01*
X207591596Y-73073379D01*
X207591598Y-73073372D01*
X207597999Y-73013844D01*
X207598000Y-73013827D01*
X207598000Y-72366000D01*
X206681012Y-72366000D01*
X206713925Y-72308993D01*
X206748000Y-72181826D01*
X206748000Y-72050174D01*
X206713925Y-71923007D01*
X206681012Y-71866000D01*
X207598000Y-71866000D01*
X207598000Y-71218172D01*
X207597999Y-71218155D01*
X207591598Y-71158627D01*
X207591596Y-71158620D01*
X207541354Y-71023913D01*
X207541350Y-71023906D01*
X207455190Y-70908812D01*
X207455187Y-70908809D01*
X207340093Y-70822649D01*
X207340088Y-70822646D01*
X207208528Y-70773577D01*
X207152595Y-70731705D01*
X207128178Y-70666241D01*
X207143030Y-70597968D01*
X207164175Y-70569720D01*
X207286495Y-70447401D01*
X207422035Y-70253830D01*
X207521903Y-70039663D01*
X207583063Y-69811408D01*
X207603659Y-69576000D01*
X207583063Y-69340592D01*
X207521903Y-69112337D01*
X207422035Y-68898171D01*
X207416999Y-68890978D01*
X207286494Y-68704597D01*
X207119402Y-68537506D01*
X207119396Y-68537501D01*
X206933842Y-68407575D01*
X206890217Y-68352998D01*
X206883023Y-68283500D01*
X206914546Y-68221145D01*
X206933842Y-68204425D01*
X207006480Y-68153563D01*
X207119401Y-68074495D01*
X207286495Y-67907401D01*
X207422035Y-67713830D01*
X207521903Y-67499663D01*
X207583063Y-67271408D01*
X207603659Y-67036000D01*
X207583063Y-66800592D01*
X207521903Y-66572337D01*
X207422035Y-66358171D01*
X207381068Y-66299663D01*
X207286494Y-66164597D01*
X207119402Y-65997506D01*
X207119396Y-65997501D01*
X206933842Y-65867575D01*
X206890217Y-65812998D01*
X206883023Y-65743500D01*
X206914546Y-65681145D01*
X206933842Y-65664425D01*
X207016907Y-65606262D01*
X207119401Y-65534495D01*
X207286495Y-65367401D01*
X207422035Y-65173830D01*
X207521903Y-64959663D01*
X207583063Y-64731408D01*
X207603659Y-64496000D01*
X207601399Y-64470174D01*
X207592573Y-64369287D01*
X207583063Y-64260592D01*
X207530143Y-64063091D01*
X207521905Y-64032344D01*
X207521904Y-64032343D01*
X207521903Y-64032337D01*
X207422035Y-63818171D01*
X207374975Y-63750961D01*
X207286494Y-63624597D01*
X207119402Y-63457506D01*
X207119395Y-63457501D01*
X207099989Y-63443913D01*
X207009427Y-63380500D01*
X206925834Y-63321967D01*
X206925830Y-63321965D01*
X206870613Y-63296217D01*
X206711663Y-63222097D01*
X206711659Y-63222096D01*
X206711655Y-63222094D01*
X206483413Y-63160938D01*
X206483403Y-63160936D01*
X206248001Y-63140341D01*
X206247999Y-63140341D01*
X206012596Y-63160936D01*
X206012583Y-63160939D01*
X205884241Y-63195327D01*
X205814392Y-63193664D01*
X205764468Y-63163233D01*
X200767240Y-58166005D01*
X202186493Y-58166005D01*
X202206500Y-58484023D01*
X202206501Y-58484030D01*
X202266214Y-58797056D01*
X202364686Y-59100120D01*
X202364688Y-59100125D01*
X202500364Y-59388449D01*
X202500367Y-59388455D01*
X202671110Y-59657504D01*
X202671113Y-59657508D01*
X202671114Y-59657509D01*
X202874235Y-59903041D01*
X202874238Y-59903044D01*
X203106530Y-60121181D01*
X203106540Y-60121189D01*
X203364324Y-60308480D01*
X203364342Y-60308492D01*
X203643582Y-60462005D01*
X203939867Y-60579313D01*
X203939866Y-60579313D01*
X204248515Y-60658560D01*
X204248519Y-60658561D01*
X204294676Y-60664392D01*
X204564657Y-60698499D01*
X204564666Y-60698499D01*
X204564669Y-60698500D01*
X204564671Y-60698500D01*
X204883329Y-60698500D01*
X204883331Y-60698500D01*
X204883334Y-60698499D01*
X204883342Y-60698499D01*
X205071989Y-60674666D01*
X205199481Y-60658561D01*
X205508133Y-60579313D01*
X205804418Y-60462005D01*
X206083664Y-60308488D01*
X206341468Y-60121183D01*
X206573763Y-59903043D01*
X206776886Y-59657509D01*
X206947634Y-59388453D01*
X207083314Y-59100119D01*
X207181787Y-58797052D01*
X207241498Y-58484034D01*
X207251869Y-58319190D01*
X207261507Y-58166005D01*
X207261507Y-58165994D01*
X207241499Y-57847976D01*
X207241498Y-57847969D01*
X207241498Y-57847966D01*
X207181787Y-57534948D01*
X207083314Y-57231881D01*
X206947634Y-56943547D01*
X206918195Y-56897159D01*
X206776889Y-56674495D01*
X206759401Y-56653355D01*
X206573763Y-56428957D01*
X206341468Y-56210817D01*
X206341465Y-56210815D01*
X206341459Y-56210810D01*
X206083675Y-56023519D01*
X206083657Y-56023507D01*
X205804417Y-55869994D01*
X205804414Y-55869993D01*
X205508130Y-55752686D01*
X205508133Y-55752686D01*
X205199484Y-55673439D01*
X205199471Y-55673437D01*
X204883342Y-55633500D01*
X204883331Y-55633500D01*
X204564669Y-55633500D01*
X204564657Y-55633500D01*
X204248528Y-55673437D01*
X204248515Y-55673439D01*
X203939867Y-55752686D01*
X203643585Y-55869993D01*
X203643582Y-55869994D01*
X203364342Y-56023507D01*
X203364324Y-56023519D01*
X203106540Y-56210810D01*
X203106530Y-56210818D01*
X202874238Y-56428955D01*
X202671110Y-56674495D01*
X202500367Y-56943544D01*
X202500364Y-56943550D01*
X202364688Y-57231874D01*
X202364686Y-57231879D01*
X202266214Y-57534943D01*
X202206501Y-57847969D01*
X202206500Y-57847976D01*
X202186493Y-58165994D01*
X202186493Y-58166005D01*
X200767240Y-58166005D01*
X198990819Y-56389584D01*
X198957334Y-56328261D01*
X198954500Y-56301903D01*
X198954500Y-54375090D01*
X198974185Y-54308051D01*
X199026101Y-54262706D01*
X199031830Y-54260035D01*
X199225401Y-54124495D01*
X199392495Y-53957401D01*
X199522425Y-53771842D01*
X199577002Y-53728217D01*
X199646500Y-53721023D01*
X199708855Y-53752546D01*
X199725575Y-53771842D01*
X199855500Y-53957395D01*
X199855505Y-53957401D01*
X200022599Y-54124495D01*
X200099135Y-54178086D01*
X200216165Y-54260032D01*
X200216167Y-54260033D01*
X200216170Y-54260035D01*
X200430337Y-54359903D01*
X200658592Y-54421063D01*
X200829319Y-54436000D01*
X200893999Y-54441659D01*
X200894000Y-54441659D01*
X200894001Y-54441659D01*
X200958681Y-54436000D01*
X201129408Y-54421063D01*
X201357663Y-54359903D01*
X201571830Y-54260035D01*
X201765401Y-54124495D01*
X201932495Y-53957401D01*
X202062425Y-53771842D01*
X202117002Y-53728217D01*
X202186500Y-53721023D01*
X202248855Y-53752546D01*
X202265575Y-53771842D01*
X202395500Y-53957395D01*
X202395505Y-53957401D01*
X202562599Y-54124495D01*
X202639135Y-54178086D01*
X202756165Y-54260032D01*
X202756167Y-54260033D01*
X202756170Y-54260035D01*
X202970337Y-54359903D01*
X203198592Y-54421063D01*
X203369319Y-54436000D01*
X203433999Y-54441659D01*
X203434000Y-54441659D01*
X203434001Y-54441659D01*
X203498681Y-54436000D01*
X203669408Y-54421063D01*
X203897663Y-54359903D01*
X204111830Y-54260035D01*
X204305401Y-54124495D01*
X204427717Y-54002178D01*
X204489036Y-53968696D01*
X204558728Y-53973680D01*
X204614662Y-54015551D01*
X204631577Y-54046528D01*
X204680646Y-54178088D01*
X204680649Y-54178093D01*
X204766809Y-54293187D01*
X204766812Y-54293190D01*
X204881906Y-54379350D01*
X204881913Y-54379354D01*
X205016620Y-54429596D01*
X205016627Y-54429598D01*
X205076155Y-54435999D01*
X205076172Y-54436000D01*
X205724000Y-54436000D01*
X205724000Y-53519012D01*
X205781007Y-53551925D01*
X205908174Y-53586000D01*
X206039826Y-53586000D01*
X206166993Y-53551925D01*
X206224000Y-53519012D01*
X206224000Y-54436000D01*
X206871828Y-54436000D01*
X206871844Y-54435999D01*
X206931372Y-54429598D01*
X206931379Y-54429596D01*
X207066086Y-54379354D01*
X207066093Y-54379350D01*
X207181187Y-54293190D01*
X207181190Y-54293187D01*
X207267350Y-54178093D01*
X207267354Y-54178086D01*
X207317596Y-54043379D01*
X207317598Y-54043372D01*
X207323999Y-53983844D01*
X207324000Y-53983827D01*
X207324000Y-53336000D01*
X206407012Y-53336000D01*
X206439925Y-53278993D01*
X206474000Y-53151826D01*
X206474000Y-53020174D01*
X206439925Y-52893007D01*
X206407012Y-52836000D01*
X207324000Y-52836000D01*
X207324000Y-52188172D01*
X207323999Y-52188155D01*
X207317598Y-52128627D01*
X207317596Y-52128620D01*
X207267354Y-51993913D01*
X207267350Y-51993906D01*
X207181190Y-51878812D01*
X207181187Y-51878809D01*
X207066093Y-51792649D01*
X207066086Y-51792645D01*
X206931379Y-51742403D01*
X206931372Y-51742401D01*
X206871844Y-51736000D01*
X206224000Y-51736000D01*
X206224000Y-52652988D01*
X206166993Y-52620075D01*
X206039826Y-52586000D01*
X205908174Y-52586000D01*
X205781007Y-52620075D01*
X205724000Y-52652988D01*
X205724000Y-51736000D01*
X205076155Y-51736000D01*
X205016627Y-51742401D01*
X205016620Y-51742403D01*
X204881913Y-51792645D01*
X204881906Y-51792649D01*
X204766812Y-51878809D01*
X204766809Y-51878812D01*
X204680649Y-51993906D01*
X204680645Y-51993913D01*
X204631578Y-52125470D01*
X204589707Y-52181404D01*
X204524242Y-52205821D01*
X204455969Y-52190969D01*
X204427715Y-52169819D01*
X204383366Y-52125470D01*
X204305401Y-52047505D01*
X204305397Y-52047502D01*
X204305396Y-52047501D01*
X204111834Y-51911967D01*
X204111830Y-51911965D01*
X204040727Y-51878809D01*
X203897663Y-51812097D01*
X203897659Y-51812096D01*
X203897655Y-51812094D01*
X203669413Y-51750938D01*
X203669403Y-51750936D01*
X203434001Y-51730341D01*
X203433999Y-51730341D01*
X203198596Y-51750936D01*
X203198586Y-51750938D01*
X202970344Y-51812094D01*
X202970335Y-51812098D01*
X202756171Y-51911964D01*
X202756169Y-51911965D01*
X202562597Y-52047505D01*
X202395505Y-52214597D01*
X202265575Y-52400158D01*
X202210998Y-52443783D01*
X202141500Y-52450977D01*
X202079145Y-52419454D01*
X202062425Y-52400158D01*
X201932494Y-52214597D01*
X201765402Y-52047506D01*
X201765395Y-52047501D01*
X201571834Y-51911967D01*
X201571830Y-51911965D01*
X201500727Y-51878809D01*
X201357663Y-51812097D01*
X201357659Y-51812096D01*
X201357655Y-51812094D01*
X201129413Y-51750938D01*
X201129403Y-51750936D01*
X200894001Y-51730341D01*
X200893999Y-51730341D01*
X200658596Y-51750936D01*
X200658586Y-51750938D01*
X200430344Y-51812094D01*
X200430335Y-51812098D01*
X200216171Y-51911964D01*
X200216169Y-51911965D01*
X200022597Y-52047505D01*
X199855505Y-52214597D01*
X199725575Y-52400158D01*
X199670998Y-52443783D01*
X199601500Y-52450977D01*
X199539145Y-52419454D01*
X199522425Y-52400158D01*
X199392494Y-52214597D01*
X199225402Y-52047506D01*
X199225395Y-52047501D01*
X199031834Y-51911967D01*
X199031830Y-51911965D01*
X198960727Y-51878809D01*
X198817663Y-51812097D01*
X198817659Y-51812096D01*
X198817655Y-51812094D01*
X198589413Y-51750938D01*
X198589403Y-51750936D01*
X198354001Y-51730341D01*
X198353999Y-51730341D01*
X198118596Y-51750936D01*
X198118586Y-51750938D01*
X197890344Y-51812094D01*
X197890335Y-51812098D01*
X197676171Y-51911964D01*
X197676169Y-51911965D01*
X197482597Y-52047505D01*
X197315505Y-52214597D01*
X197179965Y-52408169D01*
X197179964Y-52408171D01*
X197080098Y-52622335D01*
X197080094Y-52622344D01*
X197018938Y-52850586D01*
X197018936Y-52850596D01*
X196998341Y-53085999D01*
X196998341Y-53086000D01*
X197018936Y-53321403D01*
X197018938Y-53321413D01*
X197053327Y-53449756D01*
X197051664Y-53519606D01*
X197021233Y-53569530D01*
X195601584Y-54989181D01*
X195540261Y-55022666D01*
X195513903Y-55025500D01*
X186736097Y-55025500D01*
X186669058Y-55005815D01*
X186648416Y-54989181D01*
X186311584Y-54652349D01*
X186278099Y-54591026D01*
X186283083Y-54521334D01*
X186324955Y-54465401D01*
X186390419Y-54440984D01*
X186410066Y-54441139D01*
X186416000Y-54441659D01*
X186651408Y-54421063D01*
X186879663Y-54359903D01*
X187093830Y-54260035D01*
X187287401Y-54124495D01*
X187454495Y-53957401D01*
X187584425Y-53771842D01*
X187639002Y-53728217D01*
X187708500Y-53721023D01*
X187770855Y-53752546D01*
X187787575Y-53771842D01*
X187917500Y-53957395D01*
X187917505Y-53957401D01*
X188084599Y-54124495D01*
X188161135Y-54178086D01*
X188278165Y-54260032D01*
X188278167Y-54260033D01*
X188278170Y-54260035D01*
X188492337Y-54359903D01*
X188720592Y-54421063D01*
X188891319Y-54436000D01*
X188955999Y-54441659D01*
X188956000Y-54441659D01*
X188956001Y-54441659D01*
X189020681Y-54436000D01*
X189191408Y-54421063D01*
X189419663Y-54359903D01*
X189633830Y-54260035D01*
X189827401Y-54124495D01*
X189949717Y-54002178D01*
X190011036Y-53968696D01*
X190080728Y-53973680D01*
X190136662Y-54015551D01*
X190153577Y-54046528D01*
X190202646Y-54178088D01*
X190202649Y-54178093D01*
X190288809Y-54293187D01*
X190288812Y-54293190D01*
X190403906Y-54379350D01*
X190403913Y-54379354D01*
X190538620Y-54429596D01*
X190538627Y-54429598D01*
X190598155Y-54435999D01*
X190598172Y-54436000D01*
X191246000Y-54436000D01*
X191246000Y-53519012D01*
X191303007Y-53551925D01*
X191430174Y-53586000D01*
X191561826Y-53586000D01*
X191688993Y-53551925D01*
X191746000Y-53519012D01*
X191746000Y-54436000D01*
X192393828Y-54436000D01*
X192393844Y-54435999D01*
X192453372Y-54429598D01*
X192453379Y-54429596D01*
X192588086Y-54379354D01*
X192588093Y-54379350D01*
X192703187Y-54293190D01*
X192703190Y-54293187D01*
X192789350Y-54178093D01*
X192789354Y-54178086D01*
X192839596Y-54043379D01*
X192839598Y-54043372D01*
X192845999Y-53983844D01*
X192846000Y-53983827D01*
X192846000Y-53336000D01*
X191929012Y-53336000D01*
X191961925Y-53278993D01*
X191996000Y-53151826D01*
X191996000Y-53020174D01*
X191961925Y-52893007D01*
X191929012Y-52836000D01*
X192846000Y-52836000D01*
X192846000Y-52188172D01*
X192845999Y-52188155D01*
X192839598Y-52128627D01*
X192839596Y-52128620D01*
X192789354Y-51993913D01*
X192789350Y-51993906D01*
X192703190Y-51878812D01*
X192703187Y-51878809D01*
X192588093Y-51792649D01*
X192588086Y-51792645D01*
X192453379Y-51742403D01*
X192453372Y-51742401D01*
X192393844Y-51736000D01*
X191746000Y-51736000D01*
X191746000Y-52652988D01*
X191688993Y-52620075D01*
X191561826Y-52586000D01*
X191430174Y-52586000D01*
X191303007Y-52620075D01*
X191246000Y-52652988D01*
X191246000Y-51736000D01*
X190598155Y-51736000D01*
X190538627Y-51742401D01*
X190538620Y-51742403D01*
X190403913Y-51792645D01*
X190403906Y-51792649D01*
X190288812Y-51878809D01*
X190288809Y-51878812D01*
X190202649Y-51993906D01*
X190202645Y-51993913D01*
X190153578Y-52125470D01*
X190111707Y-52181404D01*
X190046242Y-52205821D01*
X189977969Y-52190969D01*
X189949715Y-52169819D01*
X189905366Y-52125470D01*
X189827401Y-52047505D01*
X189827397Y-52047502D01*
X189827396Y-52047501D01*
X189633834Y-51911967D01*
X189633830Y-51911965D01*
X189562727Y-51878809D01*
X189419663Y-51812097D01*
X189419659Y-51812096D01*
X189419655Y-51812094D01*
X189191413Y-51750938D01*
X189191403Y-51750936D01*
X188956001Y-51730341D01*
X188955999Y-51730341D01*
X188720596Y-51750936D01*
X188720586Y-51750938D01*
X188492344Y-51812094D01*
X188492335Y-51812098D01*
X188278171Y-51911964D01*
X188278169Y-51911965D01*
X188084597Y-52047505D01*
X187917505Y-52214597D01*
X187787575Y-52400158D01*
X187732998Y-52443783D01*
X187663500Y-52450977D01*
X187601145Y-52419454D01*
X187584425Y-52400158D01*
X187454494Y-52214597D01*
X187287402Y-52047506D01*
X187287395Y-52047501D01*
X187093834Y-51911967D01*
X187093830Y-51911965D01*
X187022727Y-51878809D01*
X186879663Y-51812097D01*
X186879659Y-51812096D01*
X186879655Y-51812094D01*
X186651413Y-51750938D01*
X186651403Y-51750936D01*
X186416001Y-51730341D01*
X186415999Y-51730341D01*
X186180596Y-51750936D01*
X186180586Y-51750938D01*
X185952344Y-51812094D01*
X185952335Y-51812098D01*
X185738171Y-51911964D01*
X185738169Y-51911965D01*
X185544597Y-52047505D01*
X185377505Y-52214597D01*
X185247575Y-52400158D01*
X185192998Y-52443783D01*
X185123500Y-52450977D01*
X185061145Y-52419454D01*
X185044425Y-52400158D01*
X184914494Y-52214597D01*
X184747402Y-52047506D01*
X184747395Y-52047501D01*
X184553834Y-51911967D01*
X184553830Y-51911965D01*
X184482727Y-51878809D01*
X184339663Y-51812097D01*
X184339659Y-51812096D01*
X184339655Y-51812094D01*
X184111413Y-51750938D01*
X184111403Y-51750936D01*
X183876001Y-51730341D01*
X183875999Y-51730341D01*
X183640596Y-51750936D01*
X183640586Y-51750938D01*
X183412344Y-51812094D01*
X183412335Y-51812098D01*
X183198171Y-51911964D01*
X183198169Y-51911965D01*
X183004597Y-52047505D01*
X182837505Y-52214597D01*
X182701965Y-52408169D01*
X182701964Y-52408171D01*
X182602098Y-52622335D01*
X182602094Y-52622344D01*
X182540938Y-52850586D01*
X182540936Y-52850596D01*
X182520341Y-53085999D01*
X182520341Y-53086000D01*
X182540936Y-53321403D01*
X182540938Y-53321413D01*
X182575327Y-53449756D01*
X182573664Y-53519606D01*
X182543233Y-53569530D01*
X181215584Y-54897181D01*
X181154261Y-54930666D01*
X181127903Y-54933500D01*
X172400098Y-54933500D01*
X172333059Y-54913815D01*
X172312417Y-54897181D01*
X172065668Y-54650432D01*
X172032183Y-54589109D01*
X172037167Y-54519417D01*
X172079039Y-54463484D01*
X172144503Y-54439067D01*
X172164157Y-54439223D01*
X172191999Y-54441659D01*
X172192000Y-54441659D01*
X172192001Y-54441659D01*
X172256681Y-54436000D01*
X172427408Y-54421063D01*
X172655663Y-54359903D01*
X172869830Y-54260035D01*
X173063401Y-54124495D01*
X173230495Y-53957401D01*
X173360425Y-53771842D01*
X173415002Y-53728217D01*
X173484500Y-53721023D01*
X173546855Y-53752546D01*
X173563575Y-53771842D01*
X173693500Y-53957395D01*
X173693505Y-53957401D01*
X173860599Y-54124495D01*
X173937135Y-54178086D01*
X174054165Y-54260032D01*
X174054167Y-54260033D01*
X174054170Y-54260035D01*
X174268337Y-54359903D01*
X174496592Y-54421063D01*
X174667319Y-54436000D01*
X174731999Y-54441659D01*
X174732000Y-54441659D01*
X174732001Y-54441659D01*
X174796681Y-54436000D01*
X174967408Y-54421063D01*
X175195663Y-54359903D01*
X175409830Y-54260035D01*
X175603401Y-54124495D01*
X175725717Y-54002178D01*
X175787036Y-53968696D01*
X175856728Y-53973680D01*
X175912662Y-54015551D01*
X175929577Y-54046528D01*
X175978646Y-54178088D01*
X175978649Y-54178093D01*
X176064809Y-54293187D01*
X176064812Y-54293190D01*
X176179906Y-54379350D01*
X176179913Y-54379354D01*
X176314620Y-54429596D01*
X176314627Y-54429598D01*
X176374155Y-54435999D01*
X176374172Y-54436000D01*
X177022000Y-54436000D01*
X177022000Y-53519012D01*
X177079007Y-53551925D01*
X177206174Y-53586000D01*
X177337826Y-53586000D01*
X177464993Y-53551925D01*
X177522000Y-53519012D01*
X177522000Y-54436000D01*
X178169828Y-54436000D01*
X178169844Y-54435999D01*
X178229372Y-54429598D01*
X178229379Y-54429596D01*
X178364086Y-54379354D01*
X178364093Y-54379350D01*
X178479187Y-54293190D01*
X178479190Y-54293187D01*
X178565350Y-54178093D01*
X178565354Y-54178086D01*
X178615596Y-54043379D01*
X178615598Y-54043372D01*
X178621999Y-53983844D01*
X178622000Y-53983827D01*
X178622000Y-53336000D01*
X177705012Y-53336000D01*
X177737925Y-53278993D01*
X177772000Y-53151826D01*
X177772000Y-53020174D01*
X177737925Y-52893007D01*
X177705012Y-52836000D01*
X178622000Y-52836000D01*
X178622000Y-52188172D01*
X178621999Y-52188155D01*
X178615598Y-52128627D01*
X178615596Y-52128620D01*
X178565354Y-51993913D01*
X178565350Y-51993906D01*
X178479190Y-51878812D01*
X178479187Y-51878809D01*
X178364093Y-51792649D01*
X178364086Y-51792645D01*
X178229379Y-51742403D01*
X178229372Y-51742401D01*
X178169844Y-51736000D01*
X177522000Y-51736000D01*
X177522000Y-52652988D01*
X177464993Y-52620075D01*
X177337826Y-52586000D01*
X177206174Y-52586000D01*
X177079007Y-52620075D01*
X177022000Y-52652988D01*
X177022000Y-51736000D01*
X176374155Y-51736000D01*
X176314627Y-51742401D01*
X176314620Y-51742403D01*
X176179913Y-51792645D01*
X176179906Y-51792649D01*
X176064812Y-51878809D01*
X176064809Y-51878812D01*
X175978649Y-51993906D01*
X175978645Y-51993913D01*
X175929578Y-52125470D01*
X175887707Y-52181404D01*
X175822242Y-52205821D01*
X175753969Y-52190969D01*
X175725715Y-52169819D01*
X175681366Y-52125470D01*
X175603401Y-52047505D01*
X175603397Y-52047502D01*
X175603396Y-52047501D01*
X175409834Y-51911967D01*
X175409830Y-51911965D01*
X175338727Y-51878809D01*
X175195663Y-51812097D01*
X175195659Y-51812096D01*
X175195655Y-51812094D01*
X174967413Y-51750938D01*
X174967403Y-51750936D01*
X174732001Y-51730341D01*
X174731999Y-51730341D01*
X174496596Y-51750936D01*
X174496586Y-51750938D01*
X174268344Y-51812094D01*
X174268335Y-51812098D01*
X174054171Y-51911964D01*
X174054169Y-51911965D01*
X173860597Y-52047505D01*
X173693505Y-52214597D01*
X173563575Y-52400158D01*
X173508998Y-52443783D01*
X173439500Y-52450977D01*
X173377145Y-52419454D01*
X173360425Y-52400158D01*
X173230494Y-52214597D01*
X173063402Y-52047506D01*
X173063395Y-52047501D01*
X172869834Y-51911967D01*
X172869830Y-51911965D01*
X172798727Y-51878809D01*
X172655663Y-51812097D01*
X172655659Y-51812096D01*
X172655655Y-51812094D01*
X172427413Y-51750938D01*
X172427403Y-51750936D01*
X172192001Y-51730341D01*
X172191999Y-51730341D01*
X171956596Y-51750936D01*
X171956586Y-51750938D01*
X171728344Y-51812094D01*
X171728335Y-51812098D01*
X171514171Y-51911964D01*
X171514169Y-51911965D01*
X171320597Y-52047505D01*
X171153505Y-52214597D01*
X171023575Y-52400158D01*
X170968998Y-52443783D01*
X170899500Y-52450977D01*
X170837145Y-52419454D01*
X170820425Y-52400158D01*
X170690494Y-52214597D01*
X170523402Y-52047506D01*
X170523395Y-52047501D01*
X170329834Y-51911967D01*
X170329830Y-51911965D01*
X170258727Y-51878809D01*
X170115663Y-51812097D01*
X170115659Y-51812096D01*
X170115655Y-51812094D01*
X169887413Y-51750938D01*
X169887403Y-51750936D01*
X169652001Y-51730341D01*
X169651999Y-51730341D01*
X169416596Y-51750936D01*
X169416586Y-51750938D01*
X169188344Y-51812094D01*
X169188335Y-51812098D01*
X168974171Y-51911964D01*
X168974169Y-51911965D01*
X168780597Y-52047505D01*
X168613505Y-52214597D01*
X168477965Y-52408169D01*
X168477964Y-52408171D01*
X168378098Y-52622335D01*
X168378094Y-52622344D01*
X168316938Y-52850586D01*
X168316936Y-52850596D01*
X168296341Y-53085999D01*
X168296341Y-53086000D01*
X168316936Y-53321403D01*
X168316938Y-53321413D01*
X168351327Y-53449756D01*
X168349664Y-53519606D01*
X168319233Y-53569530D01*
X166899584Y-54989181D01*
X166838261Y-55022666D01*
X166811903Y-55025500D01*
X158014097Y-55025500D01*
X157947058Y-55005815D01*
X157926416Y-54989181D01*
X157587666Y-54650431D01*
X157554181Y-54589108D01*
X157559165Y-54519416D01*
X157601037Y-54463483D01*
X157666501Y-54439066D01*
X157686144Y-54439221D01*
X157714000Y-54441659D01*
X157949408Y-54421063D01*
X158177663Y-54359903D01*
X158391830Y-54260035D01*
X158585401Y-54124495D01*
X158752495Y-53957401D01*
X158882425Y-53771842D01*
X158937002Y-53728217D01*
X159006500Y-53721023D01*
X159068855Y-53752546D01*
X159085575Y-53771842D01*
X159215500Y-53957395D01*
X159215505Y-53957401D01*
X159382599Y-54124495D01*
X159459135Y-54178086D01*
X159576165Y-54260032D01*
X159576167Y-54260033D01*
X159576170Y-54260035D01*
X159790337Y-54359903D01*
X160018592Y-54421063D01*
X160189319Y-54436000D01*
X160253999Y-54441659D01*
X160254000Y-54441659D01*
X160254001Y-54441659D01*
X160318681Y-54436000D01*
X160489408Y-54421063D01*
X160717663Y-54359903D01*
X160931830Y-54260035D01*
X161125401Y-54124495D01*
X161247717Y-54002178D01*
X161309036Y-53968696D01*
X161378728Y-53973680D01*
X161434662Y-54015551D01*
X161451577Y-54046528D01*
X161500646Y-54178088D01*
X161500649Y-54178093D01*
X161586809Y-54293187D01*
X161586812Y-54293190D01*
X161701906Y-54379350D01*
X161701913Y-54379354D01*
X161836620Y-54429596D01*
X161836627Y-54429598D01*
X161896155Y-54435999D01*
X161896172Y-54436000D01*
X162544000Y-54436000D01*
X162544000Y-53519012D01*
X162601007Y-53551925D01*
X162728174Y-53586000D01*
X162859826Y-53586000D01*
X162986993Y-53551925D01*
X163044000Y-53519012D01*
X163044000Y-54436000D01*
X163691828Y-54436000D01*
X163691844Y-54435999D01*
X163751372Y-54429598D01*
X163751379Y-54429596D01*
X163886086Y-54379354D01*
X163886093Y-54379350D01*
X164001187Y-54293190D01*
X164001190Y-54293187D01*
X164087350Y-54178093D01*
X164087354Y-54178086D01*
X164137596Y-54043379D01*
X164137598Y-54043372D01*
X164143999Y-53983844D01*
X164144000Y-53983827D01*
X164144000Y-53336000D01*
X163227012Y-53336000D01*
X163259925Y-53278993D01*
X163294000Y-53151826D01*
X163294000Y-53020174D01*
X163259925Y-52893007D01*
X163227012Y-52836000D01*
X164144000Y-52836000D01*
X164144000Y-52188172D01*
X164143999Y-52188155D01*
X164137598Y-52128627D01*
X164137596Y-52128620D01*
X164087354Y-51993913D01*
X164087350Y-51993906D01*
X164001190Y-51878812D01*
X164001187Y-51878809D01*
X163886093Y-51792649D01*
X163886086Y-51792645D01*
X163751379Y-51742403D01*
X163751372Y-51742401D01*
X163691844Y-51736000D01*
X163044000Y-51736000D01*
X163044000Y-52652988D01*
X162986993Y-52620075D01*
X162859826Y-52586000D01*
X162728174Y-52586000D01*
X162601007Y-52620075D01*
X162544000Y-52652988D01*
X162544000Y-51736000D01*
X161896155Y-51736000D01*
X161836627Y-51742401D01*
X161836620Y-51742403D01*
X161701913Y-51792645D01*
X161701906Y-51792649D01*
X161586812Y-51878809D01*
X161586809Y-51878812D01*
X161500649Y-51993906D01*
X161500645Y-51993913D01*
X161451578Y-52125470D01*
X161409707Y-52181404D01*
X161344242Y-52205821D01*
X161275969Y-52190969D01*
X161247715Y-52169819D01*
X161203366Y-52125470D01*
X161125401Y-52047505D01*
X161125397Y-52047502D01*
X161125396Y-52047501D01*
X160931834Y-51911967D01*
X160931830Y-51911965D01*
X160860727Y-51878809D01*
X160717663Y-51812097D01*
X160717659Y-51812096D01*
X160717655Y-51812094D01*
X160489413Y-51750938D01*
X160489403Y-51750936D01*
X160254001Y-51730341D01*
X160253999Y-51730341D01*
X160018596Y-51750936D01*
X160018586Y-51750938D01*
X159790344Y-51812094D01*
X159790335Y-51812098D01*
X159576171Y-51911964D01*
X159576169Y-51911965D01*
X159382597Y-52047505D01*
X159215505Y-52214597D01*
X159085575Y-52400158D01*
X159030998Y-52443783D01*
X158961500Y-52450977D01*
X158899145Y-52419454D01*
X158882425Y-52400158D01*
X158752494Y-52214597D01*
X158585402Y-52047506D01*
X158585395Y-52047501D01*
X158391834Y-51911967D01*
X158391830Y-51911965D01*
X158320727Y-51878809D01*
X158177663Y-51812097D01*
X158177659Y-51812096D01*
X158177655Y-51812094D01*
X157949413Y-51750938D01*
X157949403Y-51750936D01*
X157714001Y-51730341D01*
X157713999Y-51730341D01*
X157478596Y-51750936D01*
X157478586Y-51750938D01*
X157250344Y-51812094D01*
X157250335Y-51812098D01*
X157036171Y-51911964D01*
X157036169Y-51911965D01*
X156842597Y-52047505D01*
X156675505Y-52214597D01*
X156545575Y-52400158D01*
X156490998Y-52443783D01*
X156421500Y-52450977D01*
X156359145Y-52419454D01*
X156342425Y-52400158D01*
X156212494Y-52214597D01*
X156045402Y-52047506D01*
X156045395Y-52047501D01*
X155851834Y-51911967D01*
X155851830Y-51911965D01*
X155780727Y-51878809D01*
X155637663Y-51812097D01*
X155637659Y-51812096D01*
X155637655Y-51812094D01*
X155409413Y-51750938D01*
X155409403Y-51750936D01*
X155174001Y-51730341D01*
X155173999Y-51730341D01*
X154938596Y-51750936D01*
X154938586Y-51750938D01*
X154710344Y-51812094D01*
X154710335Y-51812098D01*
X154496171Y-51911964D01*
X154496169Y-51911965D01*
X154302597Y-52047505D01*
X154135505Y-52214597D01*
X153999965Y-52408169D01*
X153999964Y-52408171D01*
X153900098Y-52622335D01*
X153900094Y-52622344D01*
X153838938Y-52850586D01*
X153838936Y-52850596D01*
X153818341Y-53085999D01*
X153818341Y-53086000D01*
X153838936Y-53321403D01*
X153838938Y-53321413D01*
X153900094Y-53549655D01*
X153900096Y-53549659D01*
X153900097Y-53549663D01*
X153980004Y-53721023D01*
X153999965Y-53763830D01*
X153999967Y-53763834D01*
X154108281Y-53918521D01*
X154135505Y-53957401D01*
X154302599Y-54124495D01*
X154379135Y-54178086D01*
X154496165Y-54260032D01*
X154496167Y-54260033D01*
X154496170Y-54260035D01*
X154710337Y-54359903D01*
X154938592Y-54421063D01*
X155109319Y-54436000D01*
X155173999Y-54441659D01*
X155174000Y-54441659D01*
X155174001Y-54441659D01*
X155238681Y-54436000D01*
X155409408Y-54421063D01*
X155537757Y-54386672D01*
X155607606Y-54388335D01*
X155657531Y-54418766D01*
X156688891Y-55450126D01*
X156722376Y-55511449D01*
X156717392Y-55581141D01*
X156675520Y-55637074D01*
X156610056Y-55661491D01*
X156585669Y-55660829D01*
X156369342Y-55633500D01*
X156369331Y-55633500D01*
X156050669Y-55633500D01*
X156050657Y-55633500D01*
X155734528Y-55673437D01*
X155734515Y-55673439D01*
X155425867Y-55752686D01*
X155129585Y-55869993D01*
X155129582Y-55869994D01*
X154850342Y-56023507D01*
X154850324Y-56023519D01*
X154592540Y-56210810D01*
X154592530Y-56210818D01*
X154360238Y-56428955D01*
X154157110Y-56674495D01*
X153986367Y-56943544D01*
X153986364Y-56943550D01*
X153850688Y-57231874D01*
X153850686Y-57231879D01*
X153752214Y-57534943D01*
X153692501Y-57847969D01*
X153692500Y-57847976D01*
X153672493Y-58165994D01*
X153672493Y-58166005D01*
X152900500Y-58166005D01*
X152900500Y-50916500D01*
X152920185Y-50849461D01*
X152972989Y-50803706D01*
X153024500Y-50792500D01*
X208163500Y-50792500D01*
X208230539Y-50812185D01*
G37*
%TD.AperFunction*%
%TD*%
M02*
