%TF.GenerationSoftware,KiCad,Pcbnew,8.0.0*%
%TF.CreationDate,2025-02-12T14:58:41-08:00*%
%TF.ProjectId,HempCrete,48656d70-4372-4657-9465-2e6b69636164,rev?*%
%TF.SameCoordinates,Original*%
%TF.FileFunction,Legend,Top*%
%TF.FilePolarity,Positive*%
%FSLAX46Y46*%
G04 Gerber Fmt 4.6, Leading zero omitted, Abs format (unit mm)*
G04 Created by KiCad (PCBNEW 8.0.0) date 2025-02-12 14:58:41*
%MOMM*%
%LPD*%
G01*
G04 APERTURE LIST*
%ADD10C,0.150000*%
%ADD11C,0.100000*%
%ADD12C,0.120000*%
%ADD13C,0.050000*%
G04 APERTURE END LIST*
D10*
X164578819Y-53419333D02*
X165293104Y-53419333D01*
X165293104Y-53419333D02*
X165435961Y-53466952D01*
X165435961Y-53466952D02*
X165531200Y-53562190D01*
X165531200Y-53562190D02*
X165578819Y-53705047D01*
X165578819Y-53705047D02*
X165578819Y-53800285D01*
X165007390Y-52800285D02*
X164959771Y-52895523D01*
X164959771Y-52895523D02*
X164912152Y-52943142D01*
X164912152Y-52943142D02*
X164816914Y-52990761D01*
X164816914Y-52990761D02*
X164769295Y-52990761D01*
X164769295Y-52990761D02*
X164674057Y-52943142D01*
X164674057Y-52943142D02*
X164626438Y-52895523D01*
X164626438Y-52895523D02*
X164578819Y-52800285D01*
X164578819Y-52800285D02*
X164578819Y-52609809D01*
X164578819Y-52609809D02*
X164626438Y-52514571D01*
X164626438Y-52514571D02*
X164674057Y-52466952D01*
X164674057Y-52466952D02*
X164769295Y-52419333D01*
X164769295Y-52419333D02*
X164816914Y-52419333D01*
X164816914Y-52419333D02*
X164912152Y-52466952D01*
X164912152Y-52466952D02*
X164959771Y-52514571D01*
X164959771Y-52514571D02*
X165007390Y-52609809D01*
X165007390Y-52609809D02*
X165007390Y-52800285D01*
X165007390Y-52800285D02*
X165055009Y-52895523D01*
X165055009Y-52895523D02*
X165102628Y-52943142D01*
X165102628Y-52943142D02*
X165197866Y-52990761D01*
X165197866Y-52990761D02*
X165388342Y-52990761D01*
X165388342Y-52990761D02*
X165483580Y-52943142D01*
X165483580Y-52943142D02*
X165531200Y-52895523D01*
X165531200Y-52895523D02*
X165578819Y-52800285D01*
X165578819Y-52800285D02*
X165578819Y-52609809D01*
X165578819Y-52609809D02*
X165531200Y-52514571D01*
X165531200Y-52514571D02*
X165483580Y-52466952D01*
X165483580Y-52466952D02*
X165388342Y-52419333D01*
X165388342Y-52419333D02*
X165197866Y-52419333D01*
X165197866Y-52419333D02*
X165102628Y-52466952D01*
X165102628Y-52466952D02*
X165055009Y-52514571D01*
X165055009Y-52514571D02*
X165007390Y-52609809D01*
X159712819Y-59150094D02*
X158712819Y-59150094D01*
X158712819Y-59150094D02*
X159427104Y-58816761D01*
X159427104Y-58816761D02*
X158712819Y-58483428D01*
X158712819Y-58483428D02*
X159712819Y-58483428D01*
X159712819Y-58007237D02*
X158712819Y-58007237D01*
X158712819Y-58007237D02*
X159712819Y-57435809D01*
X159712819Y-57435809D02*
X158712819Y-57435809D01*
X158712819Y-57102475D02*
X158712819Y-56531047D01*
X159712819Y-56816761D02*
X158712819Y-56816761D01*
X159966819Y-123666094D02*
X158966819Y-123666094D01*
X158966819Y-123666094D02*
X159681104Y-123332761D01*
X159681104Y-123332761D02*
X158966819Y-122999428D01*
X158966819Y-122999428D02*
X159966819Y-122999428D01*
X159966819Y-122523237D02*
X158966819Y-122523237D01*
X158966819Y-122523237D02*
X159966819Y-121951809D01*
X159966819Y-121951809D02*
X158966819Y-121951809D01*
X158966819Y-121618475D02*
X158966819Y-121047047D01*
X159966819Y-121332761D02*
X158966819Y-121332761D01*
X202130819Y-124428094D02*
X201130819Y-124428094D01*
X201130819Y-124428094D02*
X201845104Y-124094761D01*
X201845104Y-124094761D02*
X201130819Y-123761428D01*
X201130819Y-123761428D02*
X202130819Y-123761428D01*
X202130819Y-123285237D02*
X201130819Y-123285237D01*
X201130819Y-123285237D02*
X202130819Y-122713809D01*
X202130819Y-122713809D02*
X201130819Y-122713809D01*
X201130819Y-122380475D02*
X201130819Y-121809047D01*
X202130819Y-122094761D02*
X201130819Y-122094761D01*
X202130819Y-59658094D02*
X201130819Y-59658094D01*
X201130819Y-59658094D02*
X201845104Y-59324761D01*
X201845104Y-59324761D02*
X201130819Y-58991428D01*
X201130819Y-58991428D02*
X202130819Y-58991428D01*
X202130819Y-58515237D02*
X201130819Y-58515237D01*
X201130819Y-58515237D02*
X202130819Y-57943809D01*
X202130819Y-57943809D02*
X201130819Y-57943809D01*
X201130819Y-57610475D02*
X201130819Y-57039047D01*
X202130819Y-57324761D02*
X201130819Y-57324761D01*
X199499200Y-95313332D02*
X199546819Y-95170475D01*
X199546819Y-95170475D02*
X199546819Y-94932380D01*
X199546819Y-94932380D02*
X199499200Y-94837142D01*
X199499200Y-94837142D02*
X199451580Y-94789523D01*
X199451580Y-94789523D02*
X199356342Y-94741904D01*
X199356342Y-94741904D02*
X199261104Y-94741904D01*
X199261104Y-94741904D02*
X199165866Y-94789523D01*
X199165866Y-94789523D02*
X199118247Y-94837142D01*
X199118247Y-94837142D02*
X199070628Y-94932380D01*
X199070628Y-94932380D02*
X199023009Y-95122856D01*
X199023009Y-95122856D02*
X198975390Y-95218094D01*
X198975390Y-95218094D02*
X198927771Y-95265713D01*
X198927771Y-95265713D02*
X198832533Y-95313332D01*
X198832533Y-95313332D02*
X198737295Y-95313332D01*
X198737295Y-95313332D02*
X198642057Y-95265713D01*
X198642057Y-95265713D02*
X198594438Y-95218094D01*
X198594438Y-95218094D02*
X198546819Y-95122856D01*
X198546819Y-95122856D02*
X198546819Y-94884761D01*
X198546819Y-94884761D02*
X198594438Y-94741904D01*
X198546819Y-94408570D02*
X199546819Y-94170475D01*
X199546819Y-94170475D02*
X198832533Y-93979999D01*
X198832533Y-93979999D02*
X199546819Y-93789523D01*
X199546819Y-93789523D02*
X198546819Y-93551428D01*
X199546819Y-92646666D02*
X199546819Y-93218094D01*
X199546819Y-92932380D02*
X198546819Y-92932380D01*
X198546819Y-92932380D02*
X198689676Y-93027618D01*
X198689676Y-93027618D02*
X198784914Y-93122856D01*
X198784914Y-93122856D02*
X198832533Y-93218094D01*
X207758819Y-53419333D02*
X208473104Y-53419333D01*
X208473104Y-53419333D02*
X208615961Y-53466952D01*
X208615961Y-53466952D02*
X208711200Y-53562190D01*
X208711200Y-53562190D02*
X208758819Y-53705047D01*
X208758819Y-53705047D02*
X208758819Y-53800285D01*
X207758819Y-52466952D02*
X207758819Y-52943142D01*
X207758819Y-52943142D02*
X208235009Y-52990761D01*
X208235009Y-52990761D02*
X208187390Y-52943142D01*
X208187390Y-52943142D02*
X208139771Y-52847904D01*
X208139771Y-52847904D02*
X208139771Y-52609809D01*
X208139771Y-52609809D02*
X208187390Y-52514571D01*
X208187390Y-52514571D02*
X208235009Y-52466952D01*
X208235009Y-52466952D02*
X208330247Y-52419333D01*
X208330247Y-52419333D02*
X208568342Y-52419333D01*
X208568342Y-52419333D02*
X208663580Y-52466952D01*
X208663580Y-52466952D02*
X208711200Y-52514571D01*
X208711200Y-52514571D02*
X208758819Y-52609809D01*
X208758819Y-52609809D02*
X208758819Y-52847904D01*
X208758819Y-52847904D02*
X208711200Y-52943142D01*
X208711200Y-52943142D02*
X208663580Y-52990761D01*
X205914666Y-73900819D02*
X205914666Y-74615104D01*
X205914666Y-74615104D02*
X205867047Y-74757961D01*
X205867047Y-74757961D02*
X205771809Y-74853200D01*
X205771809Y-74853200D02*
X205628952Y-74900819D01*
X205628952Y-74900819D02*
X205533714Y-74900819D01*
X206819428Y-74234152D02*
X206819428Y-74900819D01*
X206581333Y-73853200D02*
X206343238Y-74567485D01*
X206343238Y-74567485D02*
X206962285Y-74567485D01*
X154860666Y-61660819D02*
X154860666Y-62375104D01*
X154860666Y-62375104D02*
X154813047Y-62517961D01*
X154813047Y-62517961D02*
X154717809Y-62613200D01*
X154717809Y-62613200D02*
X154574952Y-62660819D01*
X154574952Y-62660819D02*
X154479714Y-62660819D01*
X155860666Y-62660819D02*
X155289238Y-62660819D01*
X155574952Y-62660819D02*
X155574952Y-61660819D01*
X155574952Y-61660819D02*
X155479714Y-61803676D01*
X155479714Y-61803676D02*
X155384476Y-61898914D01*
X155384476Y-61898914D02*
X155289238Y-61946533D01*
X205914666Y-88632819D02*
X205914666Y-89347104D01*
X205914666Y-89347104D02*
X205867047Y-89489961D01*
X205867047Y-89489961D02*
X205771809Y-89585200D01*
X205771809Y-89585200D02*
X205628952Y-89632819D01*
X205628952Y-89632819D02*
X205533714Y-89632819D01*
X206295619Y-88632819D02*
X206914666Y-88632819D01*
X206914666Y-88632819D02*
X206581333Y-89013771D01*
X206581333Y-89013771D02*
X206724190Y-89013771D01*
X206724190Y-89013771D02*
X206819428Y-89061390D01*
X206819428Y-89061390D02*
X206867047Y-89109009D01*
X206867047Y-89109009D02*
X206914666Y-89204247D01*
X206914666Y-89204247D02*
X206914666Y-89442342D01*
X206914666Y-89442342D02*
X206867047Y-89537580D01*
X206867047Y-89537580D02*
X206819428Y-89585200D01*
X206819428Y-89585200D02*
X206724190Y-89632819D01*
X206724190Y-89632819D02*
X206438476Y-89632819D01*
X206438476Y-89632819D02*
X206343238Y-89585200D01*
X206343238Y-89585200D02*
X206295619Y-89537580D01*
X187968428Y-61779819D02*
X188158904Y-61779819D01*
X188158904Y-61779819D02*
X188254142Y-61827438D01*
X188254142Y-61827438D02*
X188349380Y-61922676D01*
X188349380Y-61922676D02*
X188396999Y-62113152D01*
X188396999Y-62113152D02*
X188396999Y-62446485D01*
X188396999Y-62446485D02*
X188349380Y-62636961D01*
X188349380Y-62636961D02*
X188254142Y-62732200D01*
X188254142Y-62732200D02*
X188158904Y-62779819D01*
X188158904Y-62779819D02*
X187968428Y-62779819D01*
X187968428Y-62779819D02*
X187873190Y-62732200D01*
X187873190Y-62732200D02*
X187777952Y-62636961D01*
X187777952Y-62636961D02*
X187730333Y-62446485D01*
X187730333Y-62446485D02*
X187730333Y-62113152D01*
X187730333Y-62113152D02*
X187777952Y-61922676D01*
X187777952Y-61922676D02*
X187873190Y-61827438D01*
X187873190Y-61827438D02*
X187968428Y-61779819D01*
X189301761Y-62779819D02*
X188825571Y-62779819D01*
X188825571Y-62779819D02*
X188825571Y-61779819D01*
X189635095Y-62256009D02*
X189968428Y-62256009D01*
X190111285Y-62779819D02*
X189635095Y-62779819D01*
X189635095Y-62779819D02*
X189635095Y-61779819D01*
X189635095Y-61779819D02*
X190111285Y-61779819D01*
X190539857Y-62779819D02*
X190539857Y-61779819D01*
X190539857Y-61779819D02*
X190777952Y-61779819D01*
X190777952Y-61779819D02*
X190920809Y-61827438D01*
X190920809Y-61827438D02*
X191016047Y-61922676D01*
X191016047Y-61922676D02*
X191063666Y-62017914D01*
X191063666Y-62017914D02*
X191111285Y-62208390D01*
X191111285Y-62208390D02*
X191111285Y-62351247D01*
X191111285Y-62351247D02*
X191063666Y-62541723D01*
X191063666Y-62541723D02*
X191016047Y-62636961D01*
X191016047Y-62636961D02*
X190920809Y-62732200D01*
X190920809Y-62732200D02*
X190777952Y-62779819D01*
X190777952Y-62779819D02*
X190539857Y-62779819D01*
X192063666Y-62779819D02*
X191492238Y-62779819D01*
X191777952Y-62779819D02*
X191777952Y-61779819D01*
X191777952Y-61779819D02*
X191682714Y-61922676D01*
X191682714Y-61922676D02*
X191587476Y-62017914D01*
X191587476Y-62017914D02*
X191492238Y-62065533D01*
X154860666Y-76392819D02*
X154860666Y-77107104D01*
X154860666Y-77107104D02*
X154813047Y-77249961D01*
X154813047Y-77249961D02*
X154717809Y-77345200D01*
X154717809Y-77345200D02*
X154574952Y-77392819D01*
X154574952Y-77392819D02*
X154479714Y-77392819D01*
X155289238Y-76488057D02*
X155336857Y-76440438D01*
X155336857Y-76440438D02*
X155432095Y-76392819D01*
X155432095Y-76392819D02*
X155670190Y-76392819D01*
X155670190Y-76392819D02*
X155765428Y-76440438D01*
X155765428Y-76440438D02*
X155813047Y-76488057D01*
X155813047Y-76488057D02*
X155860666Y-76583295D01*
X155860666Y-76583295D02*
X155860666Y-76678533D01*
X155860666Y-76678533D02*
X155813047Y-76821390D01*
X155813047Y-76821390D02*
X155241619Y-77392819D01*
X155241619Y-77392819D02*
X155860666Y-77392819D01*
D11*
X165338286Y-95020219D02*
X165338286Y-94020219D01*
X165338286Y-94020219D02*
X165671619Y-94734504D01*
X165671619Y-94734504D02*
X166004952Y-94020219D01*
X166004952Y-94020219D02*
X166004952Y-95020219D01*
X166385905Y-94020219D02*
X167052571Y-95020219D01*
X167052571Y-94020219D02*
X166385905Y-95020219D01*
X167957333Y-95020219D02*
X167385905Y-95020219D01*
X167671619Y-95020219D02*
X167671619Y-94020219D01*
X167671619Y-94020219D02*
X167576381Y-94163076D01*
X167576381Y-94163076D02*
X167481143Y-94258314D01*
X167481143Y-94258314D02*
X167385905Y-94305933D01*
D10*
X179056819Y-53419333D02*
X179771104Y-53419333D01*
X179771104Y-53419333D02*
X179913961Y-53466952D01*
X179913961Y-53466952D02*
X180009200Y-53562190D01*
X180009200Y-53562190D02*
X180056819Y-53705047D01*
X180056819Y-53705047D02*
X180056819Y-53800285D01*
X179056819Y-53038380D02*
X179056819Y-52371714D01*
X179056819Y-52371714D02*
X180056819Y-52800285D01*
X193280819Y-53419333D02*
X193995104Y-53419333D01*
X193995104Y-53419333D02*
X194137961Y-53466952D01*
X194137961Y-53466952D02*
X194233200Y-53562190D01*
X194233200Y-53562190D02*
X194280819Y-53705047D01*
X194280819Y-53705047D02*
X194280819Y-53800285D01*
X193280819Y-52514571D02*
X193280819Y-52705047D01*
X193280819Y-52705047D02*
X193328438Y-52800285D01*
X193328438Y-52800285D02*
X193376057Y-52847904D01*
X193376057Y-52847904D02*
X193518914Y-52943142D01*
X193518914Y-52943142D02*
X193709390Y-52990761D01*
X193709390Y-52990761D02*
X194090342Y-52990761D01*
X194090342Y-52990761D02*
X194185580Y-52943142D01*
X194185580Y-52943142D02*
X194233200Y-52895523D01*
X194233200Y-52895523D02*
X194280819Y-52800285D01*
X194280819Y-52800285D02*
X194280819Y-52609809D01*
X194280819Y-52609809D02*
X194233200Y-52514571D01*
X194233200Y-52514571D02*
X194185580Y-52466952D01*
X194185580Y-52466952D02*
X194090342Y-52419333D01*
X194090342Y-52419333D02*
X193852247Y-52419333D01*
X193852247Y-52419333D02*
X193757009Y-52466952D01*
X193757009Y-52466952D02*
X193709390Y-52514571D01*
X193709390Y-52514571D02*
X193661771Y-52609809D01*
X193661771Y-52609809D02*
X193661771Y-52800285D01*
X193661771Y-52800285D02*
X193709390Y-52895523D01*
X193709390Y-52895523D02*
X193757009Y-52943142D01*
X193757009Y-52943142D02*
X193852247Y-52990761D01*
D11*
X195699523Y-120075607D02*
X195366190Y-120075607D01*
X195366190Y-120599417D02*
X195366190Y-119599417D01*
X195366190Y-119599417D02*
X195842380Y-119599417D01*
X196604285Y-120551798D02*
X196509047Y-120599417D01*
X196509047Y-120599417D02*
X196318571Y-120599417D01*
X196318571Y-120599417D02*
X196223333Y-120551798D01*
X196223333Y-120551798D02*
X196175714Y-120456559D01*
X196175714Y-120456559D02*
X196175714Y-120075607D01*
X196175714Y-120075607D02*
X196223333Y-119980369D01*
X196223333Y-119980369D02*
X196318571Y-119932750D01*
X196318571Y-119932750D02*
X196509047Y-119932750D01*
X196509047Y-119932750D02*
X196604285Y-119980369D01*
X196604285Y-119980369D02*
X196651904Y-120075607D01*
X196651904Y-120075607D02*
X196651904Y-120170845D01*
X196651904Y-120170845D02*
X196175714Y-120266083D01*
X197509047Y-120599417D02*
X197509047Y-120075607D01*
X197509047Y-120075607D02*
X197461428Y-119980369D01*
X197461428Y-119980369D02*
X197366190Y-119932750D01*
X197366190Y-119932750D02*
X197175714Y-119932750D01*
X197175714Y-119932750D02*
X197080476Y-119980369D01*
X197509047Y-120551798D02*
X197413809Y-120599417D01*
X197413809Y-120599417D02*
X197175714Y-120599417D01*
X197175714Y-120599417D02*
X197080476Y-120551798D01*
X197080476Y-120551798D02*
X197032857Y-120456559D01*
X197032857Y-120456559D02*
X197032857Y-120361321D01*
X197032857Y-120361321D02*
X197080476Y-120266083D01*
X197080476Y-120266083D02*
X197175714Y-120218464D01*
X197175714Y-120218464D02*
X197413809Y-120218464D01*
X197413809Y-120218464D02*
X197509047Y-120170845D01*
X197842381Y-119932750D02*
X198223333Y-119932750D01*
X197985238Y-119599417D02*
X197985238Y-120456559D01*
X197985238Y-120456559D02*
X198032857Y-120551798D01*
X198032857Y-120551798D02*
X198128095Y-120599417D01*
X198128095Y-120599417D02*
X198223333Y-120599417D01*
X198556667Y-120599417D02*
X198556667Y-119599417D01*
X198985238Y-120599417D02*
X198985238Y-120075607D01*
X198985238Y-120075607D02*
X198937619Y-119980369D01*
X198937619Y-119980369D02*
X198842381Y-119932750D01*
X198842381Y-119932750D02*
X198699524Y-119932750D01*
X198699524Y-119932750D02*
X198604286Y-119980369D01*
X198604286Y-119980369D02*
X198556667Y-120027988D01*
X199842381Y-120551798D02*
X199747143Y-120599417D01*
X199747143Y-120599417D02*
X199556667Y-120599417D01*
X199556667Y-120599417D02*
X199461429Y-120551798D01*
X199461429Y-120551798D02*
X199413810Y-120456559D01*
X199413810Y-120456559D02*
X199413810Y-120075607D01*
X199413810Y-120075607D02*
X199461429Y-119980369D01*
X199461429Y-119980369D02*
X199556667Y-119932750D01*
X199556667Y-119932750D02*
X199747143Y-119932750D01*
X199747143Y-119932750D02*
X199842381Y-119980369D01*
X199842381Y-119980369D02*
X199890000Y-120075607D01*
X199890000Y-120075607D02*
X199890000Y-120170845D01*
X199890000Y-120170845D02*
X199413810Y-120266083D01*
X200318572Y-120599417D02*
X200318572Y-119932750D01*
X200318572Y-120123226D02*
X200366191Y-120027988D01*
X200366191Y-120027988D02*
X200413810Y-119980369D01*
X200413810Y-119980369D02*
X200509048Y-119932750D01*
X200509048Y-119932750D02*
X200604286Y-119932750D01*
X201509048Y-120599417D02*
X201175715Y-120123226D01*
X200937620Y-120599417D02*
X200937620Y-119599417D01*
X200937620Y-119599417D02*
X201318572Y-119599417D01*
X201318572Y-119599417D02*
X201413810Y-119647036D01*
X201413810Y-119647036D02*
X201461429Y-119694655D01*
X201461429Y-119694655D02*
X201509048Y-119789893D01*
X201509048Y-119789893D02*
X201509048Y-119932750D01*
X201509048Y-119932750D02*
X201461429Y-120027988D01*
X201461429Y-120027988D02*
X201413810Y-120075607D01*
X201413810Y-120075607D02*
X201318572Y-120123226D01*
X201318572Y-120123226D02*
X200937620Y-120123226D01*
X201937620Y-120599417D02*
X201937620Y-119599417D01*
X201937620Y-119599417D02*
X202318572Y-119599417D01*
X202318572Y-119599417D02*
X202413810Y-119647036D01*
X202413810Y-119647036D02*
X202461429Y-119694655D01*
X202461429Y-119694655D02*
X202509048Y-119789893D01*
X202509048Y-119789893D02*
X202509048Y-119932750D01*
X202509048Y-119932750D02*
X202461429Y-120027988D01*
X202461429Y-120027988D02*
X202413810Y-120075607D01*
X202413810Y-120075607D02*
X202318572Y-120123226D01*
X202318572Y-120123226D02*
X201937620Y-120123226D01*
X203461429Y-120599417D02*
X202890001Y-120599417D01*
X203175715Y-120599417D02*
X203175715Y-119599417D01*
X203175715Y-119599417D02*
X203080477Y-119742274D01*
X203080477Y-119742274D02*
X202985239Y-119837512D01*
X202985239Y-119837512D02*
X202890001Y-119885131D01*
D12*
%TO.C,J8*%
X153844000Y-51756000D02*
X153844000Y-54416000D01*
X161524000Y-51756000D02*
X153844000Y-51756000D01*
X161524000Y-51756000D02*
X161524000Y-54416000D01*
X161524000Y-54416000D02*
X153844000Y-54416000D01*
X162794000Y-51756000D02*
X164124000Y-51756000D01*
X164124000Y-51756000D02*
X164124000Y-53086000D01*
%TO.C,SW1*%
X202692000Y-92650000D02*
X207832000Y-92650000D01*
X207832000Y-95310000D02*
X207832000Y-92650000D01*
X202692000Y-95310000D02*
X202692000Y-92650000D01*
X202692000Y-95310000D02*
X207832000Y-95310000D01*
X201422000Y-95310000D02*
X200092000Y-95310000D01*
X200092000Y-95310000D02*
X200092000Y-93980000D01*
%TO.C,J5*%
X207304000Y-51756000D02*
X207304000Y-53086000D01*
X205974000Y-51756000D02*
X207304000Y-51756000D01*
X204704000Y-54416000D02*
X197024000Y-54416000D01*
X204704000Y-51756000D02*
X204704000Y-54416000D01*
X204704000Y-51756000D02*
X197024000Y-51756000D01*
X197024000Y-51756000D02*
X197024000Y-54416000D01*
%TO.C,J4*%
X207578000Y-73446000D02*
X206248000Y-73446000D01*
X207578000Y-72116000D02*
X207578000Y-73446000D01*
X207578000Y-70846000D02*
X207578000Y-63166000D01*
X207578000Y-70846000D02*
X204918000Y-70846000D01*
X207578000Y-63166000D02*
X204918000Y-63166000D01*
X204918000Y-70846000D02*
X204918000Y-63166000D01*
%TO.C,J1*%
X156524000Y-65806000D02*
X156524000Y-73486000D01*
X153864000Y-73486000D02*
X156524000Y-73486000D01*
X153864000Y-65806000D02*
X156524000Y-65806000D01*
X153864000Y-65806000D02*
X153864000Y-73486000D01*
X153864000Y-64536000D02*
X153864000Y-63206000D01*
X153864000Y-63206000D02*
X155194000Y-63206000D01*
%TO.C,J3*%
X207578000Y-88178000D02*
X206248000Y-88178000D01*
X207578000Y-86848000D02*
X207578000Y-88178000D01*
X207578000Y-85578000D02*
X207578000Y-77898000D01*
X207578000Y-85578000D02*
X204918000Y-85578000D01*
X207578000Y-77898000D02*
X204918000Y-77898000D01*
X204918000Y-85578000D02*
X204918000Y-77898000D01*
%TO.C,OLED1*%
X203486000Y-63341000D02*
X176308000Y-63341000D01*
X176308000Y-91281000D01*
X203486000Y-91281000D01*
X203486000Y-63341000D01*
%TO.C,J2*%
X156524000Y-80538000D02*
X156524000Y-88218000D01*
X153864000Y-88218000D02*
X156524000Y-88218000D01*
X153864000Y-80538000D02*
X156524000Y-80538000D01*
X153864000Y-80538000D02*
X153864000Y-88218000D01*
X153864000Y-79268000D02*
X153864000Y-77938000D01*
X153864000Y-77938000D02*
X155194000Y-77938000D01*
%TO.C,MX1*%
D13*
X157734000Y-63246000D02*
X175514000Y-63246000D01*
X175514000Y-93726000D01*
X157734000Y-93726000D01*
X157734000Y-63246000D01*
D12*
%TO.C,J7*%
X178602000Y-51756000D02*
X178602000Y-53086000D01*
X177272000Y-51756000D02*
X178602000Y-51756000D01*
X176002000Y-54416000D02*
X168322000Y-54416000D01*
X176002000Y-51756000D02*
X176002000Y-54416000D01*
X176002000Y-51756000D02*
X168322000Y-51756000D01*
X168322000Y-51756000D02*
X168322000Y-54416000D01*
%TO.C,J6*%
X192826000Y-51756000D02*
X192826000Y-53086000D01*
X191496000Y-51756000D02*
X192826000Y-51756000D01*
X190226000Y-54416000D02*
X182546000Y-54416000D01*
X190226000Y-51756000D02*
X190226000Y-54416000D01*
X190226000Y-51756000D02*
X182546000Y-51756000D01*
X182546000Y-51756000D02*
X182546000Y-54416000D01*
D11*
%TO.C,FeatherRP1*%
X208534000Y-116586000D02*
G75*
G02*
X205994000Y-119126000I-2540000J0D01*
G01*
X205994000Y-96266000D02*
G75*
G02*
X208534000Y-98806000I0J-2540000D01*
G01*
X160274000Y-119126000D02*
G75*
G02*
X157734000Y-116586000I0J2540000D01*
G01*
X157734000Y-98806000D02*
G75*
G02*
X160274000Y-96266000I2540000J0D01*
G01*
X208534000Y-116586000D02*
X208534000Y-98806000D01*
X160274000Y-119126000D02*
X205994000Y-119126000D01*
X160274000Y-96266000D02*
X205994000Y-96266000D01*
X157734000Y-116586000D02*
X157734000Y-98806000D01*
%TD*%
M02*
